<svg width="40" height="40" viewBox="0 0 40 40" fill="none" xmlns="http://www.w3.org/2000/svg">
<rect width="40" height="40" rx="20" fill="#FFF2F0"/>
<path d="M27.3281 28.125C27.5391 28.125 27.75 28.3359 27.75 28.5469V29.25H12V28.5469C12 28.3359 12.1758 28.125 12.4219 28.125H13.125V12.0938C13.125 11.6367 13.4766 11.25 13.9688 11.25H25.7812C26.2383 11.25 26.625 11.6367 26.625 12.0938V28.125H27.3281ZM16.5 13.9219V15.3281C16.5 15.5742 16.6758 15.75 16.9219 15.75H18.3281C18.5391 15.75 18.75 15.5742 18.75 15.3281V13.9219C18.75 13.7109 18.5391 13.5 18.3281 13.5H16.9219C16.6758 13.5 16.5 13.7109 16.5 13.9219ZM16.5 17.2969V18.7031C16.5 18.9492 16.6758 19.125 16.9219 19.125H18.3281C18.5391 19.125 18.75 18.9492 18.75 18.7031V17.2969C18.75 17.0859 18.5391 16.875 18.3281 16.875H16.9219C16.6758 16.875 16.5 17.0859 16.5 17.2969ZM18.3281 22.5C18.5391 22.5 18.75 22.3242 18.75 22.0781V20.6719C18.75 20.4609 18.5391 20.25 18.3281 20.25H16.9219C16.6758 20.25 16.5 20.4609 16.5 20.6719V22.0781C16.5 22.3242 16.6758 22.5 16.9219 22.5H18.3281ZM21 28.125V25.1719C21 24.9609 20.7891 24.75 20.5781 24.75H19.1719C18.9258 24.75 18.75 24.9609 18.75 25.1719V28.125H21ZM23.25 22.0781V20.6719C23.25 20.4609 23.0391 20.25 22.8281 20.25H21.4219C21.1758 20.25 21 20.4609 21 20.6719V22.0781C21 22.3242 21.1758 22.5 21.4219 22.5H22.8281C23.0391 22.5 23.25 22.3242 23.25 22.0781ZM23.25 18.7031V17.2969C23.25 17.0859 23.0391 16.875 22.8281 16.875H21.4219C21.1758 16.875 21 17.0859 21 17.2969V18.7031C21 18.9492 21.1758 19.125 21.4219 19.125H22.8281C23.0391 19.125 23.25 18.9492 23.25 18.7031ZM23.25 15.3281V13.9219C23.25 13.7109 23.0391 13.5 22.8281 13.5H21.4219C21.1758 13.5 21 13.7109 21 13.9219V15.3281C21 15.5742 21.1758 15.75 21.4219 15.75H22.8281C23.0391 15.75 23.25 15.5742 23.25 15.3281Z" fill="#FF4D4F"/>
</svg>
