<svg width="40" height="40" viewBox="0 0 40 40" fill="none" xmlns="http://www.w3.org/2000/svg">
<rect width="40" height="40" rx="20" fill="#E6F7FF"/>
<path d="M28.6133 14.5195C28.8242 14.5898 29 14.8008 29 15.0469V16.3125C29 16.6289 28.7188 16.875 28.4375 16.875H11.5625C11.2461 16.875 11 16.6289 11 16.3125V15.0469C11 14.8008 11.1406 14.5898 11.3516 14.5195L19.5781 11.3555C19.7188 11.2852 19.8594 11.2852 20 11.2852C20.1055 11.2852 20.2461 11.2852 20.3867 11.3555L28.6133 14.5195ZM13.25 18H15.5V23.625H18.875V18H21.125V23.625H24.5V18H26.75V23.625H27.3125C27.5938 23.625 27.875 23.9062 27.875 24.1875V25.875H12.125V24.1875C12.125 23.9062 12.3711 23.625 12.6875 23.625H13.25V18ZM28.4375 27C28.7188 27 29 27.2812 29 27.5625V28.6875C29 29.0039 28.7188 29.25 28.4375 29.25H11.5625C11.2461 29.25 11 29.0039 11 28.6875V27.5625C11 27.2812 11.2461 27 11.5625 27H28.4375Z" fill="#00BCD4"/>
</svg>
