<svg width="40" height="40" viewBox="0 0 40 40" fill="none" xmlns="http://www.w3.org/2000/svg">
<rect width="40" height="40" rx="20" fill="#FFF2F0"/>
<path d="M29.1875 13.5H28.625V27H29.1875C29.4688 27 29.75 27.2812 29.75 27.5625V28.6875C29.75 29.0039 29.4688 29.25 29.1875 29.25H20.75V26.4375C20.75 26.1562 20.4688 25.875 20.1875 25.875H19.0625C18.7461 25.875 18.5 26.1562 18.5 26.4375V29.25H10.0625C9.74609 29.25 9.5 29.0039 9.5 28.6875V27.5625C9.5 27.2812 9.74609 27 10.0625 27H10.5898V13.5H10.0625C9.74609 13.5 9.5 13.2539 9.5 12.9375V11.8125C9.5 11.5312 9.74609 11.25 10.0625 11.25H29.1875C29.4688 11.25 29.75 11.5312 29.75 11.8125V12.9375C29.75 13.2539 29.4688 13.5 29.1875 13.5ZM18.5 15.082V16.4531C18.5 16.6641 18.7109 16.875 18.9219 16.875H20.293C20.5039 16.875 20.75 16.6641 20.75 16.4531V15.082C20.75 14.8711 20.5039 14.625 20.293 14.625H18.9219C18.7109 14.625 18.5 14.8711 18.5 15.082ZM18.5 18.457V19.8281C18.5 20.0391 18.7109 20.25 18.9219 20.25H20.293C20.5039 20.25 20.75 20.0391 20.75 19.8281V18.457C20.75 18.2461 20.5039 18 20.293 18H18.9219C18.7109 18 18.5 18.2461 18.5 18.457ZM14 15.082V16.4531C14 16.6641 14.2109 16.875 14.4219 16.875H15.793C16.0039 16.875 16.25 16.6641 16.25 16.4531V15.082C16.25 14.8711 16.0039 14.625 15.793 14.625H14.4219C14.2109 14.625 14 14.8711 14 15.082ZM15.793 20.25C16.0039 20.25 16.25 20.0391 16.25 19.8281V18.457C16.25 18.2461 16.0039 18 15.793 18H14.4219C14.2109 18 14 18.2461 14 18.457V19.8281C14 20.0391 14.2109 20.25 14.4219 20.25H15.793ZM16.25 24.75H23C23 22.8867 21.4883 21.375 19.625 21.375C17.7266 21.375 16.25 22.8867 16.25 24.75ZM25.25 19.8281V18.457C25.25 18.2461 25.0039 18 24.793 18H23.4219C23.2109 18 23 18.2461 23 18.457V19.8281C23 20.0391 23.2109 20.25 23.4219 20.25H24.793C25.0039 20.25 25.25 20.0391 25.25 19.8281ZM25.25 16.4531V15.082C25.25 14.8711 25.0039 14.625 24.793 14.625H23.4219C23.2109 14.625 23 14.8711 23 15.082V16.4531C23 16.6641 23.2109 16.875 23.4219 16.875H24.793C25.0039 16.875 25.25 16.6641 25.25 16.4531Z" fill="#FF4D4F"/>
</svg>
