<svg width="12" height="12" viewBox="0 0 12 12" fill="none" xmlns="http://www.w3.org/2000/svg">
<g clip-path="url(#clip0_98_1408)">
<path d="M6.90086 1.44004C6.53723 0.685675 5.46289 0.685677 5.09925 1.44004L4.03387 3.6502C4.01555 3.68821 3.97928 3.71441 3.93744 3.71987L1.49603 4.03844C0.659038 4.14766 0.325513 5.18075 0.940634 5.75877L2.71902 7.42992C2.75008 7.4591 2.76413 7.5021 2.75629 7.54399L2.30857 9.9375C2.15412 10.7632 3.02484 11.3998 3.7648 11.0023L5.9409 9.83314C5.97784 9.8133 6.02228 9.8133 6.05922 9.83314L8.23531 11.0023C8.97527 11.3998 9.846 10.7632 9.69155 9.9375L9.24382 7.54399C9.23599 7.5021 9.25003 7.4591 9.28109 7.42992L11.0595 5.75877C11.6746 5.18075 11.3411 4.14766 10.5041 4.03844L8.06268 3.71987C8.02083 3.71441 7.98457 3.68821 7.96625 3.6502L6.90086 1.44004Z" fill="#F97316"/>
</g>
<defs>
<clipPath id="clip0_98_1408">
<rect width="12" height="12" fill="white"/>
</clipPath>
</defs>
</svg>
