<svg xmlns="http://www.w3.org/2000/svg" width="20" height="20" fill="none" viewBox="0 0 20 20"><path fill="#f97316" d="M11.502 2.4c-.607-1.257-2.397-1.257-3.003 0L6.723 6.084a.21.21 0 0 1-.16.116l-4.07.53c-1.395.183-1.95 1.905-.925 2.868l2.964 2.785c.052.049.075.12.062.19l-.746 3.99C3.59 17.939 5.04 19 6.275 18.337l3.627-1.948a.21.21 0 0 1 .197 0l3.627 1.948c1.233.663 2.684-.398 2.427-1.774l-.746-3.99a.21.21 0 0 1 .062-.19l2.964-2.785c1.025-.963.469-2.685-.926-2.867l-4.07-.531a.21.21 0 0 1-.16-.116z"/></svg>