<svg width="11" height="11" viewBox="0 0 11 11" fill="none" xmlns="http://www.w3.org/2000/svg">
<path d="M6.42169 0.578853C6.04964 -0.192953 4.95047 -0.19295 4.57843 0.578854L3.48842 2.8401C3.46967 2.87899 3.43257 2.90579 3.38976 2.91138L0.891918 3.23732C0.0355743 3.34906 -0.305661 4.40603 0.32368 4.99742L2.14318 6.70719C2.17496 6.73705 2.18933 6.78105 2.18131 6.82391L1.72324 9.27275C1.56522 10.1175 2.45607 10.7689 3.21313 10.3621L5.43953 9.16597C5.47733 9.14567 5.52279 9.14567 5.56059 9.16597L7.78699 10.3621C8.54405 10.7689 9.4349 10.1175 9.27688 9.27275L8.81881 6.82391C8.81079 6.78105 8.82516 6.73705 8.85694 6.70719L10.6764 4.99742C11.3058 4.40603 10.9645 3.34906 10.1082 3.23732L7.61036 2.91138C7.56755 2.90579 7.53045 2.87899 7.5117 2.8401L6.42169 0.578853Z" fill="#F97316"/>
</svg>
