<svg xmlns="http://www.w3.org/2000/svg" width="12" height="12" fill="none" viewBox="0 0 12 12"><g clip-path="url(#a)"><path fill="#f97316" d="M6.9 1.44a1 1 0 0 0-1.8 0L4.033 3.65a.13.13 0 0 1-.097.07l-2.441.318a1 1 0 0 0-.555 1.72L2.719 7.43c.031.03.045.072.037.114L2.31 9.938a1 1 0 0 0 1.456 1.064L5.94 9.833a.13.13 0 0 1 .118 0l2.176 1.17a1 1 0 0 0 1.457-1.065l-.448-2.394a.13.13 0 0 1 .037-.114l1.778-1.671a1 1 0 0 0-.555-1.72l-2.441-.32a.13.13 0 0 1-.097-.069z"/></g><defs><clipPath id="a"><path fill="#fff" d="M0 0h12v12H0z"/></clipPath></defs></svg>