<svg width="16" height="16" viewBox="0 0 16 16" fill="none" xmlns="http://www.w3.org/2000/svg">
<g clip-path="url(#clip0_179_5082)">
<path d="M8.49984 4.00008C8.49984 3.72394 8.27598 3.50008 7.99984 3.50008C7.7237 3.50008 7.49984 3.72394 7.49984 4.00008V8.00008C7.49984 8.17248 7.58865 8.33271 7.73484 8.42408L10.4015 10.0907C10.6357 10.2371 10.9441 10.1659 11.0905 9.93175C11.2369 9.69758 11.1657 9.3891 10.9315 9.24275L8.49984 7.72296V4.00008Z" fill="#CCCCCC"/>
<path fill-rule="evenodd" clip-rule="evenodd" d="M7.99984 0.166748C3.67361 0.166748 0.166504 3.67385 0.166504 8.00008C0.166504 12.3263 3.67361 15.8334 7.99984 15.8334C12.3261 15.8334 15.8332 12.3263 15.8332 8.00008C15.8332 3.67385 12.3261 0.166748 7.99984 0.166748ZM1.1665 8.00008C1.1665 4.22614 4.22589 1.16675 7.99984 1.16675C11.7738 1.16675 14.8332 4.22614 14.8332 8.00008C14.8332 11.774 11.7738 14.8334 7.99984 14.8334C4.22589 14.8334 1.1665 11.774 1.1665 8.00008Z" fill="#CCCCCC"/>
</g>
<defs>
<clipPath id="clip0_179_5082">
<rect width="16" height="16" fill="white"/>
</clipPath>
</defs>
</svg>
