<svg width="16" height="16" viewBox="0 0 16 16" fill="none" xmlns="http://www.w3.org/2000/svg">
<path d="M12.0002 11.1668C11.8935 11.1668 11.7935 11.1334 11.7002 11.0668C11.4802 10.9001 11.4335 10.5868 11.6002 10.3668C12.6468 8.97343 12.6468 7.02677 11.6002 5.63343C11.4335 5.41343 11.4802 5.1001 11.7002 4.93343C11.9202 4.76677 12.2335 4.81343 12.4002 5.03343C13.7068 6.7801 13.7068 9.2201 12.4002 10.9668C12.3002 11.1001 12.1535 11.1668 12.0002 11.1668Z" fill="#FED7AA"/>
<path d="M13.2199 12.8334C13.1132 12.8334 13.0132 12.8 12.9199 12.7334C12.6999 12.5667 12.6532 12.2534 12.8199 12.0334C14.5999 9.66002 14.5999 6.34002 12.8199 3.96669C12.6532 3.74669 12.6999 3.43335 12.9199 3.26669C13.1399 3.10002 13.4532 3.14669 13.6199 3.36669C15.6666 6.09335 15.6666 9.90669 13.6199 12.6334C13.5266 12.7667 13.3732 12.8334 13.2199 12.8334Z" fill="#FED7AA"/>
<path d="M9.34683 2.5199C8.60016 2.10656 7.64683 2.21323 6.6735 2.8199L4.72683 4.0399C4.5935 4.1199 4.44016 4.16656 4.28683 4.16656H3.66683H3.3335C1.72016 4.16656 0.833496 5.05323 0.833496 6.66656V9.33323C0.833496 10.9466 1.72016 11.8332 3.3335 11.8332H3.66683H4.28683C4.44016 11.8332 4.5935 11.8799 4.72683 11.9599L6.6735 13.1799C7.26016 13.5466 7.8335 13.7266 8.36683 13.7266C8.7135 13.7266 9.04683 13.6466 9.34683 13.4799C10.0868 13.0666 10.5002 12.2066 10.5002 11.0599V4.9399C10.5002 3.79323 10.0868 2.93323 9.34683 2.5199Z" fill="#FED7AA"/>
</svg>
