<svg xmlns="http://www.w3.org/2000/svg" width="20" height="20" viewBox="0 0 20 20" fill="none">
    <g clip-path="url(#clip0_179_4628)">
        <path d="M17.5002 6.66668C17.5002 7.12692 17.8733 7.50002 18.3335 7.50002C18.7937 7.50002 19.1668 7.12692 19.1668 6.66668V1.66659C19.1668 1.20635 18.7937 0.833252 18.3335 0.833252L13.3335 0.833252C12.8733 0.833252 12.5002 1.20635 12.5002 1.66659C12.5002 2.12682 12.8733 2.49992 13.3335 2.49992H16.3217L8.57757 10.2441C8.25214 10.5695 8.25214 11.0972 8.57757 11.4226C8.90301 11.748 9.43065 11.748 9.75609 11.4226L17.5002 3.67853V6.66668Z" fill="#1F2937"/>
        <path d="M5.63241 2.50002L9.16683 2.50002C9.62707 2.50002 10.0002 2.87311 10.0002 3.33335C10.0002 3.79359 9.62707 4.16668 9.16683 4.16668H5.66683C4.95301 4.16668 4.46777 4.16733 4.0927 4.19798C3.72735 4.22783 3.54051 4.28193 3.41018 4.34834C3.09658 4.50813 2.84161 4.7631 2.68182 5.0767C2.61541 5.20703 2.56131 5.39387 2.53146 5.75921C2.50081 6.13429 2.50016 6.61953 2.50016 7.33335V14.3333C2.50016 15.0472 2.50081 15.5324 2.53146 15.9075C2.56131 16.2728 2.61541 16.4597 2.68182 16.59C2.84161 16.9036 3.09658 17.1586 3.41018 17.3184C3.54051 17.3848 3.72735 17.4389 4.0927 17.4687C4.46777 17.4994 4.95301 17.5 5.66683 17.5H12.6668C13.3806 17.5 13.8659 17.4994 14.241 17.4687C14.6063 17.4389 14.7931 17.3848 14.9235 17.3184C15.2371 17.1586 15.4921 16.9036 15.6518 16.59C15.7182 16.4597 15.7724 16.2728 15.8022 15.9075C15.8328 15.5324 15.8335 15.0472 15.8335 14.3333V10.8334C15.8335 10.3731 16.2066 10 16.6668 10C17.1271 10 17.5002 10.3731 17.5002 10.8334V14.3678C17.5002 15.0386 17.5002 15.5922 17.4633 16.0432C17.4251 16.5116 17.3429 16.9422 17.1369 17.3466C16.8173 17.9739 16.3073 18.4838 15.6801 18.8034C15.2757 19.0094 14.8451 19.0916 14.3767 19.1299C13.9257 19.1667 13.3721 19.1667 12.7013 19.1667H5.63239C4.96159 19.1667 4.40797 19.1667 3.95698 19.1299C3.48856 19.0916 3.05798 19.0094 2.65353 18.8034C2.02632 18.4838 1.51639 17.9739 1.19681 17.3466C0.990733 16.9422 0.908596 16.5116 0.870325 16.0432C0.833478 15.5922 0.833486 15.0386 0.833496 14.3678V7.29893C0.833486 6.62813 0.833478 6.07449 0.870325 5.62349C0.908596 5.15508 0.990733 4.72449 1.19681 4.32005C1.51639 3.69284 2.02632 3.18291 2.65353 2.86333C3.05798 2.65725 3.48856 2.57512 3.95698 2.53684C4.40797 2.5 4.96161 2.50001 5.63241 2.50002Z" fill="#1F2937"/>
    </g>
    <defs>
        <clipPath id="clip0_179_4628">
            <rect width="20" height="20" fill="white"/>
        </clipPath>
    </defs>
</svg>