<svg width="22" height="19" viewBox="0 0 22 19" fill="none" xmlns="http://www.w3.org/2000/svg">
<path d="M19.027 1.94234C22 4.43964 21.564 8.52252 19.4631 10.7027L12.4865 17.7982C12.0901 18.1946 11.5748 18.4324 11.0198 18.4324C10.4252 18.4324 9.90991 18.1946 9.51351 17.7982L2.57658 10.7027C0.436036 8.52252 0 4.43964 2.97297 1.94234C5.27207 0 8.8 0.277477 11.0198 2.53694C13.2 0.277477 16.7279 0 19.027 1.94234ZM18.0757 9.35495C19.5423 7.88829 19.8198 5.11351 17.7982 3.36937C16.2523 2.1009 13.8739 2.2991 12.4072 3.80541L11.0198 5.23243L9.63243 3.80541C8.12613 2.2991 5.74775 2.1009 4.2018 3.40901C2.18018 5.11351 2.45766 7.88829 3.92432 9.35495L10.8613 16.4505C10.9802 16.5297 11.0595 16.5297 11.1387 16.4505L18.0757 9.35495Z" fill="#1F2937"/>
</svg>
