<svg xmlns="http://www.w3.org/2000/svg" width="32" height="32" fill="none" viewBox="0 0 32 32"><rect width="32" height="32" fill="#000" fill-opacity=".3" rx="16"/><path fill="#fff" d="M22.313 10.031c2.343 1.969 2 5.188.343 6.906l-5.5 5.594a1.63 1.63 0 0 1-1.156.5c-.469 0-.875-.187-1.187-.5l-5.47-5.593c-1.687-1.72-2.03-4.938.313-6.907C11.47 8.5 14.25 8.72 16 10.5c1.719-1.781 4.5-2 6.313-.469m-.75 5.844c1.156-1.156 1.375-3.344-.22-4.719-1.218-1-3.093-.844-4.25.344L16 12.625 14.906 11.5c-1.187-1.187-3.062-1.344-4.281-.312-1.594 1.343-1.375 3.53-.219 4.687l5.469 5.594c.094.062.156.062.219 0z"/></svg>