<svg width="18" height="15" viewBox="0 0 18 15" fill="none" xmlns="http://www.w3.org/2000/svg">
<path d="M15.4839 1.58065C17.9032 3.6129 17.5484 6.93548 15.8387 8.70968L10.1613 14.4839C9.83871 14.8065 9.41935 15 8.96774 15C8.48387 15 8.06452 14.8065 7.74194 14.4839L2.09677 8.70968C0.354839 6.93548 0 3.6129 2.41935 1.58065C4.29032 0 7.16129 0.225806 8.96774 2.06452C10.7419 0.225806 13.6129 0 15.4839 1.58065ZM14.7097 7.6129C15.9032 6.41935 16.129 4.16129 14.4839 2.74194C13.2258 1.70968 11.2903 1.87097 10.0968 3.09677L8.96774 4.25806L7.83871 3.09677C6.6129 1.87097 4.67742 1.70968 3.41935 2.77419C1.77419 4.16129 2 6.41935 3.19355 7.6129L8.83871 13.3871C8.93548 13.4516 9 13.4516 9.06452 13.3871L14.7097 7.6129Z" fill="#EF4444"/>
</svg>