<svg xmlns="http://www.w3.org/2000/svg" width="18" height="15" fill="none" viewBox="0 0 18 15"><path fill="#ef4444" d="M15.484 1.58c2.42 2.033 2.064 5.355.355 7.13l-5.678 5.774A1.7 1.7 0 0 1 8.968 15c-.484 0-.903-.194-1.226-.516L2.097 8.71C.355 6.935 0 3.613 2.419 1.58 4.29 0 7.161.227 8.968 2.066 10.742.225 13.613 0 15.484 1.58m-.774 6.033c1.193-1.194 1.419-3.452-.226-4.871-1.258-1.032-3.194-.871-4.387.355l-1.13 1.161L7.84 3.097C6.613 1.87 4.677 1.71 3.419 2.774 1.774 4.161 2 6.42 3.194 7.613l5.645 5.774c.096.065.161.065.226 0z"/></svg>