<svg xmlns="http://www.w3.org/2000/svg" width="216" height="24" fill="none" viewBox="0 0 216 24"><rect width="215.53" height="24" fill="#000" fill-opacity=".4" rx="12"/><path fill="#f87171" d="M18.07 6.922c.282-.563 1.078-.54 1.336 0l1.547 3.117 3.422.492c.61.094.844.844.398 1.29l-2.46 2.413.585 3.399c.094.61-.562 1.078-1.101.797l-3.047-1.617-3.07 1.617c-.54.28-1.196-.188-1.102-.797l.586-3.399-2.46-2.414c-.446-.445-.212-1.195.398-1.289l3.445-.492z"/><path fill="#fff" d="M40.516 8.704h-3.888v2.052q.252-.312.72-.504.468-.204.996-.204.96 0 1.572.42t.888 1.08q.276.648.276 1.392 0 1.38-.792 2.22-.78.84-2.232.84-1.368 0-2.184-.684t-.924-1.788h1.632a1.3 1.3 0 0 0 .48.768q.384.288.972.288.708 0 1.068-.444t.36-1.176q0-.744-.372-1.128-.36-.396-1.068-.396-.504 0-.84.252a1.4 1.4 0 0 0-.48.672h-1.608V7.228h5.424zm2.779 7.38q-.456 0-.756-.276a.96.96 0 0 1-.288-.708q0-.42.288-.696.3-.288.756-.288.444 0 .732.288a.92.92 0 0 1 .288.696q0 .42-.288.708a1 1 0 0 1-.732.276m2.18-4.572q0-2.076.745-3.252.756-1.176 2.496-1.176T51.2 8.26q.756 1.176.756 3.252 0 2.088-.756 3.276-.744 1.188-2.484 1.188t-2.496-1.188q-.744-1.188-.744-3.276m4.825 0q0-.888-.12-1.488-.108-.612-.456-.996-.336-.384-1.008-.384t-1.02.384q-.336.384-.456.996-.108.6-.108 1.488 0 .912.108 1.536.108.612.456.996.348.372 1.02.372t1.02-.372q.348-.384.456-.996.108-.624.108-1.536M61.41 6.244h4.692v1.2H61.41zm1.38.48 1.344.084q-.144 1.404-.672 2.352a4.34 4.34 0 0 1-1.452 1.548 2.3 2.3 0 0 0-.312-.276 8 8 0 0 0-.42-.324 5 5 0 0 0-.36-.24q.912-.444 1.344-1.224.444-.792.528-1.92m2.568-.48h1.368v.192q0 .192-.012.3a31 31 0 0 1-.096 1.668 7 7 0 0 1-.156 1.02q-.084.372-.228.54a.96.96 0 0 1-.372.288 1.7 1.7 0 0 1-.432.12q-.228.036-.588.048-.348 0-.756-.012a2.7 2.7 0 0 0-.108-.624 2.4 2.4 0 0 0-.24-.588q.312.024.576.036h.396q.24.012.348-.108.084-.108.132-.384.048-.288.084-.84.048-.564.084-1.464zm-9.096.792h4.788v1.248h-4.788zm-.276 2.352h5.28v1.26h-5.28zm2.808 2.568h2.316v1.248h-2.316zm-.768-6.144h1.32v4.236h-1.32zm.216 4.32h1.284v5.328h-1.284zm-.804 2.364q.24.948.612 1.524.384.576.936.876.564.288 1.308.396.744.096 1.692.096.228 0 .624.012h.9a42 42 0 0 1 1.02-.012h1.056q.516 0 .936-.012.42-.024.696-.024-.108.156-.216.408t-.204.516q-.084.276-.132.492h-4.68q-1.2 0-2.112-.156-.912-.144-1.572-.564t-1.128-1.2q-.456-.78-.768-2.04zM56.37 11.26l1.26.084q-.012 1.14-.084 2.196a15 15 0 0 1-.252 1.956 7.3 7.3 0 0 1-.492 1.572 2.5 2.5 0 0 0-.336-.216 22 22 0 0 0-.444-.24 4 4 0 0 0-.372-.168q.3-.6.456-1.416t.204-1.776.06-1.992m6.684.768v1.488h1.956v-1.488zm-1.344-1.164h4.74v3.792h-4.74zm10.692-3.972h6.408V8.08h-6.408zm.096 7.464h6v1.176h-6zm.972-1.74h4.056v1.104H73.47zm-.732-4.02h5.784v1.092h-5.784zm-.816 1.668h7.176v1.176h-7.176zm2.916 1.536h1.308v5.28h-1.308zm2.076-2.76q.216.756.564 1.488t.804 1.332q.468.6 1.032.984-.216.18-.492.492-.276.3-.432.564-.6-.48-1.104-1.188a9.4 9.4 0 0 1-.864-1.584 14 14 0 0 1-.624-1.812zm-8.916-.744h3.972v1.332h-3.972zM69.461 5.8h1.296v11.268h-1.296zm-.024 3.408.792.264q-.12.72-.312 1.488a25 25 0 0 1-.432 1.5q-.24.732-.528 1.368a6 6 0 0 1-.6 1.092 4.4 4.4 0 0 0-.3-.648 7 7 0 0 0-.348-.612q.288-.396.552-.924t.492-1.128.396-1.212q.18-.624.288-1.188m1.26.516q.096.12.288.396.204.264.432.588.24.324.432.6t.264.396l-.744 1.02a7 7 0 0 0-.264-.564q-.156-.336-.348-.684-.192-.36-.372-.672-.168-.312-.288-.516zm3.576-3.816h1.284v.6q0 .576-.06 1.308t-.252 1.548a9 9 0 0 1-.552 1.644 8 8 0 0 1-.984 1.62 7.6 7.6 0 0 1-1.524 1.464 3 3 0 0 0-.276-.336 5 5 0 0 0-.348-.36 2.5 2.5 0 0 0-.336-.288q.84-.6 1.392-1.284.552-.696.888-1.428t.504-1.428q.168-.708.216-1.344t.048-1.14z"/><path fill="#d1d5db" d="M88.612 15.124A57 57 0 0 0 91 13.12a9.8 9.8 0 0 0 1.452-1.644q.6-.864.6-1.692 0-.78-.384-1.224-.372-.456-1.212-.456-.816 0-1.272.516-.444.504-.48 1.356h-1.056q.048-1.344.816-2.076t1.98-.732q1.236 0 1.956.684.732.684.732 1.884 0 .996-.6 1.944a8.6 8.6 0 0 1-1.344 1.656 35 35 0 0 1-1.932 1.656h4.128v.912h-5.772zm7.034-3.552q0-2.064.672-3.216.672-1.164 2.352-1.164 1.668 0 2.34 1.164.672 1.152.672 3.216 0 2.1-.672 3.264T98.67 16q-1.68 0-2.352-1.164t-.672-3.264m4.956 0q0-1.044-.144-1.764-.132-.732-.564-1.176-.42-.444-1.224-.444-.816 0-1.248.444-.42.444-.564 1.176-.132.72-.132 1.764 0 1.08.132 1.812.144.732.564 1.176.432.444 1.248.444.804 0 1.224-.444.432-.444.564-1.176.144-.732.144-1.812m5.664-4.548h4.788v.78h-4.788zm4.536 0h.18l.168-.048.6.36a6.7 6.7 0 0 1-1.44 1.848 10.2 10.2 0 0 1-1.992 1.404q-1.092.588-2.316.996a20 20 0 0 1-2.448.636 2 2 0 0 0-.18-.42q-.12-.24-.24-.396 1.164-.18 2.316-.54 1.164-.36 2.208-.888a9.4 9.4 0 0 0 1.86-1.224q.816-.708 1.284-1.584zm-3.828-1.128.984.192q-.612.996-1.596 1.956-.972.948-2.388 1.716-.084-.12-.192-.24a6 6 0 0 0-.228-.24q-.12-.12-.228-.18a9.4 9.4 0 0 0 1.596-.972q.708-.54 1.224-1.116a6.8 6.8 0 0 0 .828-1.116m-.66 1.62q.672 1.02 1.812 1.764t2.616 1.236q1.476.48 3.168.696a4 4 0 0 0-.396.54 5 5 0 0 0-.144.264 16.6 16.6 0 0 1-3.204-.792q-1.488-.54-2.676-1.38a7.7 7.7 0 0 1-1.944-1.98zm-3.192 5.076h10.656v.804h-10.656zm4.836-1.296h.912v5.664h-.912zm-.408 1.656.72.312q-.54.744-1.332 1.416-.78.672-1.68 1.2t-1.776.864a2 2 0 0 0-.168-.252l-.216-.264a2 2 0 0 0-.216-.228 10.7 10.7 0 0 0 1.764-.744q.888-.468 1.644-1.056.768-.6 1.26-1.248m1.728-.024q.492.66 1.248 1.248.768.588 1.668 1.044.9.444 1.8.72a3 3 0 0 0-.216.216q-.12.144-.216.288t-.18.252q-.9-.312-1.812-.84-.9-.528-1.692-1.188a9 9 0 0 1-1.332-1.404z"/><path fill="#fff" d="M124.629 7v.797l-.176 2.092h-.65V7zm1.582 0v.797l-.176 2.092h-.65V7zm2.469 1.2h.888v2.688q0 .648-.06 1.416-.06.756-.228 1.548a8 8 0 0 1-.492 1.536 5.2 5.2 0 0 1-.828 1.356 1 1 0 0 0-.216-.18l-.288-.192a1 1 0 0 0-.264-.132q.504-.588.792-1.26.3-.684.444-1.392a10 10 0 0 0 .204-1.416q.048-.696.048-1.296zm.456 0h8.064v2.58h-8.064v-.696h7.176V8.896h-7.176zm-1.32-1.632h10.08v.816h-10.08zm1.26 5.268h9.132v.732h-9.132zm3.216 1.692h4.08v.72h-4.08zm.54-2.844h.888v1.512h-.888zm3.312 2.844h.888l-.012.144q0 .132-.012.216-.084.888-.168 1.464a4.6 4.6 0 0 1-.204.888q-.108.324-.264.48a.85.85 0 0 1-.348.216q-.192.06-.456.072a15 15 0 0 1-1.632-.024 2 2 0 0 0-.072-.396 1.4 1.4 0 0 0-.168-.372q.492.048.912.06t.588.012q.156 0 .264-.024a.3.3 0 0 0 .18-.084q.108-.108.192-.372.084-.276.156-.792.084-.528.156-1.368zm-4.044-1.332h.9a9.6 9.6 0 0 1-.288 1.608 4.6 4.6 0 0 1-.588 1.356q-.396.6-1.068 1.056t-1.716.768a1.3 1.3 0 0 0-.12-.228 3 3 0 0 0-.192-.264 1 1 0 0 0-.192-.192q.96-.264 1.56-.66.612-.396.948-.912a4 4 0 0 0 .516-1.152 9 9 0 0 0 .24-1.38m8.868-.108v-.732l.6-.312h7.764v.876h-7.056q-.36 0-.636.024-.264.012-.432.048a.6.6 0 0 0-.24.096m3.96-2.808h.912v6.444q0 .396-.108.612-.096.228-.384.348-.276.108-.744.144-.456.036-1.092.036a2 2 0 0 0-.084-.312 6 6 0 0 0-.132-.336q-.06-.156-.132-.288.516.012.948.012t.588-.012q.132 0 .18-.048t.048-.168zm-3 3.588.9.24q-.288.636-.672 1.248a11 11 0 0 1-.828 1.152 9 9 0 0 1-.864.948l-.228-.192a8 8 0 0 0-.276-.216 2 2 0 0 0-.264-.168 8 8 0 0 0 1.272-1.368q.6-.804.96-1.644m4.908.36.744-.372q.468.444.96.996.492.54.912 1.068t.672.948l-.804.444q-.24-.42-.648-.96a21 21 0 0 0-.888-1.092q-.48-.564-.948-1.032m-7.068-5.712h10.08v.852h-10.08zm1.2 4.572a3 3 0 0 0-.084-.264 3 3 0 0 0-.12-.36q-.06-.18-.12-.3.204-.06.42-.3.216-.252.48-.648.144-.192.42-.624.276-.444.612-1.044.348-.6.684-1.296.348-.696.624-1.404l.96.396a33 33 0 0 1-.96 1.932 26 26 0 0 1-1.08 1.812 20 20 0 0 1-1.104 1.548v.024l-.108.06a2.7 2.7 0 0 0-.516.312q-.108.084-.108.156m15.252-5.796h1.008q-.024.468-.084 1.236t-.228 1.74q-.156.96-.492 2.004a11.6 11.6 0 0 1-.9 2.064 9.3 9.3 0 0 1-1.44 1.932q-.864.912-2.112 1.584a2 2 0 0 0-.312-.36 3 3 0 0 0-.42-.336q1.236-.636 2.076-1.488a8.4 8.4 0 0 0 1.38-1.824q.54-.972.84-1.956.3-.996.444-1.896t.18-1.596a32 32 0 0 0 .06-1.104m.96.24q.012.204.048.708.048.492.168 1.2t.348 1.536.612 1.704.948 1.704a8.4 8.4 0 0 0 1.356 1.536 7.4 7.4 0 0 0 1.86 1.176 3.3 3.3 0 0 0-.396.36q-.18.216-.3.396a8 8 0 0 1-1.908-1.26 9.3 9.3 0 0 1-1.404-1.632 12 12 0 0 1-.972-1.812 15 15 0 0 1-.984-3.444 20 20 0 0 1-.228-2.1zm10.644-.048h.912v9.492l-.912.204zm.42 0h5.388v5.352h-5.388v-.804h4.488V7.288h-4.488zm0 2.292h4.872v.78h-4.872zm-1.584 7.128q.576-.084 1.344-.204.768-.132 1.632-.276l1.728-.288.06.804q-.792.144-1.608.288a50 50 0 0 1-1.548.276q-.732.132-1.356.252zm4.188-4.416a9.2 9.2 0 0 0 .768 2.028 6.7 6.7 0 0 0 1.224 1.62q.72.684 1.668 1.056a2 2 0 0 0-.228.216l-.216.288q-.096.144-.168.276a5.7 5.7 0 0 1-1.74-1.224 7.3 7.3 0 0 1-1.26-1.824 11.5 11.5 0 0 1-.828-2.28zm2.712.756.648.516q-.348.312-.756.624a20 20 0 0 1-.828.6q-.408.288-.768.504l-.576-.516q.348-.216.768-.504a13 13 0 0 0 1.512-1.224m-7.224-3.948.816.312q-.444.744-1.02 1.464t-1.224 1.356q-.636.624-1.272 1.104a1.6 1.6 0 0 0-.132-.252 7 7 0 0 0-.204-.312 2 2 0 0 0-.18-.252q.6-.42 1.188-.96.6-.552 1.116-1.176.528-.636.912-1.284m-.396-2.364.852.336q-.36.54-.864 1.08-.492.54-1.056 1.032-.564.48-1.116.84a3 3 0 0 0-.132-.228 3 3 0 0 0-.18-.276 2 2 0 0 0-.168-.228 9 9 0 0 0 1.008-.756q.516-.432.948-.9t.708-.9m-.864 4.776.84-.84.036.024v7.056h-.876zm10.32.108q.54-.132 1.236-.312.708-.192 1.488-.396l1.584-.432.108.816-2.232.624q-1.104.312-1.968.564zm.24-3.216h4.044v.84h-4.044zm1.8-1.668h.84v7.056q0 .348-.096.54a.6.6 0 0 1-.324.3 2 2 0 0 1-.6.132q-.384.024-.972.024a2 2 0 0 0-.108-.408 3 3 0 0 0-.156-.396q.42.012.756.012.336-.012.444-.012.12 0 .168-.036.048-.048.048-.156zm2.544 1.716h4.608v.78h-4.608zm-.084 2.904.444-.624q.576.324 1.212.72t1.212.792q.588.384.96.684l-.468.708q-.36-.312-.936-.708-.564-.408-1.212-.816-.636-.42-1.212-.756m4.164-2.904h.852q-.048 1.884-.048 3.132.012 1.248.144 1.872t.456.624q.156 0 .228-.288.084-.288.108-1.032.144.096.348.204.204.096.36.144-.048.684-.168 1.08-.12.384-.348.54-.216.144-.564.144-.576 0-.876-.432-.288-.432-.396-1.26a16 16 0 0 1-.108-2.028q0-1.2.012-2.7m-2.424-1.74h.864a51 51 0 0 1-.096 2.916q-.084 1.272-.336 2.256a5 5 0 0 1-.78 1.704q-.528.72-1.452 1.236a2 2 0 0 0-.264-.336 2 2 0 0 0-.312-.312q.852-.456 1.332-1.104.48-.66.696-1.548.228-.9.276-2.088.06-1.2.072-2.724m-2.676 8.76.828-.084q.12.528.204 1.152.084.612.096 1.02l-.888.132q0-.288-.036-.672-.024-.372-.072-.78a7 7 0 0 0-.132-.768m2.472-.024.84-.156q.168.348.324.756.156.396.276.768t.18.66l-.888.192a9 9 0 0 0-.288-1.056 12 12 0 0 0-.444-1.164m2.484-.06.792-.336q.312.36.624.792.312.42.576.84t.432.732l-.852.396a6 6 0 0 0-.408-.744q-.252-.42-.564-.864-.3-.444-.6-.816m-6.984-.264.84.228q-.204.42-.468.864t-.552.852a7 7 0 0 1-.552.72l-.84-.348q.276-.288.564-.66.288-.384.552-.816t.456-.84m15.036-1.524h4.788v.684h-4.788zm-1.116-5.94h7.128v.696h-7.128zm.288 1.464h6.54v.66h-6.54zm-.648 1.488h7.848v.696h-7.848zm1.488 4.584h4.812v.684h-4.812zm-.624-3.192h5.388v.696h-4.548v5.052h-.84zm5.184 0h.852v4.752q0 .336-.096.528-.084.192-.336.288-.252.108-.672.12-.42.024-1.056.024a2 2 0 0 0-.108-.396 3 3 0 0 0-.156-.384q.456.012.84.012.396.012.516 0 .216-.012.216-.204zm-2.616-5.28h.888v4.104h-.888zm-5.256 0h.816v11.028h-.816zm-.948 2.316.672.084q-.024.468-.096 1.056-.06.576-.168 1.152a9 9 0 0 1-.252 1.032l-.708-.24q.144-.408.252-.948t.18-1.104q.084-.564.12-1.032m1.872-.324.6-.24q.204.408.396.9.192.48.276.804l-.636.312a12 12 0 0 0-.636-1.776M200.473 7v.797l-.176 2.092h-.651V7zm1.582 0v.797l-.176 2.092h-.65V7z"/></svg>