<svg width="216" height="24" viewBox="0 0 216 24" fill="none" xmlns="http://www.w3.org/2000/svg">
<rect width="215.53" height="24" rx="12" fill="black" fill-opacity="0.4"/>
<path d="M18.0703 6.92188C18.3516 6.35938 19.1484 6.38281 19.4062 6.92188L20.9531 10.0391L24.375 10.5312C24.9844 10.625 25.2188 11.375 24.7734 11.8203L22.3125 14.2344L22.8984 17.6328C22.9922 18.2422 22.3359 18.7109 21.7969 18.4297L18.75 16.8125L15.6797 18.4297C15.1406 18.7109 14.4844 18.2422 14.5781 17.6328L15.1641 14.2344L12.7031 11.8203C12.2578 11.375 12.4922 10.625 13.1016 10.5312L16.5469 10.0391L18.0703 6.92188Z" fill="#F87171"/>
<path d="M40.516 8.704H36.628V10.756C36.796 10.548 37.036 10.38 37.348 10.252C37.66 10.116 37.992 10.048 38.344 10.048C38.984 10.048 39.508 10.188 39.916 10.468C40.324 10.748 40.62 11.108 40.804 11.548C40.988 11.98 41.08 12.444 41.08 12.94C41.08 13.86 40.816 14.6 40.288 15.16C39.768 15.72 39.024 16 38.056 16C37.144 16 36.416 15.772 35.872 15.316C35.328 14.86 35.02 14.264 34.948 13.528H36.58C36.652 13.848 36.812 14.104 37.06 14.296C37.316 14.488 37.64 14.584 38.032 14.584C38.504 14.584 38.86 14.436 39.1 14.14C39.34 13.844 39.46 13.452 39.46 12.964C39.46 12.468 39.336 12.092 39.088 11.836C38.848 11.572 38.492 11.44 38.02 11.44C37.684 11.44 37.404 11.524 37.18 11.692C36.956 11.86 36.796 12.084 36.7 12.364H35.092V7.228H40.516V8.704ZM43.2947 16.084C42.9907 16.084 42.7387 15.992 42.5387 15.808C42.3467 15.616 42.2507 15.38 42.2507 15.1C42.2507 14.82 42.3467 14.588 42.5387 14.404C42.7387 14.212 42.9907 14.116 43.2947 14.116C43.5907 14.116 43.8347 14.212 44.0267 14.404C44.2187 14.588 44.3147 14.82 44.3147 15.1C44.3147 15.38 44.2187 15.616 44.0267 15.808C43.8347 15.992 43.5907 16.084 43.2947 16.084ZM45.4758 11.512C45.4758 10.128 45.7238 9.044 46.2198 8.26C46.7238 7.476 47.5558 7.084 48.7158 7.084C49.8758 7.084 50.7038 7.476 51.1998 8.26C51.7038 9.044 51.9558 10.128 51.9558 11.512C51.9558 12.904 51.7038 13.996 51.1998 14.788C50.7038 15.58 49.8758 15.976 48.7158 15.976C47.5558 15.976 46.7238 15.58 46.2198 14.788C45.7238 13.996 45.4758 12.904 45.4758 11.512ZM50.2998 11.512C50.2998 10.92 50.2598 10.424 50.1798 10.024C50.1078 9.616 49.9558 9.284 49.7238 9.028C49.4998 8.772 49.1638 8.644 48.7158 8.644C48.2678 8.644 47.9278 8.772 47.6958 9.028C47.4718 9.284 47.3198 9.616 47.2398 10.024C47.1678 10.424 47.1318 10.92 47.1318 11.512C47.1318 12.12 47.1678 12.632 47.2398 13.048C47.3118 13.456 47.4638 13.788 47.6958 14.044C47.9278 14.292 48.2678 14.416 48.7158 14.416C49.1638 14.416 49.5038 14.292 49.7358 14.044C49.9678 13.788 50.1198 13.456 50.1918 13.048C50.2638 12.632 50.2998 12.12 50.2998 11.512ZM61.409 6.244H66.101V7.444H61.409V6.244ZM62.789 6.724L64.133 6.808C64.037 7.744 63.813 8.528 63.461 9.16C63.109 9.792 62.625 10.308 62.009 10.708C61.937 10.628 61.833 10.536 61.697 10.432C61.561 10.32 61.421 10.212 61.277 10.108C61.133 10.004 61.013 9.924 60.917 9.868C61.525 9.572 61.973 9.164 62.261 8.644C62.557 8.116 62.733 7.476 62.789 6.724ZM65.357 6.244H66.725C66.725 6.244 66.725 6.308 66.725 6.436C66.725 6.564 66.721 6.664 66.713 6.736C66.689 7.408 66.657 7.964 66.617 8.404C66.577 8.836 66.525 9.176 66.461 9.424C66.405 9.672 66.329 9.852 66.233 9.964C66.121 10.1 65.997 10.196 65.861 10.252C65.733 10.308 65.589 10.348 65.429 10.372C65.277 10.396 65.081 10.412 64.841 10.42C64.609 10.42 64.357 10.416 64.085 10.408C64.077 10.216 64.041 10.008 63.977 9.784C63.913 9.552 63.833 9.356 63.737 9.196C63.945 9.212 64.137 9.224 64.313 9.232C64.489 9.232 64.621 9.232 64.709 9.232C64.869 9.24 64.985 9.204 65.057 9.124C65.113 9.052 65.157 8.924 65.189 8.74C65.221 8.548 65.249 8.268 65.273 7.9C65.305 7.524 65.333 7.036 65.357 6.436V6.244ZM56.261 7.036H61.049V8.284H56.261V7.036ZM55.985 9.388H61.265V10.648H55.985V9.388ZM58.793 11.956H61.109V13.204H58.793V11.956ZM58.025 5.812H59.345V10.048H58.025V5.812ZM58.241 10.132H59.525V15.46H58.241V10.132ZM57.437 12.496C57.597 13.128 57.801 13.636 58.049 14.02C58.305 14.404 58.617 14.696 58.985 14.896C59.361 15.088 59.797 15.22 60.293 15.292C60.789 15.356 61.353 15.388 61.985 15.388C62.137 15.388 62.345 15.392 62.609 15.4C62.881 15.4 63.181 15.4 63.509 15.4C63.837 15.392 64.177 15.388 64.529 15.388C64.889 15.388 65.241 15.388 65.585 15.388C65.929 15.388 66.241 15.384 66.521 15.376C66.801 15.36 67.033 15.352 67.217 15.352C67.145 15.456 67.073 15.592 67.001 15.76C66.929 15.928 66.861 16.1 66.797 16.276C66.741 16.46 66.697 16.624 66.665 16.768H65.801H61.985C61.185 16.768 60.481 16.716 59.873 16.612C59.265 16.516 58.741 16.328 58.301 16.048C57.861 15.768 57.485 15.368 57.173 14.848C56.869 14.328 56.613 13.648 56.405 12.808L57.437 12.496ZM56.369 11.26L57.629 11.344C57.621 12.104 57.593 12.836 57.545 13.54C57.497 14.244 57.413 14.896 57.293 15.496C57.173 16.088 57.009 16.612 56.801 17.068C56.721 17.004 56.609 16.932 56.465 16.852C56.321 16.772 56.173 16.692 56.021 16.612C55.877 16.54 55.753 16.484 55.649 16.444C55.849 16.044 56.001 15.572 56.105 15.028C56.209 14.484 56.277 13.892 56.309 13.252C56.341 12.612 56.361 11.948 56.369 11.26ZM63.053 12.028V13.516H65.009V12.028H63.053ZM61.709 10.864H66.449V14.656H61.709V10.864ZM72.401 6.892H78.809V8.08H72.401V6.892ZM72.497 14.356H78.497V15.532H72.497V14.356ZM73.469 12.616H77.525V13.72H73.469V12.616ZM72.737 8.596H78.521V9.688H72.737V8.596ZM71.921 10.264H79.097V11.44H71.921V10.264ZM74.837 11.8H76.145V17.08H74.837V11.8ZM76.913 9.04C77.057 9.544 77.245 10.04 77.477 10.528C77.709 11.016 77.977 11.46 78.281 11.86C78.593 12.26 78.937 12.588 79.313 12.844C79.169 12.964 79.005 13.128 78.821 13.336C78.637 13.536 78.493 13.724 78.389 13.9C77.989 13.58 77.621 13.184 77.285 12.712C76.957 12.232 76.669 11.704 76.421 11.128C76.173 10.544 75.965 9.94 75.797 9.316L76.913 9.04ZM67.997 8.296H71.969V9.628H67.997V8.296ZM69.461 5.8H70.757V17.068H69.461V5.8ZM69.437 9.208L70.229 9.472C70.149 9.952 70.045 10.448 69.917 10.96C69.789 11.464 69.645 11.964 69.485 12.46C69.325 12.948 69.149 13.404 68.957 13.828C68.773 14.252 68.573 14.616 68.357 14.92C68.293 14.736 68.193 14.52 68.057 14.272C67.929 14.024 67.813 13.82 67.709 13.66C67.901 13.396 68.085 13.088 68.261 12.736C68.437 12.384 68.601 12.008 68.753 11.608C68.905 11.208 69.037 10.804 69.149 10.396C69.269 9.98 69.365 9.584 69.437 9.208ZM70.697 9.724C70.761 9.804 70.857 9.936 70.985 10.12C71.121 10.296 71.265 10.492 71.417 10.708C71.577 10.924 71.721 11.124 71.849 11.308C71.977 11.492 72.065 11.624 72.113 11.704L71.369 12.724C71.305 12.564 71.217 12.376 71.105 12.16C71.001 11.936 70.885 11.708 70.757 11.476C70.629 11.236 70.505 11.012 70.385 10.804C70.273 10.596 70.177 10.424 70.097 10.288L70.697 9.724ZM74.273 5.908H75.557V6.508C75.557 6.892 75.537 7.328 75.497 7.816C75.457 8.304 75.373 8.82 75.245 9.364C75.125 9.9 74.941 10.448 74.693 11.008C74.445 11.56 74.117 12.1 73.709 12.628C73.301 13.156 72.793 13.644 72.185 14.092C72.121 13.996 72.029 13.884 71.909 13.756C71.797 13.628 71.681 13.508 71.561 13.396C71.441 13.276 71.329 13.18 71.225 13.108C71.785 12.708 72.249 12.28 72.617 11.824C72.985 11.36 73.281 10.884 73.505 10.396C73.729 9.908 73.897 9.432 74.009 8.968C74.121 8.496 74.193 8.048 74.225 7.624C74.257 7.2 74.273 6.82 74.273 6.484V5.908Z" fill="white"/>
<path d="M88.612 15.124C89.628 14.308 90.424 13.64 91 13.12C91.576 12.592 92.06 12.044 92.452 11.476C92.852 10.9 93.052 10.336 93.052 9.784C93.052 9.264 92.924 8.856 92.668 8.56C92.42 8.256 92.016 8.104 91.456 8.104C90.912 8.104 90.488 8.276 90.184 8.62C89.888 8.956 89.728 9.408 89.704 9.976H88.648C88.68 9.08 88.952 8.388 89.464 7.9C89.976 7.412 90.636 7.168 91.444 7.168C92.268 7.168 92.92 7.396 93.4 7.852C93.888 8.308 94.132 8.936 94.132 9.736C94.132 10.4 93.932 11.048 93.532 11.68C93.14 12.304 92.692 12.856 92.188 13.336C91.684 13.808 91.04 14.36 90.256 14.992H94.384V15.904H88.612V15.124ZM95.6463 11.572C95.6463 10.196 95.8703 9.124 96.3183 8.356C96.7663 7.58 97.5503 7.192 98.6703 7.192C99.7823 7.192 100.562 7.58 101.01 8.356C101.458 9.124 101.682 10.196 101.682 11.572C101.682 12.972 101.458 14.06 101.01 14.836C100.562 15.612 99.7823 16 98.6703 16C97.5503 16 96.7663 15.612 96.3183 14.836C95.8703 14.06 95.6463 12.972 95.6463 11.572ZM100.602 11.572C100.602 10.876 100.554 10.288 100.458 9.808C100.37 9.32 100.182 8.928 99.8943 8.632C99.6143 8.336 99.2063 8.188 98.6703 8.188C98.1263 8.188 97.7103 8.336 97.4223 8.632C97.1423 8.928 96.9543 9.32 96.8583 9.808C96.7703 10.288 96.7263 10.876 96.7263 11.572C96.7263 12.292 96.7703 12.896 96.8583 13.384C96.9543 13.872 97.1423 14.264 97.4223 14.56C97.7103 14.856 98.1263 15.004 98.6703 15.004C99.2063 15.004 99.6143 14.856 99.8943 14.56C100.182 14.264 100.37 13.872 100.458 13.384C100.554 12.896 100.602 12.292 100.602 11.572ZM106.266 7.024H111.054V7.804H106.266V7.024ZM110.802 7.024H110.982L111.15 6.976L111.75 7.336C111.382 8.032 110.902 8.648 110.31 9.184C109.718 9.72 109.054 10.188 108.318 10.588C107.59 10.98 106.818 11.312 106.002 11.584C105.194 11.848 104.378 12.06 103.554 12.22C103.522 12.1 103.462 11.96 103.374 11.8C103.294 11.64 103.214 11.508 103.134 11.404C103.91 11.284 104.682 11.104 105.45 10.864C106.226 10.624 106.962 10.328 107.658 9.976C108.354 9.624 108.974 9.216 109.518 8.752C110.062 8.28 110.49 7.752 110.802 7.168V7.024ZM106.974 5.896L107.958 6.088C107.55 6.752 107.018 7.404 106.362 8.044C105.714 8.676 104.918 9.248 103.974 9.76C103.918 9.68 103.854 9.6 103.782 9.52C103.71 9.44 103.634 9.36 103.554 9.28C103.474 9.2 103.398 9.14 103.326 9.1C103.918 8.812 104.45 8.488 104.922 8.128C105.394 7.768 105.802 7.396 106.146 7.012C106.49 6.628 106.766 6.256 106.974 5.896ZM106.314 7.516C106.762 8.196 107.366 8.784 108.126 9.28C108.886 9.776 109.758 10.188 110.742 10.516C111.726 10.836 112.782 11.068 113.91 11.212C113.854 11.276 113.79 11.356 113.718 11.452C113.646 11.548 113.578 11.648 113.514 11.752C113.458 11.848 113.41 11.936 113.37 12.016C112.234 11.848 111.166 11.584 110.166 11.224C109.174 10.864 108.282 10.404 107.49 9.844C106.706 9.284 106.058 8.624 105.546 7.864L106.314 7.516ZM103.122 12.592H113.778V13.396H103.122V12.592ZM107.958 11.296H108.87V16.96H107.958V11.296ZM107.55 12.952L108.27 13.264C107.91 13.76 107.466 14.232 106.938 14.68C106.418 15.128 105.858 15.528 105.258 15.88C104.658 16.232 104.066 16.52 103.482 16.744C103.442 16.672 103.386 16.588 103.314 16.492C103.242 16.404 103.17 16.316 103.098 16.228C103.026 16.14 102.954 16.064 102.882 16C103.466 15.816 104.054 15.568 104.646 15.256C105.238 14.944 105.786 14.592 106.29 14.2C106.802 13.8 107.222 13.384 107.55 12.952ZM109.278 12.928C109.606 13.368 110.022 13.784 110.526 14.176C111.038 14.568 111.594 14.916 112.194 15.22C112.794 15.516 113.394 15.756 113.994 15.94C113.93 15.996 113.858 16.068 113.778 16.156C113.698 16.252 113.626 16.348 113.562 16.444C113.498 16.54 113.438 16.624 113.382 16.696C112.782 16.488 112.178 16.208 111.57 15.856C110.97 15.504 110.406 15.108 109.878 14.668C109.358 14.22 108.914 13.752 108.546 13.264L109.278 12.928Z" fill="#D1D5DB"/>
<path d="M124.629 7V7.79688L124.453 9.88867H123.803V7.84961V7H124.629ZM126.211 7V7.79688L126.035 9.88867H125.385V7.80859V7H126.211ZM128.68 8.2H129.568V10.888C129.568 11.32 129.548 11.792 129.508 12.304C129.468 12.808 129.392 13.324 129.28 13.852C129.168 14.38 129.004 14.892 128.788 15.388C128.58 15.884 128.304 16.336 127.96 16.744C127.912 16.688 127.84 16.628 127.744 16.564C127.648 16.5 127.552 16.436 127.456 16.372C127.36 16.308 127.272 16.264 127.192 16.24C127.528 15.848 127.792 15.428 127.984 14.98C128.184 14.524 128.332 14.06 128.428 13.588C128.532 13.108 128.6 12.636 128.632 12.172C128.664 11.708 128.68 11.276 128.68 10.876V8.2ZM129.136 8.2H137.2V10.78H129.136V10.084H136.312V8.896H129.136V8.2ZM127.816 6.568H137.896V7.384H127.816V6.568ZM129.076 11.836H138.208V12.568H129.076V11.836ZM132.292 13.528H136.372V14.248H132.292V13.528ZM132.832 10.684H133.72V12.196H132.832V10.684ZM136.144 13.528H137.032C137.032 13.528 137.028 13.576 137.02 13.672C137.02 13.76 137.016 13.832 137.008 13.888C136.952 14.48 136.896 14.968 136.84 15.352C136.784 15.728 136.716 16.024 136.636 16.24C136.564 16.456 136.476 16.616 136.372 16.72C136.268 16.824 136.152 16.896 136.024 16.936C135.896 16.976 135.744 17 135.568 17.008C135.408 17.016 135.18 17.02 134.884 17.02C134.588 17.02 134.272 17.008 133.936 16.984C133.928 16.864 133.904 16.732 133.864 16.588C133.824 16.452 133.768 16.328 133.696 16.216C134.024 16.248 134.328 16.268 134.608 16.276C134.888 16.284 135.084 16.288 135.196 16.288C135.3 16.288 135.388 16.28 135.46 16.264C135.532 16.256 135.592 16.228 135.64 16.18C135.712 16.108 135.776 15.984 135.832 15.808C135.888 15.624 135.94 15.36 135.988 15.016C136.044 14.664 136.096 14.208 136.144 13.648V13.528ZM132.1 12.196H133C132.944 12.772 132.848 13.308 132.712 13.804C132.584 14.3 132.388 14.752 132.124 15.16C131.86 15.56 131.504 15.912 131.056 16.216C130.608 16.52 130.036 16.776 129.34 16.984C129.316 16.92 129.276 16.844 129.22 16.756C129.164 16.668 129.1 16.58 129.028 16.492C128.964 16.412 128.9 16.348 128.836 16.3C129.476 16.124 129.996 15.904 130.396 15.64C130.804 15.376 131.12 15.072 131.344 14.728C131.576 14.376 131.748 13.992 131.86 13.576C131.972 13.152 132.052 12.692 132.1 12.196ZM140.968 12.088V11.356L141.568 11.044H149.332V11.92H142.276C142.036 11.92 141.824 11.928 141.64 11.944C141.464 11.952 141.32 11.968 141.208 11.992C141.096 12.016 141.016 12.048 140.968 12.088ZM144.928 9.28H145.84V15.724C145.84 15.988 145.804 16.192 145.732 16.336C145.668 16.488 145.54 16.604 145.348 16.684C145.164 16.756 144.916 16.804 144.604 16.828C144.3 16.852 143.936 16.864 143.512 16.864C143.496 16.768 143.468 16.664 143.428 16.552C143.388 16.44 143.344 16.328 143.296 16.216C143.256 16.112 143.212 16.016 143.164 15.928C143.508 15.936 143.824 15.94 144.112 15.94C144.4 15.94 144.596 15.936 144.7 15.928C144.788 15.928 144.848 15.912 144.88 15.88C144.912 15.848 144.928 15.792 144.928 15.712V9.28ZM141.928 12.868L142.828 13.108C142.636 13.532 142.412 13.948 142.156 14.356C141.9 14.764 141.624 15.148 141.328 15.508C141.04 15.868 140.752 16.184 140.464 16.456C140.408 16.408 140.332 16.344 140.236 16.264C140.148 16.192 140.056 16.12 139.96 16.048C139.864 15.976 139.776 15.92 139.696 15.88C140.144 15.504 140.568 15.048 140.968 14.512C141.368 13.976 141.688 13.428 141.928 12.868ZM146.836 13.228L147.58 12.856C147.892 13.152 148.212 13.484 148.54 13.852C148.868 14.212 149.172 14.568 149.452 14.92C149.732 15.272 149.956 15.588 150.124 15.868L149.32 16.312C149.16 16.032 148.944 15.712 148.672 15.352C148.4 14.992 148.104 14.628 147.784 14.26C147.464 13.884 147.148 13.54 146.836 13.228ZM139.768 7.516H149.848V8.368H139.768V7.516ZM140.968 12.088C140.952 12.024 140.924 11.936 140.884 11.824C140.852 11.704 140.812 11.584 140.764 11.464C140.724 11.344 140.684 11.244 140.644 11.164C140.78 11.124 140.92 11.024 141.064 10.864C141.208 10.696 141.368 10.48 141.544 10.216C141.64 10.088 141.78 9.88 141.964 9.592C142.148 9.296 142.352 8.948 142.576 8.548C142.808 8.148 143.036 7.716 143.26 7.252C143.492 6.788 143.7 6.32 143.884 5.848L144.844 6.244C144.548 6.892 144.228 7.536 143.884 8.176C143.54 8.808 143.18 9.412 142.804 9.988C142.436 10.556 142.068 11.072 141.7 11.536V11.56C141.7 11.56 141.664 11.58 141.592 11.62C141.52 11.652 141.436 11.696 141.34 11.752C141.244 11.808 141.156 11.868 141.076 11.932C141.004 11.988 140.968 12.04 140.968 12.088ZM156.22 6.292H157.228C157.212 6.604 157.184 7.016 157.144 7.528C157.104 8.04 157.028 8.62 156.916 9.268C156.812 9.908 156.648 10.576 156.424 11.272C156.2 11.968 155.9 12.656 155.524 13.336C155.148 14.016 154.668 14.66 154.084 15.268C153.508 15.876 152.804 16.404 151.972 16.852C151.9 16.74 151.796 16.62 151.66 16.492C151.524 16.364 151.384 16.252 151.24 16.156C152.064 15.732 152.756 15.236 153.316 14.668C153.876 14.1 154.336 13.492 154.696 12.844C155.056 12.196 155.336 11.544 155.536 10.888C155.736 10.224 155.884 9.592 155.98 8.992C156.076 8.392 156.136 7.86 156.16 7.396C156.192 6.924 156.212 6.556 156.22 6.292ZM157.18 6.532C157.188 6.668 157.204 6.904 157.228 7.24C157.26 7.568 157.316 7.968 157.396 8.44C157.476 8.912 157.592 9.424 157.744 9.976C157.896 10.528 158.1 11.096 158.356 11.68C158.612 12.264 158.928 12.832 159.304 13.384C159.68 13.936 160.132 14.448 160.66 14.92C161.188 15.384 161.808 15.776 162.52 16.096C162.384 16.2 162.252 16.32 162.124 16.456C162.004 16.6 161.904 16.732 161.824 16.852C161.104 16.508 160.468 16.088 159.916 15.592C159.372 15.088 158.904 14.544 158.512 13.96C158.128 13.368 157.804 12.764 157.54 12.148C157.284 11.532 157.076 10.932 156.916 10.348C156.756 9.756 156.636 9.208 156.556 8.704C156.476 8.192 156.42 7.756 156.388 7.396C156.356 7.028 156.336 6.764 156.328 6.604L157.18 6.532ZM167.824 6.484H168.736V15.976L167.824 16.18V6.484ZM168.244 6.484H173.632V11.836H168.244V11.032H172.732V7.288H168.244V6.484ZM168.244 8.776H173.116V9.556H168.244V8.776ZM166.66 15.904C167.044 15.848 167.492 15.78 168.004 15.7C168.516 15.612 169.06 15.52 169.636 15.424C170.212 15.328 170.788 15.232 171.364 15.136L171.424 15.94C170.896 16.036 170.36 16.132 169.816 16.228C169.28 16.332 168.764 16.424 168.268 16.504C167.78 16.592 167.328 16.676 166.912 16.756L166.66 15.904ZM170.848 11.488C171.032 12.216 171.288 12.892 171.616 13.516C171.952 14.132 172.36 14.672 172.84 15.136C173.32 15.592 173.876 15.944 174.508 16.192C174.436 16.248 174.36 16.32 174.28 16.408C174.208 16.504 174.136 16.6 174.064 16.696C174 16.792 173.944 16.884 173.896 16.972C173.232 16.668 172.652 16.26 172.156 15.748C171.66 15.228 171.24 14.62 170.896 13.924C170.552 13.228 170.276 12.468 170.068 11.644L170.848 11.488ZM173.56 12.244L174.208 12.76C173.976 12.968 173.724 13.176 173.452 13.384C173.18 13.592 172.904 13.792 172.624 13.984C172.352 14.176 172.096 14.344 171.856 14.488L171.28 13.972C171.512 13.828 171.768 13.66 172.048 13.468C172.336 13.268 172.612 13.06 172.876 12.844C173.14 12.628 173.368 12.428 173.56 12.244ZM166.336 8.296L167.152 8.608C166.856 9.104 166.516 9.592 166.132 10.072C165.748 10.552 165.34 11.004 164.908 11.428C164.484 11.844 164.06 12.212 163.636 12.532C163.612 12.468 163.568 12.384 163.504 12.28C163.44 12.176 163.372 12.072 163.3 11.968C163.236 11.864 163.176 11.78 163.12 11.716C163.52 11.436 163.916 11.116 164.308 10.756C164.708 10.388 165.08 9.996 165.424 9.58C165.776 9.156 166.08 8.728 166.336 8.296ZM165.94 5.932L166.792 6.268C166.552 6.628 166.264 6.988 165.928 7.348C165.6 7.708 165.248 8.052 164.872 8.38C164.496 8.7 164.124 8.98 163.756 9.22C163.724 9.156 163.68 9.08 163.624 8.992C163.568 8.896 163.508 8.804 163.444 8.716C163.38 8.62 163.324 8.544 163.276 8.488C163.612 8.272 163.948 8.02 164.284 7.732C164.628 7.444 164.944 7.144 165.232 6.832C165.52 6.52 165.756 6.22 165.94 5.932ZM165.076 10.708L165.916 9.868L165.952 9.892V16.948H165.076V10.708ZM175.396 10.816C175.756 10.728 176.168 10.624 176.632 10.504C177.104 10.376 177.6 10.244 178.12 10.108C178.648 9.964 179.176 9.82 179.704 9.676L179.812 10.492C179.068 10.7 178.324 10.908 177.58 11.116C176.844 11.324 176.188 11.512 175.612 11.68L175.396 10.816ZM175.636 7.6H179.68V8.44H175.636V7.6ZM177.436 5.932H178.276V12.988C178.276 13.22 178.244 13.4 178.18 13.528C178.124 13.656 178.016 13.756 177.856 13.828C177.712 13.892 177.512 13.936 177.256 13.96C177 13.976 176.676 13.984 176.284 13.984C176.268 13.864 176.232 13.728 176.176 13.576C176.128 13.424 176.076 13.292 176.02 13.18C176.3 13.188 176.552 13.192 176.776 13.192C177 13.184 177.148 13.18 177.22 13.18C177.3 13.18 177.356 13.168 177.388 13.144C177.42 13.112 177.436 13.06 177.436 12.988V5.932ZM179.98 7.648H184.588V8.428H179.98V7.648ZM179.896 10.552L180.34 9.928C180.724 10.144 181.128 10.384 181.552 10.648C181.976 10.912 182.38 11.176 182.764 11.44C183.156 11.696 183.476 11.924 183.724 12.124L183.256 12.832C183.016 12.624 182.704 12.388 182.32 12.124C181.944 11.852 181.54 11.58 181.108 11.308C180.684 11.028 180.28 10.776 179.896 10.552ZM184.06 7.648H184.912C184.88 8.904 184.864 9.948 184.864 10.78C184.872 11.612 184.92 12.236 185.008 12.652C185.096 13.068 185.248 13.276 185.464 13.276C185.568 13.276 185.644 13.18 185.692 12.988C185.748 12.796 185.784 12.452 185.8 11.956C185.896 12.02 186.012 12.088 186.148 12.16C186.284 12.224 186.404 12.272 186.508 12.304C186.476 12.76 186.42 13.12 186.34 13.384C186.26 13.64 186.144 13.82 185.992 13.924C185.848 14.02 185.66 14.068 185.428 14.068C185.044 14.068 184.752 13.924 184.552 13.636C184.36 13.348 184.228 12.928 184.156 12.376C184.084 11.816 184.048 11.14 184.048 10.348C184.048 9.548 184.052 8.648 184.06 7.648ZM181.636 5.908H182.5C182.492 6.996 182.46 7.968 182.404 8.824C182.348 9.672 182.236 10.424 182.068 11.08C181.9 11.728 181.64 12.296 181.288 12.784C180.936 13.264 180.452 13.676 179.836 14.02C179.78 13.924 179.692 13.812 179.572 13.684C179.46 13.548 179.356 13.444 179.26 13.372C179.828 13.068 180.272 12.7 180.592 12.268C180.912 11.828 181.144 11.312 181.288 10.72C181.44 10.12 181.532 9.424 181.564 8.632C181.604 7.832 181.628 6.924 181.636 5.908ZM178.96 14.668L179.788 14.584C179.868 14.936 179.936 15.32 179.992 15.736C180.048 16.144 180.08 16.484 180.088 16.756L179.2 16.888C179.2 16.696 179.188 16.472 179.164 16.216C179.148 15.968 179.124 15.708 179.092 15.436C179.06 15.164 179.016 14.908 178.96 14.668ZM181.432 14.644L182.272 14.488C182.384 14.72 182.492 14.972 182.596 15.244C182.7 15.508 182.792 15.764 182.872 16.012C182.952 16.26 183.012 16.48 183.052 16.672L182.164 16.864C182.108 16.576 182.012 16.224 181.876 15.808C181.74 15.392 181.592 15.004 181.432 14.644ZM183.916 14.584L184.708 14.248C184.916 14.488 185.124 14.752 185.332 15.04C185.54 15.32 185.732 15.6 185.908 15.88C186.084 16.16 186.228 16.404 186.34 16.612L185.488 17.008C185.392 16.792 185.256 16.544 185.08 16.264C184.912 15.984 184.724 15.696 184.516 15.4C184.316 15.104 184.116 14.832 183.916 14.584ZM176.932 14.32L177.772 14.548C177.636 14.828 177.48 15.116 177.304 15.412C177.128 15.708 176.944 15.992 176.752 16.264C176.568 16.536 176.384 16.776 176.2 16.984L175.36 16.636C175.544 16.444 175.732 16.224 175.924 15.976C176.116 15.72 176.3 15.448 176.476 15.16C176.652 14.872 176.804 14.592 176.932 14.32ZM191.968 12.796H196.756V13.48H191.968V12.796ZM190.852 6.856H197.98V7.552H190.852V6.856ZM191.14 8.32H197.68V8.98H191.14V8.32ZM190.492 9.808H198.34V10.504H190.492V9.808ZM191.98 14.392H196.792V15.076H191.98V14.392ZM191.356 11.2H196.744V11.896H192.196V16.948H191.356V11.2ZM196.54 11.2H197.392V15.952C197.392 16.176 197.36 16.352 197.296 16.48C197.24 16.608 197.128 16.704 196.96 16.768C196.792 16.84 196.568 16.88 196.288 16.888C196.008 16.904 195.656 16.912 195.232 16.912C195.216 16.8 195.18 16.668 195.124 16.516C195.076 16.372 195.024 16.244 194.968 16.132C195.272 16.14 195.552 16.144 195.808 16.144C196.072 16.152 196.244 16.152 196.324 16.144C196.468 16.136 196.54 16.068 196.54 15.94V11.2ZM193.924 5.92H194.812V10.024H193.924V5.92ZM188.668 5.92H189.484V16.948H188.668V5.92ZM187.72 8.236L188.392 8.32C188.376 8.632 188.344 8.984 188.296 9.376C188.256 9.76 188.2 10.144 188.128 10.528C188.056 10.912 187.972 11.256 187.876 11.56L187.168 11.32C187.264 11.048 187.348 10.732 187.42 10.372C187.492 10.012 187.552 9.644 187.6 9.268C187.656 8.892 187.696 8.548 187.72 8.236ZM189.592 7.912L190.192 7.672C190.328 7.944 190.46 8.244 190.588 8.572C190.716 8.892 190.808 9.16 190.864 9.376L190.228 9.688C190.172 9.456 190.084 9.172 189.964 8.836C189.844 8.5 189.72 8.192 189.592 7.912ZM200.473 7V7.79688L200.297 9.88867H199.646V7.84961V7H200.473ZM202.055 7V7.79688L201.879 9.88867H201.229V7.80859V7H202.055Z" fill="white"/>
</svg>
