<svg width="18" height="16" viewBox="0 0 18 16" fill="none" xmlns="http://www.w3.org/2000/svg">
<g clip-path="url(#clip0_105_1597)">
<path d="M10.3536 10.3536C10.1584 10.5489 9.84179 10.5489 9.64653 10.3536L8.00008 8.70719L6.35363 10.3536C6.15837 10.5489 5.84178 10.5489 5.64652 10.3536C5.45126 10.1584 5.45126 9.84179 5.64652 9.64653L7.29297 8.00008L5.64653 6.35364C5.45127 6.15838 5.45127 5.8418 5.64653 5.64653C5.84179 5.45127 6.15837 5.45127 6.35363 5.64653L8.00007 7.29297L9.64652 5.64653C9.84178 5.45127 10.1584 5.45127 10.3536 5.64653C10.5489 5.84179 10.5489 6.15837 10.3536 6.35363L8.70718 8.00008L10.3536 9.64653C10.5489 9.8418 10.5489 10.1584 10.3536 10.3536Z" fill="#C28C78"/>
<path fill-rule="evenodd" clip-rule="evenodd" d="M0.166748 8.00008C0.166748 3.67385 3.67385 0.166748 8.00008 0.166748C12.3263 0.166748 15.8334 3.67385 15.8334 8.00008C15.8334 12.3263 12.3263 15.8334 8.00008 15.8334C3.67385 15.8334 0.166748 12.3263 0.166748 8.00008ZM8.00008 1.16675C4.22614 1.16675 1.16675 4.22614 1.16675 8.00008C1.16675 11.774 4.22614 14.8334 8.00008 14.8334C11.774 14.8334 14.8334 11.774 14.8334 8.00008C14.8334 4.22614 11.774 1.16675 8.00008 1.16675Z" fill="#C28C78"/>
</g>
<defs>
<clipPath id="clip0_105_1597">
<rect width="16" height="16" fill="white"/>
</clipPath>
</defs>
</svg>
