<svg width="18" height="16" viewBox="0 0 18 16" fill="none" xmlns="http://www.w3.org/2000/svg">
<g clip-path="url(#clip0_105_1637)">
<path d="M11.3536 6.35363C11.5489 6.15837 11.5489 5.84179 11.3536 5.64653C11.1584 5.45127 10.8418 5.45127 10.6465 5.64653L7.00008 9.29297L5.35363 7.64653C5.15837 7.45127 4.84179 7.45127 4.64653 7.64653C4.45127 7.84179 4.45127 8.15837 4.64653 8.35363L6.64653 10.3536C6.84179 10.5489 7.15837 10.5489 7.35363 10.3536L11.3536 6.35363Z" fill="#77A590"/>
<path fill-rule="evenodd" clip-rule="evenodd" d="M8.00008 0.166748C3.67385 0.166748 0.166748 3.67385 0.166748 8.00008C0.166748 12.3263 3.67385 15.8334 8.00008 15.8334C12.3263 15.8334 15.8334 12.3263 15.8334 8.00008C15.8334 3.67385 12.3263 0.166748 8.00008 0.166748ZM1.16675 8.00008C1.16675 4.22614 4.22614 1.16675 8.00008 1.16675C11.774 1.16675 14.8334 4.22614 14.8334 8.00008C14.8334 11.774 11.774 14.8334 8.00008 14.8334C4.22614 14.8334 1.16675 11.774 1.16675 8.00008Z" fill="#77A590"/>
</g>
<defs>
<clipPath id="clip0_105_1637">
<rect width="16" height="16" fill="white"/>
</clipPath>
</defs>
</svg>
