<svg width="16" height="16" viewBox="0 0 16 16" fill="none" xmlns="http://www.w3.org/2000/svg">
<path d="M1.72003 12.6733L1.7067 12.6866C1.5267 12.2933 1.41337 11.8466 1.3667 11.3533C1.41337 11.8399 1.54003 12.2799 1.72003 12.6733Z" fill="white"/>
<path d="M6.00024 6.91992C6.87653 6.91992 7.58691 6.20954 7.58691 5.33325C7.58691 4.45696 6.87653 3.74658 6.00024 3.74658C5.12395 3.74658 4.41357 4.45696 4.41357 5.33325C4.41357 6.20954 5.12395 6.91992 6.00024 6.91992Z" fill="white"/>
<path d="M10.7935 1.33325H5.20683C2.78016 1.33325 1.3335 2.77992 1.3335 5.20658V10.7933C1.3335 11.5199 1.46016 12.1533 1.70683 12.6866C2.28016 13.9533 3.50683 14.6666 5.20683 14.6666H10.7935C13.2202 14.6666 14.6668 13.2199 14.6668 10.7933V9.26658V5.20658C14.6668 2.77992 13.2202 1.33325 10.7935 1.33325ZM13.5802 8.33325C13.0602 7.88658 12.2202 7.88658 11.7002 8.33325L8.92683 10.7133C8.40683 11.1599 7.56683 11.1599 7.04683 10.7133L6.82016 10.5266C6.34683 10.1133 5.5935 10.0733 5.06016 10.4333L2.56683 12.1066C2.42016 11.7333 2.3335 11.2999 2.3335 10.7933V5.20658C2.3335 3.32659 3.32683 2.33325 5.20683 2.33325H10.7935C12.6735 2.33325 13.6668 3.32659 13.6668 5.20658V8.40658L13.5802 8.33325Z" fill="white"/>
</svg>
