<svg width="20" height="16" viewBox="0 0 20 16" fill="none" xmlns="http://www.w3.org/2000/svg">
<path fill-rule="evenodd" clip-rule="evenodd" d="M2.1665 6.66658C2.1665 3.44494 4.77818 0.833252 7.99982 0.833252C11.2215 0.833252 13.8331 3.44496 13.8331 6.66658C13.8331 9.47178 11.9919 11.5136 10.8081 12.8264L10.7048 12.9411C10.25 13.4464 9.19836 14.4213 8.67119 14.9045C8.29085 15.2531 7.7088 15.2531 7.32845 14.9045C6.80127 14.4213 5.74961 13.4464 5.29482 12.9411L5.18695 12.8214C3.95064 11.4502 2.1665 9.47144 2.1665 6.66658ZM7.99984 8.33325C8.92031 8.33325 9.6665 7.58706 9.6665 6.66658C9.6665 5.74611 8.92031 4.99992 7.99984 4.99992C7.07936 4.99992 6.33317 5.74611 6.33317 6.66658C6.33317 7.58706 7.07936 8.33325 7.99984 8.33325Z" fill="#111827"/>
</svg>
