<svg width="16" height="16" viewBox="0 0 16 16" fill="none" xmlns="http://www.w3.org/2000/svg">
<path d="M14.5455 6.77605L15.3259 7.55654C15.6452 7.91131 15.6452 8.44346 15.3259 8.76275L8.44346 15.6452C8.08869 16 7.55654 16 7.23725 15.6452L0.31929 8.76275C0 8.44346 0 7.87583 0.31929 7.55654L1.09978 6.77605C1.45455 6.42129 1.9867 6.45676 2.34146 6.77605L6.42129 11.0687V0.851441C6.42129 0.390244 6.77605 0 7.27273 0H8.40798C8.86918 0 9.25942 0.390244 9.25942 0.851441V11.0687L13.3038 6.77605C13.6585 6.45676 14.1907 6.42129 14.5455 6.77605Z" fill="#FED7AA"/>
</svg>
