<svg xmlns="http://www.w3.org/2000/svg" width="24" height="24" fill="none" viewBox="0 0 24 24"><path fill="#9ca3af" d="M18.03 7.72a.75.75 0 0 1 0 1.06l-4.5 4.5a.75.75 0 0 1-1.06 0l-2.5-2.5a.75.75 0 1 1 1.06-1.06L13 11.69l3.97-3.97a.75.75 0 0 1 1.06 0"/><path fill="#9ca3af" fill-rule="evenodd" d="M20.976 4.354a3.22 3.22 0 0 1 1.419 1.419c.354.696.355 1.458.355 2.976v4.25c0 1.519 0 2.281-.354 2.976a3.23 3.23 0 0 1-1.42 1.42c-.695.354-1.457.354-2.976.354h-8c-1.518 0-2.28 0-2.975-.354a3.23 3.23 0 0 1-1.42-1.42c-.354-.695-.354-1.457-.354-2.976v-6c0-1.518 0-2.28.354-2.975a3.24 3.24 0 0 1 1.421-1.42c.695-.354 1.456-.354 2.975-.354h1.264c.315 0 .505 0 .726.06.191.05.375.134.542.249.187.128.316.279.508.504l.008.009.542.631.022.026c.087.1.178.206.206.227.114.043.268.043.417.043H18c1.518 0 2.281 0 2.976.355m.083 10.939c.19-.374.19-1.056.19-2.294V8.747c0-1.238 0-1.919-.191-2.294a1.74 1.74 0 0 0-.764-.764c-.375-.191-1.057-.191-2.295-.191h-3.764c-.314 0-.504 0-.724-.058a1.8 1.8 0 0 1-.546-.251c-.185-.127-.315-.278-.507-.503l-.008-.009-.542-.631-.022-.026c-.087-.1-.177-.206-.206-.227-.117-.044-.27-.044-.417-.044H9.999c-1.238 0-1.92 0-2.294.191a1.76 1.76 0 0 0-.766.765c-.19.374-.19 1.056-.19 2.294v6c0 1.238 0 1.92.191 2.295.167.326.438.598.765.764.374.191 1.056.191 2.294.191h8c1.238 0 1.92 0 2.295-.191a1.74 1.74 0 0 0 .765-.765" clip-rule="evenodd"/><path fill="#9ca3af" d="M18.099 20.448a.75.75 0 0 0-.151-1.05h.002a.75.75 0 0 0-1.05.151 1.7 1.7 0 0 1-.604.508c-.375.191-1.057.191-2.295.191h-8c-1.238 0-1.919 0-2.294-.191a1.76 1.76 0 0 1-.765-.764c-.191-.375-.191-1.057-.191-2.295v-6c0-1.238 0-1.92.19-2.294.121-.236.298-.446.51-.606a.75.75 0 1 0-.901-1.199 3.3 3.3 0 0 0-.946 1.125c-.354.695-.354 1.457-.354 2.975v6c0 1.518 0 2.281.354 2.976a3.23 3.23 0 0 0 1.42 1.42c.695.354 1.457.354 2.975.354h8c1.518 0 2.281 0 2.975-.354.44-.224.829-.551 1.125-.947"/></svg>