<svg xmlns="http://www.w3.org/2000/svg" width="24" height="24" fill="none" viewBox="0 0 24 24"><path fill="#9ca3af" d="M10 8a1 1 0 1 0 0 2 1 1 0 0 0 0-2M5.5 9a1 1 0 1 1 2 0 1 1 0 0 1-2 0m8-1a1 1 0 1 0 0 2 1 1 0 0 0 0-2"/><path fill="#9ca3af" fill-rule="evenodd" d="M1.25 4.8A3.55 3.55 0 0 1 4.8 1.25h10.4a3.55 3.55 0 0 1 3.55 3.55v7.998a3.55 3.55 0 0 1-3.55 3.55H6.015a.45.45 0 0 0-.278.096l-2.627 2.06a1.15 1.15 0 0 1-1.86-.905zM4.8 2.75A2.05 2.05 0 0 0 2.75 4.8v12.08l2.061-1.616a1.95 1.95 0 0 1 1.204-.416H15.2a2.05 2.05 0 0 0 2.05-2.05V4.8a2.05 2.05 0 0 0-2.05-2.05z" clip-rule="evenodd"/><path fill="#9ca3af" d="M20.411 7.099a.75.75 0 0 1 1.054-.124 3.37 3.37 0 0 1 1.285 2.65v12a1.125 1.125 0 0 1-1.82.885l-2.462-1.932a.38.38 0 0 0-.232-.08H9.625a3.37 3.37 0 0 1-2.874-1.604.75.75 0 1 1 1.277-.788c.331.537.923.892 1.597.892h8.611c.42 0 .827.14 1.158.4l1.856 1.456V9.624a1.87 1.87 0 0 0-.715-1.472.75.75 0 0 1-.124-1.053"/></svg>