<svg xmlns="http://www.w3.org/2000/svg" width="24" height="24" fill="none" viewBox="0 0 24 24"><path fill="#9ca3af" d="M14.25 9a.75.75 0 0 1 .75-.75h4a.75.75 0 0 1 0 1.5h-4a.75.75 0 0 1-.75-.75m.75 2.25a.75.75 0 0 0 0 1.5h2.5a.75.75 0 0 0 0-1.5z"/><path fill="#9ca3af" fill-rule="evenodd" d="m11.527 21.082-1.207-.965a3.96 3.96 0 0 0-2.47-.867h-.47a7.1 7.1 0 0 0-3.946 1.195 1.405 1.405 0 0 1-2.185-1.17V6.153c0-.658.33-1.273.877-1.638l.297-.198A9.3 9.3 0 0 1 7.596 2.75c1.701 0 3.313.753 4.404 2.052a5.75 5.75 0 0 1 4.404-2.052c1.84 0 3.64.545 5.172 1.566l.297.198c.548.365.877.98.877 1.638v13.124a1.405 1.405 0 0 1-2.185 1.169 7.1 7.1 0 0 0-3.946-1.195h-.468c-.899 0-1.77.306-2.471.867l-1.207.965a.7.7 0 0 1-.148.094zM3.255 5.564a7.8 7.8 0 0 1 4.34-1.314 4.25 4.25 0 0 1 3.32 1.596l.334.417V18.94a5.46 5.46 0 0 0-3.4-1.189H7.38c-1.642 0-3.249.47-4.631 1.35V6.153a.47.47 0 0 1 .209-.39zM12.75 18.94a5.46 5.46 0 0 1 3.4-1.189h.469c1.642 0 3.249.47 4.631 1.35V6.153a.47.47 0 0 0-.209-.39l-.297-.198a7.8 7.8 0 0 0-4.34-1.314 4.25 4.25 0 0 0-3.32 1.596l-.334.417z" clip-rule="evenodd"/><path fill="#9ca3af" d="M12.263 21.202"/></svg>