<svg xmlns="http://www.w3.org/2000/svg" width="24" height="24" fill="none" viewBox="0 0 24 24"><path fill="#9ca3af" d="M17 14.25a1 1 0 1 1 2 0 1 1 0 0 1-2 0m-11 2a.75.75 0 0 0 0 1.5h4a.75.75 0 0 0 0-1.5z"/><path fill="#9ca3af" fill-rule="evenodd" d="M1.25 10.828c0-1.283 0-2.134.29-2.879a4.25 4.25 0 0 1 1.205-1.696c.61-.518 1.413-.797 2.625-1.217l9.199-3.195c.598-.207 1.095-.38 1.504-.482.42-.104.84-.161 1.265-.059a2.5 2.5 0 0 1 1.515 1.078c.236.367.32.784.36 1.214.037.42.037.946.037 1.58v.684c.428.064.816.172 1.18.357a4.25 4.25 0 0 1 1.857 1.858c.253.497.361 1.04.413 1.67.05.613.05 1.374.05 2.326v4.366c0 .952 0 1.713-.05 2.327-.052.63-.16 1.172-.413 1.67a4.25 4.25 0 0 1-1.857 1.857c-.498.253-1.04.361-1.67.413-.614.05-1.375.05-2.327.05H7.567c-.952 0-1.713 0-2.327-.05-.63-.052-1.172-.16-1.67-.413a4.25 4.25 0 0 1-1.857-1.857c-.253-.498-.361-1.04-.413-1.67-.05-.614-.05-1.375-.05-2.327zM15.028 3.27c.64-.222 1.072-.372 1.408-.455.331-.083.473-.075.55-.057a1 1 0 0 1 .605.431c.042.066.097.197.127.538.031.344.032.802.032 1.48v.55q-.588-.009-1.317-.007H7.886zM2.75 13.004v-1.048c0-.917.003-1.575.045-2.094.044-.537.127-.86.255-1.11A2.75 2.75 0 0 1 4.252 7.55c.25-.128.573-.21 1.11-.255.546-.044 1.246-.045 2.238-.045h8.8c.992 0 1.692 0 2.238.045.537.044.86.127 1.11.255a2.75 2.75 0 0 1 1.202 1.202c.128.25.211.573.255 1.11.045.546.045 1.245.045 2.238v4.3c0 .992 0 1.692-.045 2.238-.044.537-.127.86-.255 1.11a2.75 2.75 0 0 1-1.201 1.202c-.252.128-.574.21-1.111.255-.546.044-1.246.045-2.238.045H7.6c-.992 0-1.692 0-2.238-.045-.537-.044-.86-.127-1.11-.255a2.75 2.75 0 0 1-1.202-1.2c-.128-.252-.21-.574-.255-1.111-.044-.546-.045-1.246-.045-2.238z" clip-rule="evenodd"/></svg>