<svg xmlns="http://www.w3.org/2000/svg" width="24" height="24" fill="none" viewBox="0 0 24 24"><path fill="#9ca3af" d="M12 14.35c-1.168 0-2.208.807-2.474 1.837a.75.75 0 1 1-1.452-.374c.445-1.73 2.112-2.963 3.926-2.963s3.481 1.233 3.926 2.963a.75.75 0 1 1-1.452.374c-.265-1.03-1.306-1.837-2.474-1.837"/><path fill="#9ca3af" fill-rule="evenodd" d="M12 7.25a2.55 2.55 0 1 0 0 5.1 2.55 2.55 0 0 0 0-5.1M10.95 9.8a1.05 1.05 0 1 1 2.1 0 1.05 1.05 0 0 1-2.1 0" clip-rule="evenodd"/><path fill="#9ca3af" fill-rule="evenodd" d="M10.078 1.213a4.25 4.25 0 0 1 3.841 0l7.098 3.594a2.25 2.25 0 0 1 1.233 2.008v2.024c0 .502-.101 1.488-.216 2.459-.267 2.266-1.142 4.404-2.461 6.243a16.75 16.75 0 0 1-5.848 5.082l-.75.393c-.612.32-1.341.32-1.953 0l-.749-.392a16.74 16.74 0 0 1-5.851-5.087c-1.315-1.837-2.189-3.97-2.456-6.233-.114-.973-.216-1.962-.216-2.465V6.814a2.25 2.25 0 0 1 1.233-2.007zM13.24 2.55a2.75 2.75 0 0 0-2.485 0L3.66 6.146a.75.75 0 0 0-.411.67V8.84c0 .396.088 1.29.206 2.29.235 1.991 1.006 3.888 2.185 5.534a15.24 15.24 0 0 0 5.327 4.632l.749.392a.6.6 0 0 0 .563 0l.75-.393a15.25 15.25 0 0 0 5.324-4.627c1.182-1.649 1.955-3.549 2.19-5.545.118-.997.206-1.888.206-2.283V6.815a.75.75 0 0 0-.411-.67z" clip-rule="evenodd"/></svg>