<svg xmlns="http://www.w3.org/2000/svg" width="24" height="24" fill="none" viewBox="0 0 24 24"><g fill="#9ca3af" fill-rule="evenodd" clip-path="url(#a)" clip-rule="evenodd"><path d="m9.75 2.751-.325-.001H5.8c-.852 0-1.447 0-1.91.038-.453.038-.714.107-.911.207a2.25 2.25 0 0 0-.984.984c-.1.197-.17.458-.207.912-.037.462-.038 1.057-.038 1.91v10.4c0 .851 0 1.446.038 1.908.037.454.107.715.207.912.216.424.56.768.984.984.197.1.458.17.912.207.462.038 1.057.038 1.909.038H10a.75.75 0 1 1 0 1.5H5.768c-.813 0-1.469 0-2-.043-.546-.045-1.026-.14-1.47-.366a3.75 3.75 0 0 1-1.64-1.639c-.226-.444-.32-.924-.365-1.47-.043-.531-.043-1.187-.043-2V6.768c0-.813 0-1.469.043-2 .045-.546.14-1.026.366-1.47a3.75 3.75 0 0 1 1.639-1.64c.444-.226.924-.32 1.47-.365.531-.043 1.187-.043 2-.043h3.729c.419 0 .748 0 1.066.076.281.067.55.179.795.33.28.17.512.404.808.7l4.478 4.478c.297.296.53.528.7.808.151.246.263.514.33.795.076.318.076.647.076 1.066v1.653a.75.75 0 0 1-1.5 0v-1.58l-.001-.326H12.5A2.75 2.75 0 0 1 9.75 6.5zm5.69 5-4.19-4.19V6.5c0 .69.56 1.25 1.25 1.25z"/><path d="M19.735 11.654a2.25 2.25 0 0 1 2.569 0c.166.115.323.273.506.456l.08.08c.184.183.341.34.457.506a2.25 2.25 0 0 1 0 2.57c-.115.166-.273.323-.456.506l-5.983 5.985a.75.75 0 0 1-.363.2l-3.378.774a.75.75 0 0 1-.898-.899l.774-3.373a.75.75 0 0 1 .2-.363l5.986-5.986c.182-.183.34-.34.506-.456m1.713 1.231a.75.75 0 0 0-.857 0c-.04.03-.096.08-.342.326l-.479.479 1.541 1.54.48-.478c.245-.246.296-.302.325-.343a.75.75 0 0 0 0-.856c-.029-.041-.08-.096-.326-.342s-.301-.297-.342-.326m-1.197 3.406-1.541-1.54-4.253 4.254L14 21.002l2-.458z"/></g><defs><clipPath id="a"><path fill="#fff" d="M0 0h24v24H0z"/></clipPath></defs></svg>