<svg xmlns="http://www.w3.org/2000/svg" width="24" height="24" fill="none" viewBox="0 0 24 24"><path fill="#9ca3af" d="M12 14.75c-1.541 0-2.92 1.062-3.274 2.437a.75.75 0 1 1-1.452-.374c.534-2.075 2.54-3.563 4.726-3.563s4.192 1.488 4.726 3.563a.75.75 0 0 1-1.452.374C14.92 15.812 13.54 14.75 12 14.75"/><path fill="#9ca3af" fill-rule="evenodd" d="M12 6.25a3 3 0 1 0 0 6 3 3 0 0 0 0-6m-1.5 3a1.5 1.5 0 1 1 3 0 1.5 1.5 0 0 1-3 0" clip-rule="evenodd"/><path fill="#9ca3af" fill-rule="evenodd" d="M7.067 3.25h9.866c.952 0 1.713 0 2.327.05.63.052 1.172.16 1.67.413a4.25 4.25 0 0 1 1.857 1.858c.253.497.361 1.04.413 1.67.05.613.05 1.374.05 2.326v4.865c0 .953 0 1.714-.05 2.328-.052.63-.16 1.172-.413 1.67a4.25 4.25 0 0 1-1.857 1.857c-.498.253-1.04.361-1.67.413-.614.05-1.375.05-2.327.05H7.067c-.952 0-1.713 0-2.327-.05-.63-.052-1.172-.16-1.67-.413a4.25 4.25 0 0 1-1.857-1.857C.96 17.932.852 17.39.8 16.76c-.05-.614-.05-1.375-.05-2.327V9.567c0-.952 0-1.713.05-2.327.052-.63.16-1.172.413-1.67a4.25 4.25 0 0 1 1.858-1.857c.497-.253 1.04-.361 1.67-.413.613-.05 1.374-.05 2.326-.05M4.862 4.795c-.537.044-.86.127-1.11.255A2.75 2.75 0 0 0 2.55 6.252c-.128.25-.21.573-.255 1.11-.044.546-.045 1.246-.045 2.238v4.8c0 .992 0 1.692.045 2.238.044.537.127.86.255 1.11a2.75 2.75 0 0 0 1.202 1.202c.25.128.573.21 1.11.255.546.044 1.246.045 2.238.045h9.8c.992 0 1.692 0 2.238-.045.537-.044.86-.127 1.11-.255a2.75 2.75 0 0 0 1.202-1.201c.128-.252.21-.574.255-1.111.044-.546.045-1.246.045-2.238V9.6c0-.992 0-1.692-.045-2.238-.044-.537-.127-.86-.255-1.11a2.75 2.75 0 0 0-1.2-1.202c-.252-.128-.574-.21-1.111-.255-.546-.044-1.246-.045-2.238-.045H7.1c-.992 0-1.692 0-2.238.045" clip-rule="evenodd"/></svg>