<svg width="16" height="16" viewBox="0 0 16 16" fill="none" xmlns="http://www.w3.org/2000/svg">
<g opacity="0.4">
<path d="M8 0.583008C12.0806 0.583185 15.4158 3.91941 15.416 8C15.4158 12.0806 12.0806 15.4158 8 15.416C3.91936 15.4159 0.583185 12.0806 0.583008 8C0.583221 3.91939 3.91938 0.583167 8 0.583008ZM10.417 5.58301C10.1241 5.29013 9.64934 5.29017 9.35645 5.58301L8 6.93945L6.64355 5.58301C6.35066 5.29011 5.8759 5.29011 5.58301 5.58301C5.29011 5.8759 5.29011 6.35066 5.58301 6.64355L6.93945 8L5.58301 9.35645C5.29017 9.64934 5.29013 10.1241 5.58301 10.417C5.87589 10.7098 6.35067 10.7098 6.64355 10.417L8 9.06055L9.35645 10.417C9.64935 10.7098 10.1241 10.7099 10.417 10.417C10.7099 10.1241 10.7098 9.64935 10.417 9.35645L9.06055 8L10.417 6.64355C10.7098 6.35067 10.7098 5.87589 10.417 5.58301Z" fill="#CCCCCC"/>
</g>
</svg>
