<svg xmlns="http://www.w3.org/2000/svg" width="20" height="20" fill="none" viewBox="0 0 20 20"><g clip-path="url(#a)"><path fill="#292d32" d="M18.333 9.375h-1.7c-.3-3.175-2.833-5.717-6.008-6.008v-1.7A.63.63 0 0 0 10 1.042a.63.63 0 0 0-.625.625v1.7C6.2 3.667 3.658 6.2 3.367 9.375h-1.7a.63.63 0 0 0-.625.625.63.63 0 0 0 .625.625h1.7c.3 3.175 2.833 5.717 6.008 6.008v1.7a.63.63 0 0 0 .625.625.63.63 0 0 0 .625-.625v-1.7c3.175-.3 5.717-2.833 6.008-6.008h1.7a.63.63 0 0 0 .625-.625.63.63 0 0 0-.625-.625M10 12.6A2.603 2.603 0 0 1 7.4 10c0-1.433 1.167-2.6 2.6-2.6s2.6 1.167 2.6 2.6-1.167 2.6-2.6 2.6"/></g><defs><clipPath id="a"><path fill="#fff" d="M0 0h20v20H0z"/></clipPath></defs></svg>