<svg xmlns="http://www.w3.org/2000/svg" width="64" height="64" class="icon" viewBox="0 0 1024 1024"><path fill="#fff" d="M821.333 48.64H202.667A74.667 74.667 0 0 0 128 123.307v723.626a74.667 74.667 0 0 0 65.707 74.24l448 53.76h8.96a74.03 74.03 0 0 0 73.386-62.72h97.28A74.667 74.667 0 0 0 896 837.547v-714.24a74.667 74.667 0 0 0-74.667-74.667m-160 852.053a10.667 10.667 0 0 1-11.946 10.667l-448-53.76A10.667 10.667 0 0 1 192 846.933V177.92a10.67 10.67 0 0 1 3.627-7.253 10.67 10.67 0 0 1 8.32-2.56l448 53.76a10.667 10.667 0 0 1 9.386 10.666zM832 837.973a10.667 10.667 0 0 1-10.667 10.667h-96V231.68a74.667 74.667 0 0 0-65.706-74.24l-374.614-44.8h536.32A10.667 10.667 0 0 1 832 123.307z"/><path fill="#fff" d="M565.333 464.64a32 32 0 0 0-32 32v128a32 32 0 0 0 64 0v-128a32 32 0 0 0-32-32"/></svg>