<svg xmlns="http://www.w3.org/2000/svg" width="14" height="14" fill="none" viewBox="0 0 14 14"><g fill="#aa5200" clip-path="url(#a)"><path fill-rule="evenodd" d="M11.768.748c.221.018.43.057.626.157a1.6 1.6 0 0 1 .702.7c.1.198.14.406.158.628.017.212.017.473.017.785v2.958c0 .45 0 .748-.068 1.034a2.5 2.5 0 0 1-.297.717c-.154.251-.366.462-.684.78l-2.843 2.84c-.057.058-.086.087-.12.098q-.044.014-.09 0c-.033-.011-.062-.04-.12-.098L2.654 4.951c-.058-.058-.087-.087-.098-.12a.15.15 0 0 1 0-.09c.011-.034.04-.063.098-.12l2.843-2.84c.317-.317.527-.528.778-.681A2.5 2.5 0 0 1 6.99.803c.285-.069.583-.069 1.032-.07l2.962-.002c.311 0 .572 0 .784.017M9.77 5.25a1.02 1.02 0 1 1 0-2.042 1.02 1.02 0 0 1 0 2.042" clip-rule="evenodd"/><path d="M2.037 5.572c-.058-.058-.088-.088-.121-.098a.15.15 0 0 0-.092 0c-.033.012-.061.042-.118.1a9 9 0 0 0-.336.37c-.239.28-.418.549-.519.859a2.48 2.48 0 0 0 0 1.532c.1.31.279.578.517.86.233.273.546.587.94.98l1.513 1.516c.393.393.707.707.98.94.282.238.55.418.86.518a2.48 2.48 0 0 0 1.532.001c.31-.1.578-.28.859-.518q.174-.147.373-.339c.059-.056.088-.084.1-.118q.015-.046 0-.091c-.01-.034-.04-.063-.098-.122z"/></g><defs><clipPath id="a"><path fill="#fff" d="M0 0h14v14H0z"/></clipPath></defs></svg>