<svg xmlns="http://www.w3.org/2000/svg" width="14" height="14" fill="none" viewBox="0 0 14 14"><g fill="#909090" clip-path="url(#a)"><path fill-rule="evenodd" d="M11.767.748c.222.018.43.057.627.157.302.153.548.399.702.7.1.198.14.406.157.628.018.212.018.473.018.785v2.958c0 .45 0 .748-.069 1.034-.06.253-.16.495-.297.717-.154.251-.365.462-.683.78l-2.843 2.84c-.058.058-.087.087-.12.098q-.045.014-.09 0c-.033-.011-.062-.04-.12-.098L2.652 4.951c-.057-.058-.086-.087-.097-.12a.15.15 0 0 1 0-.09c.01-.034.04-.063.098-.12l2.842-2.84c.317-.317.528-.528.778-.681a2.5 2.5 0 0 1 .715-.297c.286-.069.584-.069 1.032-.07l2.962-.002c.312 0 .572 0 .785.017M9.771 5.25a1.02 1.02 0 1 1 0-2.042 1.02 1.02 0 0 1 0 2.042" clip-rule="evenodd"/><path d="M2.036 5.572c-.058-.058-.087-.088-.12-.098a.15.15 0 0 0-.092 0c-.034.012-.062.042-.118.1a9 9 0 0 0-.337.37c-.238.28-.417.549-.518.859A2.48 2.48 0 0 0 .85 8.335c.1.31.28.578.518.86.232.273.546.587.939.98l1.514 1.516c.393.393.706.707.98.94.281.238.55.418.859.518a2.48 2.48 0 0 0 1.532.001c.31-.1.578-.28.86-.518q.173-.147.372-.339c.06-.056.089-.084.1-.118q.015-.046.001-.091c-.01-.034-.04-.063-.098-.122z"/></g><defs><clipPath id="a"><path fill="#fff" d="M0 0h14v14H0z"/></clipPath></defs></svg>