<svg width="220" height="220" viewBox="0 0 220 220" fill="none" xmlns="http://www.w3.org/2000/svg">
<g clip-path="url(#clip0_215_736)">
<g filter="url(#filter0_f_215_736)">
<path fill-rule="evenodd" clip-rule="evenodd" d="M182 110.38C182 150.35 149.93 182.76 110.38 182.76C70.8198 182.76 38.7598 150.35 38.7598 110.38C38.7598 70.41 70.8198 38 110.38 38C149.93 38 182 70.41 182 110.38Z" fill="url(#paint0_radial_215_736)" fill-opacity="0.6"/>
</g>
<path fill-rule="evenodd" clip-rule="evenodd" d="M84.5401 144.74C105.3 144.74 122.13 123.56 122.13 97.4299C122.13 71.3099 105.3 50.1299 84.5401 50.1299C63.7801 50.1299 52.8101 72.2999 46.9501 97.4299C44.2201 109.16 40.3301 131.36 46.9501 139.89C53.7801 148.68 74.0101 144.74 84.5401 144.74Z" fill="url(#paint1_linear_215_736)"/>
<path d="M50.7298 75.14C48.2298 75.14 46.3398 73.37 46.3398 71.01C46.3398 69.01 48.4798 67.85 50.4598 67.43C50.9698 65.29 52.2798 63.3 54.7698 63.3C55.5098 63.3 56.2398 63.44 56.9098 63.7C58.1498 61.86 60.3798 60.74 62.8398 60.74C66.6698 60.74 68.9798 64.74 68.9798 66.83C68.9798 67.01 69.7798 67.25 69.7698 67.43C71.1998 68.16 72.1098 69.53 72.1098 71.01C72.1098 73.28 70.0098 75.14 67.4498 75.14H50.7298Z" fill="white"/>
<g filter="url(#filter1_i_215_736)">
<path d="M50.7298 75.14C48.2298 75.14 46.3398 73.37 46.3398 71.01C46.3398 69.01 48.4798 67.85 50.4598 67.43C50.9698 65.29 52.2798 63.3 54.7698 63.3C55.5098 63.3 56.2398 63.44 56.9098 63.7C58.1498 61.86 60.3798 60.74 62.8398 60.74C66.6698 60.74 68.9798 64.74 68.9798 66.83C68.9798 67.01 69.7798 67.25 69.7698 67.43C71.1998 68.16 72.1098 69.53 72.1098 71.01C72.1098 73.28 70.0098 75.14 67.4498 75.14H50.7298Z" fill="white"/>
</g>
<path fill-rule="evenodd" clip-rule="evenodd" d="M135.44 153.96C156.19 153.96 178.36 147.08 173.82 122.42C169.28 97.76 158.62 62.25 137.87 62.25C117.12 62.25 97.8701 80.52 97.8701 106.65C97.8701 132.78 114.69 153.96 135.44 153.96Z" fill="url(#paint2_linear_215_736)"/>
<path d="M161.58 96.12C160.86 93.01 159.08 90.29 155.39 90.29C151.23 90.29 150.57 93.95 149.32 96.12C147.16 95.2 143.35 97.41 143.35 100.17C143.35 103.17 145.95 104.69 149.32 104.69H162.44C165.21 104.69 167.6 102.7 167.6 100.17C167.6 97.82 164.42 94.8 161.58 96.12Z" fill="white"/>
<g filter="url(#filter2_i_215_736)">
<path d="M161.58 96.12C160.86 93.01 159.08 90.29 155.39 90.29C151.23 90.29 150.57 93.95 149.32 96.12C147.16 95.2 143.35 97.41 143.35 100.17C143.35 103.17 145.95 104.69 149.32 104.69H162.44C165.21 104.69 167.6 102.7 167.6 100.17C167.6 97.82 164.42 94.8 161.58 96.12Z" fill="white"/>
</g>
<path fill-rule="evenodd" clip-rule="evenodd" d="M180.48 147.52C180.48 158.19 148.59 166.84 109.24 166.84C69.9 166.84 38 158.19 38 147.52C38 136.84 69.9 128.19 109.24 128.19C148.59 128.19 180.48 136.84 180.48 147.52Z" fill="url(#paint3_linear_215_736)"/>
<path fill-rule="evenodd" clip-rule="evenodd" d="M46.9097 142.64H48.5397V153.91H46.9097V142.64Z" fill="url(#paint4_linear_215_736)"/>
<g filter="url(#filter3_f_215_736)">
<path fill-rule="evenodd" clip-rule="evenodd" d="M81.3999 153.15L81.3799 154.33L46.3599 153.71L46.3799 152.53L81.3999 153.15Z" fill="url(#paint5_linear_215_736)" fill-opacity="0.89811"/>
</g>
<path fill-rule="evenodd" clip-rule="evenodd" d="M47.7197 128.95V145.05L53.4297 141.23L47.7197 128.95Z" fill="#F3A96B"/>
<path fill-rule="evenodd" clip-rule="evenodd" d="M48.6098 128.95V145.05L38.7598 141.26L48.6098 128.95Z" fill="#FFCA4A"/>
<path fill-rule="evenodd" clip-rule="evenodd" d="M160.35 137.25C158.6 131.16 104.11 123.03 109.2 126.71C114.29 130.39 94.0801 120.01 94.0801 126.71L112.65 148.65L160.35 137.25Z" fill="url(#paint6_linear_215_736)"/>
<path fill-rule="evenodd" clip-rule="evenodd" d="M141.29 130.12H142.88V137.28H141.29V130.12Z" fill="url(#paint7_linear_215_736)"/>
<g filter="url(#filter4_f_215_736)">
<path fill-rule="evenodd" clip-rule="evenodd" d="M152.85 136.32L152.84 137.05L141.24 136.66L141.25 135.94L152.85 136.32Z" fill="url(#paint8_linear_215_736)" fill-opacity="0.840634"/>
</g>
<path fill-rule="evenodd" clip-rule="evenodd" d="M142.08 121.37V131.71L145.26 129.26L142.08 121.37Z" fill="#F3A96B"/>
<path fill-rule="evenodd" clip-rule="evenodd" d="M142.08 121.37V131.71L136.53 129.28L142.08 121.37Z" fill="#FFCA4A"/>
<path fill-rule="evenodd" clip-rule="evenodd" d="M156.69 148.7H158.3V159.97H156.69V148.7Z" fill="url(#paint9_linear_215_736)"/>
<g filter="url(#filter5_f_215_736)">
<path fill-rule="evenodd" clip-rule="evenodd" d="M174.63 159.21L174.61 160.39L156.15 159.78L156.17 158.6L174.63 159.21Z" fill="url(#paint10_linear_215_736)" fill-opacity="0.840634"/>
</g>
<path fill-rule="evenodd" clip-rule="evenodd" d="M157.49 135.01V151.12L163.12 147.29L157.49 135.01Z" fill="#F3A96B"/>
<path fill-rule="evenodd" clip-rule="evenodd" d="M157.49 135.01V151.12L148.65 147.32L157.49 135.01Z" fill="#FFCA4A"/>
<path fill-rule="evenodd" clip-rule="evenodd" d="M83.3799 75.1699L120 74.4699C124.45 74.3499 127.78 74.3499 129.97 74.4699C130.35 74.4899 130.7 74.5199 131.02 74.5399C132.57 74.6799 133.76 75.9799 133.76 77.5299V144.74C133.76 146.4 132.42 147.74 130.76 147.74C130.63 147.74 130.5 147.73 130.37 147.72L124.42 146.94L83.0999 142.23C81.5899 142.05 80.4399 140.77 80.4399 139.24V78.1699C80.4399 76.5399 81.7499 75.1999 83.3799 75.1699Z" fill="#CC7921"/>
<path fill-rule="evenodd" clip-rule="evenodd" d="M110.12 67.5601C112.74 67.5601 114.28 69.4301 114.73 73.1801H119.32C119.81 73.1801 120.23 73.5401 120.3 74.0301C120.43 74.8601 120.5 75.4701 120.5 75.8401C120.5 76.2401 120.43 76.9701 120.28 78.0601C120.22 78.5501 119.8 78.9301 119.29 78.9301H98.3101C97.8001 78.9301 97.3801 78.5501 97.3101 78.0501C97.1801 76.9901 97.1201 76.2501 97.1201 75.8401C97.1201 75.4501 97.1801 74.8501 97.2901 74.0401C97.3701 73.5501 97.7901 73.1801 98.2801 73.1801H104.92C105.77 69.4301 107.5 67.5601 110.12 67.5601ZM109.56 69.6901C108.72 69.6901 108.04 70.3301 108.04 71.1101C108.04 71.9001 108.72 72.5301 109.56 72.5301C110.39 72.5301 111.07 71.9001 111.07 71.1101C111.07 70.3301 110.39 69.6901 109.56 69.6901Z" fill="url(#paint11_linear_215_736)"/>
<g filter="url(#filter6_i_215_736)">
<path fill-rule="evenodd" clip-rule="evenodd" d="M110.12 67.5601C112.74 67.5601 114.28 69.4301 114.73 73.1801H119.32C119.81 73.1801 120.23 73.5401 120.3 74.0301C120.43 74.8601 120.5 75.4701 120.5 75.8401C120.5 76.2401 120.43 76.9701 120.28 78.0601C120.22 78.5501 119.8 78.9301 119.29 78.9301H98.3101C97.8001 78.9301 97.3801 78.5501 97.3101 78.0501C97.1801 76.9901 97.1201 76.2501 97.1201 75.8401C97.1201 75.4501 97.1801 74.8501 97.2901 74.0401C97.3701 73.5501 97.7901 73.1801 98.2801 73.1801H104.92C105.77 69.4301 107.5 67.5601 110.12 67.5601ZM109.56 69.6901C108.72 69.6901 108.04 70.3301 108.04 71.1101C108.04 71.9001 108.72 72.5301 109.56 72.5301C110.39 72.5301 111.07 71.9001 111.07 71.1101C111.07 70.3301 110.39 69.6901 109.56 69.6901Z" fill="white"/>
</g>
<g filter="url(#filter7_d_215_736)">
<path d="M80.4102 74.47H127.73C129.38 74.47 130.73 75.81 130.73 77.47V144.84C130.73 146.49 129.38 147.84 127.73 147.84C127.62 147.84 127.52 147.83 127.42 147.82L80.1002 142.96C78.5702 142.8 77.4102 141.51 77.4102 139.97V77.47C77.4102 75.81 78.7502 74.47 80.4102 74.47Z" fill="white"/>
</g>
<path d="M80.4102 74.47H127.73C129.38 74.47 130.73 75.81 130.73 77.47V144.84C130.73 146.49 129.38 147.84 127.73 147.84C127.62 147.84 127.52 147.83 127.42 147.82L80.1002 142.96C78.5702 142.8 77.4102 141.51 77.4102 139.97V77.47C77.4102 75.81 78.7502 74.47 80.4102 74.47Z" fill="url(#paint12_linear_215_736)"/>
<path fill-rule="evenodd" clip-rule="evenodd" d="M134.75 70.41L135.39 71.91L142.41 68.19L139.48 65.5L134.75 70.41Z" fill="url(#paint13_linear_215_736)"/>
<path fill-rule="evenodd" clip-rule="evenodd" d="M130.46 69.5H131.8L134.38 64.53H131.16L130.46 69.5Z" fill="url(#paint14_linear_215_736)"/>
<path fill-rule="evenodd" clip-rule="evenodd" d="M137.55 74.07V75.44L143.22 76.29L142.03 72.72L137.55 74.07Z" fill="url(#paint15_linear_215_736)"/>
<path fill-rule="evenodd" clip-rule="evenodd" d="M84.2002 79.02H123.67C125.33 79.02 126.67 80.36 126.67 82.02V138.81C126.67 140.46 125.33 141.81 123.67 141.81C123.57 141.81 123.47 141.8 123.37 141.79L83.8902 137.72C82.3602 137.56 81.2002 136.27 81.2002 134.73V82.02C81.2002 80.36 82.5402 79.02 84.2002 79.02Z" fill="url(#paint16_linear_215_736)"/>
<g filter="url(#filter8_i_215_736)">
<path fill-rule="evenodd" clip-rule="evenodd" d="M84.2002 79.02H123.67C125.33 79.02 126.67 80.36 126.67 82.02V138.81C126.67 140.46 125.33 141.81 123.67 141.81C123.57 141.81 123.47 141.8 123.37 141.79L83.8902 137.72C82.3602 137.56 81.2002 136.27 81.2002 134.73V82.02C81.2002 80.36 82.5402 79.02 84.2002 79.02Z" fill="white"/>
</g>
<path fill-rule="evenodd" clip-rule="evenodd" d="M104.5 67.5601C107.13 67.5601 108.66 69.5601 109.11 73.5601H113.69C114.19 73.5601 114.61 73.9201 114.68 74.4101C114.81 75.3301 114.88 75.9901 114.88 76.3901C114.88 76.8201 114.81 77.6301 114.66 78.8101C114.6 79.3101 114.17 79.6801 113.67 79.6801H92.7C92.19 79.6801 91.76 79.3001 91.7 78.8001C91.57 77.6401 91.5 76.8401 91.5 76.3901C91.5 75.9701 91.56 75.3101 91.68 74.4201C91.75 73.9301 92.17 73.5601 92.67 73.5601H99.31C100.15 69.5601 101.88 67.5601 104.5 67.5601ZM103.94 69.8301C103.1 69.8301 102.42 70.5101 102.42 71.3501C102.42 72.1801 103.1 72.8601 103.94 72.8601C104.77 72.8601 105.45 72.1801 105.45 71.3501C105.45 70.5101 104.77 69.8301 103.94 69.8301Z" fill="url(#paint17_linear_215_736)"/>
<g filter="url(#filter9_i_215_736)">
<path fill-rule="evenodd" clip-rule="evenodd" d="M104.5 67.5601C107.13 67.5601 108.66 69.5601 109.11 73.5601H113.69C114.19 73.5601 114.61 73.9201 114.68 74.4101C114.81 75.3301 114.88 75.9901 114.88 76.3901C114.88 76.8201 114.81 77.6301 114.66 78.8101C114.6 79.3101 114.17 79.6801 113.67 79.6801H92.7C92.19 79.6801 91.76 79.3001 91.7 78.8001C91.57 77.6401 91.5 76.8401 91.5 76.3901C91.5 75.9701 91.56 75.3101 91.68 74.4201C91.75 73.9301 92.17 73.5601 92.67 73.5601H99.31C100.15 69.5601 101.88 67.5601 104.5 67.5601ZM103.94 69.8301C103.1 69.8301 102.42 70.5101 102.42 71.3501C102.42 72.1801 103.1 72.8601 103.94 72.8601C104.77 72.8601 105.45 72.1801 105.45 71.3501C105.45 70.5101 104.77 69.8301 103.94 69.8301Z" fill="white"/>
</g>
<path fill-rule="evenodd" clip-rule="evenodd" d="M79.6401 152.69L94.9601 144.5L96.5501 147.52L81.2301 155.7C80.5201 155.92 79.9201 155.65 79.4401 154.88C78.9501 154.1 79.0201 153.37 79.6401 152.69Z" fill="url(#paint18_linear_215_736)"/>
<g filter="url(#filter10_d_215_736)">
<path fill-rule="evenodd" clip-rule="evenodd" d="M112.29 138.65C113.85 144.08 110.87 149.7 105.64 151.2C100.41 152.7 94.91 149.51 93.35 144.08C91.79 138.65 94.77 133.03 100 131.53C105.23 130.03 110.73 133.21 112.29 138.65Z" fill="white"/>
</g>
<path fill-rule="evenodd" clip-rule="evenodd" d="M112.29 138.65C113.85 144.08 110.87 149.7 105.64 151.2C100.41 152.7 94.91 149.51 93.35 144.08C91.79 138.65 94.77 133.03 100 131.53C105.23 130.03 110.73 133.21 112.29 138.65Z" fill="url(#paint19_linear_215_736)"/>
<path fill-rule="evenodd" clip-rule="evenodd" d="M108.75 140.05C109.79 143.68 107.86 147.41 104.44 148.39C101.02 149.37 97.41 147.23 96.37 143.61C95.33 139.98 97.26 136.25 100.68 135.27C104.1 134.29 107.71 136.43 108.75 140.05Z" fill="white"/>
<g filter="url(#filter11_i_215_736)">
<path fill-rule="evenodd" clip-rule="evenodd" d="M108.75 140.05C109.79 143.68 107.86 147.41 104.44 148.39C101.02 149.37 97.41 147.23 96.37 143.61C95.33 139.98 97.26 136.25 100.68 135.27C104.1 134.29 107.71 136.43 108.75 140.05Z" fill="white"/>
</g>
<g filter="url(#filter12_d_215_736)">
<path d="M111.04 94.3199C109.21 92.7199 106.67 91.8999 103.5 91.8999C100.3 91.8999 97.6598 92.8299 95.6498 94.6499C93.6098 96.5099 92.5698 98.6499 92.5698 101.02C92.5698 102.55 93.3698 103.26 95.0898 103.26C96.7098 103.26 97.5098 102.52 97.5998 100.92C97.6698 99.6599 98.2398 98.5699 99.2598 97.6799C100.29 96.7899 101.67 96.3399 103.36 96.3399C105.04 96.3399 106.38 96.7499 107.34 97.5399C108.32 98.3399 108.81 99.4699 108.81 100.89C108.81 101.48 108.77 101.99 108.68 102.42C108.59 102.87 108.39 103.32 108.08 103.76C107.78 104.19 107.38 104.65 106.87 105.13C106.37 105.59 105.72 106.18 104.91 106.88C103.23 108.38 101.94 109.91 101.1 111.41C100.27 112.89 99.8498 114.39 99.8498 115.87C99.8498 116.39 99.8798 116.84 99.9398 117.2C99.9998 117.51 100.11 117.76 100.28 117.93C100.44 118.1 100.69 118.23 101.01 118.3C101.38 118.39 101.89 118.43 102.56 118.43C104.14 118.43 104.87 117.61 104.87 115.87C104.87 115.28 104.92 114.75 105 114.27C105.09 113.79 105.29 113.29 105.59 112.79C105.89 112.3 106.33 111.75 106.91 111.14C107.48 110.55 108.26 109.81 109.22 108.97C110.78 107.58 111.94 106.26 112.69 105.05C113.42 103.85 113.79 102.55 113.79 101.16C113.78 98.2199 112.86 95.9199 111.04 94.3199ZM105.19 121.61C104.88 121.33 104.52 121.11 104.12 120.95C103.71 120.78 103.27 120.7 102.8 120.7C102.33 120.7 101.89 120.78 101.48 120.95C101.07 121.11 100.72 121.33 100.41 121.61C100.09 121.88 99.8398 122.2 99.6598 122.57C99.4798 122.93 99.3898 123.31 99.3898 123.73C99.3898 124.15 99.4798 124.54 99.6598 124.9C99.8398 125.26 100.09 125.58 100.41 125.86C100.72 126.13 101.08 126.36 101.48 126.52C101.89 126.68 102.33 126.76 102.8 126.76C103.27 126.76 103.71 126.69 104.12 126.52C104.53 126.35 104.88 126.13 105.19 125.86C105.51 125.58 105.76 125.26 105.94 124.9C106.12 124.54 106.21 124.15 106.21 123.73C106.21 123.32 106.12 122.93 105.94 122.57C105.76 122.21 105.51 121.89 105.19 121.61Z" fill="white"/>
</g>
<path d="M111.04 94.3199C109.21 92.7199 106.67 91.8999 103.5 91.8999C100.3 91.8999 97.6598 92.8299 95.6498 94.6499C93.6098 96.5099 92.5698 98.6499 92.5698 101.02C92.5698 102.55 93.3698 103.26 95.0898 103.26C96.7098 103.26 97.5098 102.52 97.5998 100.92C97.6698 99.6599 98.2398 98.5699 99.2598 97.6799C100.29 96.7899 101.67 96.3399 103.36 96.3399C105.04 96.3399 106.38 96.7499 107.34 97.5399C108.32 98.3399 108.81 99.4699 108.81 100.89C108.81 101.48 108.77 101.99 108.68 102.42C108.59 102.87 108.39 103.32 108.08 103.76C107.78 104.19 107.38 104.65 106.87 105.13C106.37 105.59 105.72 106.18 104.91 106.88C103.23 108.38 101.94 109.91 101.1 111.41C100.27 112.89 99.8498 114.39 99.8498 115.87C99.8498 116.39 99.8798 116.84 99.9398 117.2C99.9998 117.51 100.11 117.76 100.28 117.93C100.44 118.1 100.69 118.23 101.01 118.3C101.38 118.39 101.89 118.43 102.56 118.43C104.14 118.43 104.87 117.61 104.87 115.87C104.87 115.28 104.92 114.75 105 114.27C105.09 113.79 105.29 113.29 105.59 112.79C105.89 112.3 106.33 111.75 106.91 111.14C107.48 110.55 108.26 109.81 109.22 108.97C110.78 107.58 111.94 106.26 112.69 105.05C113.42 103.85 113.79 102.55 113.79 101.16C113.78 98.2199 112.86 95.9199 111.04 94.3199ZM105.19 121.61C104.88 121.33 104.52 121.11 104.12 120.95C103.71 120.78 103.27 120.7 102.8 120.7C102.33 120.7 101.89 120.78 101.48 120.95C101.07 121.11 100.72 121.33 100.41 121.61C100.09 121.88 99.8398 122.2 99.6598 122.57C99.4798 122.93 99.3898 123.31 99.3898 123.73C99.3898 124.15 99.4798 124.54 99.6598 124.9C99.8398 125.26 100.09 125.58 100.41 125.86C100.72 126.13 101.08 126.36 101.48 126.52C101.89 126.68 102.33 126.76 102.8 126.76C103.27 126.76 103.71 126.69 104.12 126.52C104.53 126.35 104.88 126.13 105.19 125.86C105.51 125.58 105.76 125.26 105.94 124.9C106.12 124.54 106.21 124.15 106.21 123.73C106.21 123.32 106.12 122.93 105.94 122.57C105.76 122.21 105.51 121.89 105.19 121.61Z" fill="#FF8300"/>
<g filter="url(#filter13_i_215_736)">
<path d="M111.04 94.3199C109.21 92.7199 106.67 91.8999 103.5 91.8999C100.3 91.8999 97.6598 92.8299 95.6498 94.6499C93.6098 96.5099 92.5698 98.6499 92.5698 101.02C92.5698 102.55 93.3698 103.26 95.0898 103.26C96.7098 103.26 97.5098 102.52 97.5998 100.92C97.6698 99.6599 98.2398 98.5699 99.2598 97.6799C100.29 96.7899 101.67 96.3399 103.36 96.3399C105.04 96.3399 106.38 96.7499 107.34 97.5399C108.32 98.3399 108.81 99.4699 108.81 100.89C108.81 101.48 108.77 101.99 108.68 102.42C108.59 102.87 108.39 103.32 108.08 103.76C107.78 104.19 107.38 104.65 106.87 105.13C106.37 105.59 105.72 106.18 104.91 106.88C103.23 108.38 101.94 109.91 101.1 111.41C100.27 112.89 99.8498 114.39 99.8498 115.87C99.8498 116.39 99.8798 116.84 99.9398 117.2C99.9998 117.51 100.11 117.76 100.28 117.93C100.44 118.1 100.69 118.23 101.01 118.3C101.38 118.39 101.89 118.43 102.56 118.43C104.14 118.43 104.87 117.61 104.87 115.87C104.87 115.28 104.92 114.75 105 114.27C105.09 113.79 105.29 113.29 105.59 112.79C105.89 112.3 106.33 111.75 106.91 111.14C107.48 110.55 108.26 109.81 109.22 108.97C110.78 107.58 111.94 106.26 112.69 105.05C113.42 103.85 113.79 102.55 113.79 101.16C113.78 98.2199 112.86 95.9199 111.04 94.3199ZM105.19 121.61C104.88 121.33 104.52 121.11 104.12 120.95C103.71 120.78 103.27 120.7 102.8 120.7C102.33 120.7 101.89 120.78 101.48 120.95C101.07 121.11 100.72 121.33 100.41 121.61C100.09 121.88 99.8398 122.2 99.6598 122.57C99.4798 122.93 99.3898 123.31 99.3898 123.73C99.3898 124.15 99.4798 124.54 99.6598 124.9C99.8398 125.26 100.09 125.58 100.41 125.86C100.72 126.13 101.08 126.36 101.48 126.52C101.89 126.68 102.33 126.76 102.8 126.76C103.27 126.76 103.71 126.69 104.12 126.52C104.53 126.35 104.88 126.13 105.19 125.86C105.51 125.58 105.76 125.26 105.94 124.9C106.12 124.54 106.21 124.15 106.21 123.73C106.21 123.32 106.12 122.93 105.94 122.57C105.76 122.21 105.51 121.89 105.19 121.61Z" fill="white"/>
</g>
<path fill-rule="evenodd" clip-rule="evenodd" d="M75.3901 158.09C78.6301 160.52 80.4001 161.94 80.7101 162.37C81.0101 162.8 81.3601 163.48 81.7301 164.42C83.0401 164.24 84.2901 163.85 85.4901 163.24C85.8701 163.05 86.3201 162.34 86.8601 161.09C86.8901 160.97 86.8801 160.87 86.8201 160.78C86.6301 160.49 85.9101 160.33 85.5701 160.29C85.1701 160.25 84.6401 160.55 83.9801 161.19C83.5001 160.73 83.1901 160.38 83.0301 160.15C82.8701 159.92 82.7001 159.53 82.5401 158.96L75.3901 158.09Z" fill="white"/>
<g filter="url(#filter14_i_215_736)">
<path fill-rule="evenodd" clip-rule="evenodd" d="M75.3901 158.09C78.6301 160.52 80.4001 161.94 80.7101 162.37C81.0101 162.8 81.3601 163.48 81.7301 164.42C83.0401 164.24 84.2901 163.85 85.4901 163.24C85.8701 163.05 86.3201 162.34 86.8601 161.09C86.8901 160.97 86.8801 160.87 86.8201 160.78C86.6301 160.49 85.9101 160.33 85.5701 160.29C85.1701 160.25 84.6401 160.55 83.9801 161.19C83.5001 160.73 83.1901 160.38 83.0301 160.15C82.8701 159.92 82.7001 159.53 82.5401 158.96L75.3901 158.09Z" fill="white"/>
</g>
<path fill-rule="evenodd" clip-rule="evenodd" d="M71.9702 158.72C71.9202 159.24 71.7502 159.73 71.4602 160.17C71.1702 160.61 70.6502 161.18 69.9102 161.86C70.9202 162.88 71.9202 163.85 72.9202 164.75C73.2302 165.03 73.8702 165.27 74.8602 165.46C74.9802 165.44 75.0701 165.4 75.1301 165.31C75.3401 165.03 75.2302 164.3 75.1402 163.96C75.0402 163.57 74.5702 163.18 73.7302 162.8C73.9902 162.19 74.2002 161.77 74.3602 161.54C74.5202 161.31 74.8302 161.01 75.3002 160.66L71.9702 158.72Z" fill="white"/>
<g filter="url(#filter15_i_215_736)">
<path fill-rule="evenodd" clip-rule="evenodd" d="M71.9702 158.72C71.9202 159.24 71.7502 159.73 71.4602 160.17C71.1702 160.61 70.6502 161.18 69.9102 161.86C70.9202 162.88 71.9202 163.85 72.9202 164.75C73.2302 165.03 73.8702 165.27 74.8602 165.46C74.9802 165.44 75.0701 165.4 75.1301 165.31C75.3401 165.03 75.2302 164.3 75.1402 163.96C75.0402 163.57 74.5702 163.18 73.7302 162.8C73.9902 162.19 74.2002 161.77 74.3602 161.54C74.5202 161.31 74.8302 161.01 75.3002 160.66L71.9702 158.72Z" fill="white"/>
</g>
<path fill-rule="evenodd" clip-rule="evenodd" d="M81.1403 144.92C84.1403 149.53 85.4403 152.83 85.0503 154.83C84.4603 157.83 81.5603 161.42 77.8303 161.42C76.7403 161.42 75.9703 161.28 75.4303 161.15C74.3403 160.88 73.8403 160.57 73.3503 160.21C73.0903 160.02 72.6503 159.67 72.4103 159.39C71.6003 158.47 70.2603 157.12 70.2603 154.73C70.2603 153.61 70.7902 152.48 71.8402 151.37C72.4802 150.44 72.9803 149.52 73.3503 148.62C73.7203 147.71 74.1403 146.42 74.6103 144.72L81.1403 144.92Z" fill="url(#paint20_radial_215_736)"/>
<path fill-rule="evenodd" clip-rule="evenodd" d="M81.1403 144.92C84.1403 149.53 85.4403 152.83 85.0503 154.83C84.4603 157.83 81.5603 161.42 77.8303 161.42C76.7403 161.42 75.9703 161.28 75.4303 161.15C74.3403 160.88 73.8403 160.57 73.3503 160.21C73.0903 160.02 72.6503 159.67 72.4103 159.39C71.6003 158.47 70.2603 157.12 70.2603 154.73C70.2603 153.61 70.7902 152.48 71.8402 151.37C72.4802 150.44 72.9803 149.52 73.3503 148.62C73.7203 147.71 74.1403 146.42 74.6103 144.72L81.1403 144.92Z" fill="white"/>
<g filter="url(#filter16_i_215_736)">
<path fill-rule="evenodd" clip-rule="evenodd" d="M81.1403 144.92C84.1403 149.53 85.4403 152.83 85.0503 154.83C84.4603 157.83 81.5603 161.42 77.8303 161.42C76.7403 161.42 75.9703 161.28 75.4303 161.15C74.3403 160.88 73.8403 160.57 73.3503 160.21C73.0903 160.02 72.6503 159.67 72.4103 159.39C71.6003 158.47 70.2603 157.12 70.2603 154.73C70.2603 153.61 70.7902 152.48 71.8402 151.37C72.4802 150.44 72.9803 149.52 73.3503 148.62C73.7203 147.71 74.1403 146.42 74.6103 144.72L81.1403 144.92Z" fill="white"/>
</g>
<path fill-rule="evenodd" clip-rule="evenodd" d="M83.7402 156.24C81.6102 156.46 80.5902 154.33 80.3702 151.5C80.1802 149.08 80.7902 146.97 81.9402 146.32C82.0402 146.26 83.4502 148.65 84.3902 150.89C84.8802 152.05 85.1302 153.21 85.1202 154.14C85.1102 155.07 84.8202 155.81 84.7202 155.94C84.6002 156.11 84.1202 156.2 83.7402 156.24Z" fill="url(#paint21_radial_215_736)"/>
<path fill-rule="evenodd" clip-rule="evenodd" d="M83.7402 156.24C81.6102 156.46 80.5902 154.33 80.3702 151.5C80.1802 149.08 80.7902 146.97 81.9402 146.32C82.0402 146.26 83.4502 148.65 84.3902 150.89C84.8802 152.05 85.1302 153.21 85.1202 154.14C85.1102 155.07 84.8202 155.81 84.7202 155.94C84.6002 156.11 84.1202 156.2 83.7402 156.24Z" fill="#E4E4E4"/>
<path fill-rule="evenodd" clip-rule="evenodd" d="M80.1104 150.89C83.3704 153.22 85.3204 153.44 86.0004 152.43C86.6904 151.42 85.3104 150.14 82.0904 147.96C78.8704 145.79 77.5904 146.76 77.4304 147C77.2704 147.24 76.8504 148.56 80.1104 150.89Z" fill="url(#paint22_radial_215_736)"/>
<path fill-rule="evenodd" clip-rule="evenodd" d="M80.1104 150.89C83.3704 153.22 85.3204 153.44 86.0004 152.43C86.6904 151.42 85.3104 150.14 82.0904 147.96C78.8704 145.79 77.5904 146.76 77.4304 147C77.2704 147.24 76.8504 148.56 80.1104 150.89Z" fill="white"/>
<g filter="url(#filter17_i_215_736)">
<path fill-rule="evenodd" clip-rule="evenodd" d="M80.1104 150.89C83.3704 153.22 85.3204 153.44 86.0004 152.43C86.6904 151.42 85.3104 150.14 82.0904 147.96C78.8704 145.79 77.5904 146.76 77.4304 147C77.2704 147.24 76.8504 148.56 80.1104 150.89Z" fill="white"/>
</g>
<path d="M82.9902 152.49C84.3902 153.09 85.5202 153.14 85.9802 152.47C86.5402 151.63 85.6502 150.78 84.7002 149.96L82.9902 152.49Z" fill="url(#paint23_linear_215_736)"/>
<path fill-rule="evenodd" clip-rule="evenodd" d="M81.4604 145.45C81.8404 145.99 82.0503 146.33 82.1003 146.46C81.9503 146.64 81.9004 146.81 81.4604 147.03C81.8103 147.89 82.0103 148.44 82.0603 148.66C82.1803 149.2 82.2604 149.83 82.2604 149.99C82.2604 150.17 81.7203 150.38 81.2803 150.45C80.8903 150.51 80.3104 150.43 80.2504 150.38C80.1904 150.32 80.1003 149.63 80.1003 148.94C80.1003 148.6 80.1504 148.08 80.2504 147.37C79.1604 147.66 78.1003 147.76 77.0603 147.68C75.3903 147.54 74.4804 146.96 74.1104 146.54C74.2104 146.12 74.2803 145.86 74.3103 145.76C74.3503 145.66 74.3804 145.54 74.4104 145.39C75.9004 145.58 77.0904 145.67 77.9704 145.67C78.8604 145.67 80.0203 145.6 81.4604 145.45Z" fill="url(#paint24_linear_215_736)"/>
<path fill-rule="evenodd" clip-rule="evenodd" d="M81.4604 145.45C81.8404 145.99 82.0503 146.33 82.1003 146.46C81.9503 146.64 81.9004 146.81 81.4604 147.03C81.8103 147.89 82.0103 148.44 82.0603 148.66C82.1803 149.2 82.2604 149.83 82.2604 149.99C82.2604 150.17 81.7203 150.38 81.2803 150.45C80.8903 150.51 80.3104 150.43 80.2504 150.38C80.1904 150.32 80.1003 149.63 80.1003 148.94C80.1003 148.6 80.1504 148.08 80.2504 147.37C79.1604 147.66 78.1003 147.76 77.0603 147.68C75.3903 147.54 74.4804 146.96 74.1104 146.54C74.2104 146.12 74.2803 145.86 74.3103 145.76C74.3503 145.66 74.3804 145.54 74.4104 145.39C75.9004 145.58 77.0904 145.67 77.9704 145.67C78.8604 145.67 80.0203 145.6 81.4604 145.45Z" fill="#FD5902"/>
<g filter="url(#filter18_ii_215_736)">
<path fill-rule="evenodd" clip-rule="evenodd" d="M81.4604 145.45C81.8404 145.99 82.0503 146.33 82.1003 146.46C81.9503 146.64 81.9004 146.81 81.4604 147.03C81.8103 147.89 82.0103 148.44 82.0603 148.66C82.1803 149.2 82.2604 149.83 82.2604 149.99C82.2604 150.17 81.7203 150.38 81.2803 150.45C80.8903 150.51 80.3104 150.43 80.2504 150.38C80.1904 150.32 80.1003 149.63 80.1003 148.94C80.1003 148.6 80.1504 148.08 80.2504 147.37C79.1604 147.66 78.1003 147.76 77.0603 147.68C75.3903 147.54 74.4804 146.96 74.1104 146.54C74.2104 146.12 74.2803 145.86 74.3103 145.76C74.3503 145.66 74.3804 145.54 74.4104 145.39C75.9004 145.58 77.0904 145.67 77.9704 145.67C78.8604 145.67 80.0203 145.6 81.4604 145.45Z" fill="white"/>
</g>
<path fill-rule="evenodd" clip-rule="evenodd" d="M74.2802 145.03C68.2102 143.18 60.6702 138.64 60.0002 133.08C59.5502 129.33 60.9202 127.23 62.3602 124.69C64.6102 120.72 68.3602 117.09 71.0802 115.12C73.7902 113.15 75.9702 112.22 81.7802 114C88.5402 116.06 89.7002 117.62 90.9902 121.21C92.2302 124.65 91.4302 129.89 92.8502 134.01C93.6802 136.41 94.2102 140.06 92.0002 142.87C88.3202 147.55 80.6002 146.97 74.2802 145.03Z" fill="url(#paint25_radial_215_736)"/>
<path fill-rule="evenodd" clip-rule="evenodd" d="M74.2802 145.03C68.2102 143.18 60.6702 138.64 60.0002 133.08C59.5502 129.33 60.9202 127.23 62.3602 124.69C64.6102 120.72 68.3602 117.09 71.0802 115.12C73.7902 113.15 75.9702 112.22 81.7802 114C88.5402 116.06 89.7002 117.62 90.9902 121.21C92.2302 124.65 91.4302 129.89 92.8502 134.01C93.6802 136.41 94.2102 140.06 92.0002 142.87C88.3202 147.55 80.6002 146.97 74.2802 145.03Z" fill="white"/>
<g filter="url(#filter19_ii_215_736)">
<path fill-rule="evenodd" clip-rule="evenodd" d="M74.2802 145.03C68.2102 143.18 60.6702 138.64 60.0002 133.08C59.5502 129.33 60.9202 127.23 62.3602 124.69C64.6102 120.72 68.3602 117.09 71.0802 115.12C73.7902 113.15 75.9702 112.22 81.7802 114C88.5402 116.06 89.7002 117.62 90.9902 121.21C92.2302 124.65 91.4302 129.89 92.8502 134.01C93.6802 136.41 94.2102 140.06 92.0002 142.87C88.3202 147.55 80.6002 146.97 74.2802 145.03Z" fill="white"/>
</g>
<path fill-rule="evenodd" clip-rule="evenodd" d="M80.4701 113.03C72.7701 119.39 70.3401 125.72 73.1801 132.03C75.0701 136.23 80.9101 140.8 87.9201 141.29C90.3701 141.46 92.4301 141.27 94.1101 140.72C94.2801 139.26 94.2701 138.25 94.1001 137.7C92.7501 133.45 92.9001 130.07 92.5601 127.64C92.2701 125.56 92.0601 124.2 91.3501 121.96C91.1901 121.46 90.7001 120.21 89.8701 118.19C88.5001 116.89 87.2901 115.98 86.2501 115.47C85.2201 114.96 83.2901 114.14 80.4701 113.03Z" fill="url(#paint26_radial_215_736)"/>
<path fill-rule="evenodd" clip-rule="evenodd" d="M80.4701 113.03C72.7701 119.39 70.3401 125.72 73.1801 132.03C75.0701 136.23 80.9101 140.8 87.9201 141.29C90.3701 141.46 92.4301 141.27 94.1101 140.72C94.2801 139.26 94.2701 138.25 94.1001 137.7C92.7501 133.45 92.9001 130.07 92.5601 127.64C92.2701 125.56 92.0601 124.2 91.3501 121.96C91.1901 121.46 90.7001 120.21 89.8701 118.19C88.5001 116.89 87.2901 115.98 86.2501 115.47C85.2201 114.96 83.2901 114.14 80.4701 113.03Z" fill="black"/>
<g filter="url(#filter20_i_215_736)">
<path fill-rule="evenodd" clip-rule="evenodd" d="M80.4701 113.03C72.7701 119.39 70.3401 125.72 73.1801 132.03C75.0701 136.23 80.9101 140.8 87.9201 141.29C90.3701 141.46 92.4301 141.27 94.1101 140.72C94.2801 139.26 94.2701 138.25 94.1001 137.7C92.7501 133.45 92.9001 130.07 92.5601 127.64C92.2701 125.56 92.0601 124.2 91.3501 121.96C91.1901 121.46 90.7001 120.21 89.8701 118.19C88.5001 116.89 87.2901 115.98 86.2501 115.47C85.2201 114.96 83.2901 114.14 80.4701 113.03Z" fill="black"/>
</g>
<path fill-rule="evenodd" clip-rule="evenodd" d="M82.5504 147.28C76.0704 147.28 70.8504 146.29 70.8904 143.48C70.9204 140.67 76.0704 138.6 82.5404 138.6C89.0204 138.61 94.2704 140.55 94.2704 142.95C94.2704 145.34 89.0204 147.28 82.5504 147.28Z" fill="url(#paint27_radial_215_736)"/>
<path fill-rule="evenodd" clip-rule="evenodd" d="M82.5504 147.28C76.0704 147.28 70.8504 146.29 70.8904 143.48C70.9204 140.67 76.0704 138.6 82.5404 138.6C89.0204 138.61 94.2704 140.55 94.2704 142.95C94.2704 145.34 89.0204 147.28 82.5504 147.28Z" fill="#E4E4E4"/>
<g filter="url(#filter21_i_215_736)">
<path fill-rule="evenodd" clip-rule="evenodd" d="M82.5504 147.28C76.0704 147.28 70.8504 146.29 70.8904 143.48C70.9204 140.67 76.0704 138.6 82.5404 138.6C89.0204 138.61 94.2704 140.55 94.2704 142.95C94.2704 145.34 89.0204 147.28 82.5504 147.28Z" fill="white"/>
</g>
<path fill-rule="evenodd" clip-rule="evenodd" d="M75.5203 138.55C74.9903 140.29 75.9703 142.14 77.7103 142.67C79.4503 143.2 81.3003 142.22 81.8303 140.48C82.3603 138.74 81.3803 136.89 79.6403 136.36C77.9003 135.83 76.0503 136.81 75.5203 138.55Z" fill="#FF5151"/>
<path d="M89.6502 136.79C87.5702 139.07 83.7402 138.19 82.1102 136.86C79.4702 134.72 79.1102 131.29 80.8402 128.93C82.5802 126.57 86.1902 125.8 88.8302 127.97C91.2802 129.99 91.8302 134.4 89.6502 136.79Z" fill="white"/>
<path d="M90.29 133.81C89.69 136.38 87.15 137.99 84.6 137.4C82.06 136.81 80.47 134.25 81.07 131.68C81.66 129.11 84.2 127.5 86.75 128.09C89.3 128.68 90.88 131.24 90.29 133.81Z" fill="url(#paint28_radial_215_736)" stroke="#2C1F1B" stroke-width="0.5"/>
<path d="M89.6 133.7C89.12 135.82 87 137.15 84.88 136.66C82.75 136.17 81.43 134.05 81.92 131.93C82.41 129.81 84.53 128.49 86.65 128.98C88.77 129.47 90.09 131.58 89.6 133.7Z" fill="#301911"/>
<path d="M87.58 133.29C87.34 134.32 86.33 134.97 85.32 134.74C84.31 134.5 83.69 133.48 83.93 132.44C84.16 131.41 85.17 130.76 86.18 130.99C87.19 131.23 87.81 132.25 87.58 133.29Z" fill="white"/>
<path d="M85.3601 129.54C85.7801 130.05 85.5901 130.9 84.9501 131.44C84.3001 131.98 83.4301 132 83.0101 131.49C82.5901 130.99 82.7701 130.14 83.4201 129.6C84.0701 129.06 84.9301 129.03 85.3601 129.54Z" fill="white"/>
<path d="M82.9701 130.84C83.4301 131.15 83.5501 131.77 83.2501 132.23C82.9401 132.69 82.3201 132.82 81.8601 132.51C81.4001 132.21 81.2801 131.59 81.5801 131.13C81.8901 130.67 82.5101 130.54 82.9701 130.84Z" fill="white"/>
<path d="M89.9801 145.91C89.0301 146.48 88.0601 146.42 87.0501 145.74C86.0401 145.06 85.6301 144.18 85.8401 143.12" stroke="#301911" stroke-linecap="round"/>
<path fill-rule="evenodd" clip-rule="evenodd" d="M80.3301 119.76C78.9301 122.01 76.9701 122.16 74.9401 123.27C74.3701 123.59 73.6901 124.04 73.3801 123.85C73.1301 123.69 73.2301 122.88 73.3001 122.25C73.3801 121.52 73.4601 120.56 73.2301 119.39C73.0101 118.24 72.6201 117.16 73.5501 115.68C74.1801 114.67 76.4801 113.83 78.2301 114.92C80.5401 116.37 81.2201 118.34 80.3301 119.76Z" fill="url(#paint29_radial_215_736)"/>
<path fill-rule="evenodd" clip-rule="evenodd" d="M80.3301 119.76C78.9301 122.01 76.9701 122.16 74.9401 123.27C74.3701 123.59 73.6901 124.04 73.3801 123.85C73.1301 123.69 73.2301 122.88 73.3001 122.25C73.3801 121.52 73.4601 120.56 73.2301 119.39C73.0101 118.24 72.6201 117.16 73.5501 115.68C74.1801 114.67 76.4801 113.83 78.2301 114.92C80.5401 116.37 81.2201 118.34 80.3301 119.76Z" fill="white"/>
<g filter="url(#filter22_i_215_736)">
<path fill-rule="evenodd" clip-rule="evenodd" d="M80.3301 119.76C78.9301 122.01 76.9701 122.16 74.9401 123.27C74.3701 123.59 73.6901 124.04 73.3801 123.85C73.1301 123.69 73.2301 122.88 73.3001 122.25C73.3801 121.52 73.4601 120.56 73.2301 119.39C73.0101 118.24 72.6201 117.16 73.5501 115.68C74.1801 114.67 76.4801 113.83 78.2301 114.92C80.5401 116.37 81.2201 118.34 80.3301 119.76Z" fill="white"/>
</g>
<path d="M81.9499 115.42C81.8899 115.54 80.6299 115.33 79.5599 114.84C78.4599 114.33 77.5399 113.55 77.5999 113.42C77.6599 112.96 80.9999 108.97 82.1499 109.53C83.2999 110.09 82.2699 114.76 81.9499 115.42Z" fill="url(#paint30_linear_215_736)"/>
<g filter="url(#filter23_i_215_736)">
<path d="M81.9499 115.42C81.8899 115.54 80.6299 115.33 79.5599 114.84C78.4599 114.33 77.5399 113.55 77.5999 113.42C77.6599 112.96 80.9999 108.97 82.1499 109.53C83.2999 110.09 82.2699 114.76 81.9499 115.42Z" fill="white"/>
</g>
<path d="M66.7303 156.59C66.4103 156.62 65.9403 156.48 65.7503 156.24C65.6203 156.08 65.4603 155.93 65.2903 155.83C65.1203 155.72 64.9703 155.72 64.8403 155.83C64.8403 155.18 65.6303 154.59 66.4803 154.59C67.3403 154.59 67.5803 155.31 67.5803 155.69C67.5803 156.07 67.2803 156.52 66.7303 156.59Z" fill="url(#paint31_linear_215_736)"/>
<path fill-rule="evenodd" clip-rule="evenodd" d="M70.2402 155.85C70.2602 156.03 70.2802 156.16 70.3002 156.26C70.3202 156.35 70.3602 156.48 70.4402 156.67C70.1302 157.04 69.6802 157.13 69.1002 156.94C68.6602 156.79 68.3002 156.23 67.7102 155.72C67.5802 155.61 67.3302 155.5 66.9502 155.37C67.2502 155.27 67.5102 155.27 67.7102 155.37C68.2702 155.67 68.5802 156.08 68.9102 156.13C69.4302 156.22 69.8802 156.12 70.2402 155.85Z" fill="url(#paint32_radial_215_736)"/>
<g filter="url(#filter24_i_215_736)">
<path fill-rule="evenodd" clip-rule="evenodd" d="M70.2402 155.85C70.2602 156.03 70.2802 156.16 70.3002 156.26C70.3202 156.35 70.3602 156.48 70.4402 156.67C70.1302 157.04 69.6802 157.13 69.1002 156.94C68.6602 156.79 68.3002 156.23 67.7102 155.72C67.5802 155.61 67.3302 155.5 66.9502 155.37C67.2502 155.27 67.5102 155.27 67.7102 155.37C68.2702 155.67 68.5802 156.08 68.9102 156.13C69.4302 156.22 69.8802 156.12 70.2402 155.85Z" fill="white"/>
</g>
</g>
<defs>
<filter id="filter0_f_215_736" x="-9.24023" y="-10" width="239.24" height="240.76" filterUnits="userSpaceOnUse" color-interpolation-filters="sRGB">
<feFlood flood-opacity="0" result="BackgroundImageFix"/>
<feBlend mode="normal" in="SourceGraphic" in2="BackgroundImageFix" result="shape"/>
<feGaussianBlur stdDeviation="24" result="effect1_foregroundBlur_215_736"/>
</filter>
<filter id="filter1_i_215_736" x="46.3398" y="59.74" width="25.77" height="15.3999" filterUnits="userSpaceOnUse" color-interpolation-filters="sRGB">
<feFlood flood-opacity="0" result="BackgroundImageFix"/>
<feBlend mode="normal" in="SourceGraphic" in2="BackgroundImageFix" result="shape"/>
<feColorMatrix in="SourceAlpha" type="matrix" values="0 0 0 0 0 0 0 0 0 0 0 0 0 0 0 0 0 0 127 0" result="hardAlpha"/>
<feOffset dy="-1"/>
<feGaussianBlur stdDeviation="2"/>
<feComposite in2="hardAlpha" operator="arithmetic" k2="-1" k3="1"/>
<feColorMatrix type="matrix" values="0 0 0 0 1 0 0 0 0 0.896904 0 0 0 0 0.792752 0 0 0 1 0"/>
<feBlend mode="normal" in2="shape" result="effect1_innerShadow_215_736"/>
</filter>
<filter id="filter2_i_215_736" x="143.35" y="89.29" width="24.25" height="15.3999" filterUnits="userSpaceOnUse" color-interpolation-filters="sRGB">
<feFlood flood-opacity="0" result="BackgroundImageFix"/>
<feBlend mode="normal" in="SourceGraphic" in2="BackgroundImageFix" result="shape"/>
<feColorMatrix in="SourceAlpha" type="matrix" values="0 0 0 0 0 0 0 0 0 0 0 0 0 0 0 0 0 0 127 0" result="hardAlpha"/>
<feOffset dy="-1"/>
<feGaussianBlur stdDeviation="2"/>
<feComposite in2="hardAlpha" operator="arithmetic" k2="-1" k3="1"/>
<feColorMatrix type="matrix" values="0 0 0 0 1 0 0 0 0 0.896904 0 0 0 0 0.792752 0 0 0 1 0"/>
<feBlend mode="normal" in2="shape" result="effect1_innerShadow_215_736"/>
</filter>
<filter id="filter3_f_215_736" x="45.3599" y="151.53" width="37.04" height="3.80005" filterUnits="userSpaceOnUse" color-interpolation-filters="sRGB">
<feFlood flood-opacity="0" result="BackgroundImageFix"/>
<feBlend mode="normal" in="SourceGraphic" in2="BackgroundImageFix" result="shape"/>
<feGaussianBlur stdDeviation="0.5" result="effect1_foregroundBlur_215_736"/>
</filter>
<filter id="filter4_f_215_736" x="140.24" y="134.94" width="13.6099" height="3.11011" filterUnits="userSpaceOnUse" color-interpolation-filters="sRGB">
<feFlood flood-opacity="0" result="BackgroundImageFix"/>
<feBlend mode="normal" in="SourceGraphic" in2="BackgroundImageFix" result="shape"/>
<feGaussianBlur stdDeviation="0.5" result="effect1_foregroundBlur_215_736"/>
</filter>
<filter id="filter5_f_215_736" x="155.15" y="157.6" width="20.48" height="3.79004" filterUnits="userSpaceOnUse" color-interpolation-filters="sRGB">
<feFlood flood-opacity="0" result="BackgroundImageFix"/>
<feBlend mode="normal" in="SourceGraphic" in2="BackgroundImageFix" result="shape"/>
<feGaussianBlur stdDeviation="0.5" result="effect1_foregroundBlur_215_736"/>
</filter>
<filter id="filter6_i_215_736" x="97.1201" y="67.5601" width="23.3799" height="11.3701" filterUnits="userSpaceOnUse" color-interpolation-filters="sRGB">
<feFlood flood-opacity="0" result="BackgroundImageFix"/>
<feBlend mode="normal" in="SourceGraphic" in2="BackgroundImageFix" result="shape"/>
<feColorMatrix in="SourceAlpha" type="matrix" values="0 0 0 0 0 0 0 0 0 0 0 0 0 0 0 0 0 0 127 0" result="hardAlpha"/>
<feOffset/>
<feGaussianBlur stdDeviation="2"/>
<feComposite in2="hardAlpha" operator="arithmetic" k2="-1" k3="1"/>
<feColorMatrix type="matrix" values="0 0 0 0 0.657665 0 0 0 0 0.368989 0 0 0 0 0.0622702 0 0 0 1 0"/>
<feBlend mode="normal" in2="shape" result="effect1_innerShadow_215_736"/>
</filter>
<filter id="filter7_d_215_736" x="75.4102" y="72.47" width="61.3198" height="81.3699" filterUnits="userSpaceOnUse" color-interpolation-filters="sRGB">
<feFlood flood-opacity="0" result="BackgroundImageFix"/>
<feColorMatrix in="SourceAlpha" type="matrix" values="0 0 0 0 0 0 0 0 0 0 0 0 0 0 0 0 0 0 127 0" result="hardAlpha"/>
<feOffset dx="2" dy="2"/>
<feGaussianBlur stdDeviation="2"/>
<feColorMatrix type="matrix" values="0 0 0 0 0.937755 0 0 0 0 0.482733 0 0 0 0 0 0 0 0 1 0"/>
<feBlend mode="normal" in2="BackgroundImageFix" result="effect1_dropShadow_215_736"/>
<feBlend mode="normal" in="SourceGraphic" in2="effect1_dropShadow_215_736" result="shape"/>
</filter>
<filter id="filter8_i_215_736" x="81.2002" y="79.02" width="46.4702" height="63.79" filterUnits="userSpaceOnUse" color-interpolation-filters="sRGB">
<feFlood flood-opacity="0" result="BackgroundImageFix"/>
<feBlend mode="normal" in="SourceGraphic" in2="BackgroundImageFix" result="shape"/>
<feColorMatrix in="SourceAlpha" type="matrix" values="0 0 0 0 0 0 0 0 0 0 0 0 0 0 0 0 0 0 127 0" result="hardAlpha"/>
<feOffset dx="1" dy="1"/>
<feGaussianBlur stdDeviation="1.5"/>
<feComposite in2="hardAlpha" operator="arithmetic" k2="-1" k3="1"/>
<feColorMatrix type="matrix" values="0 0 0 0 0.870273 0 0 0 0 0.657921 0 0 0 0 0.443395 0 0 0 1 0"/>
<feBlend mode="normal" in2="shape" result="effect1_innerShadow_215_736"/>
</filter>
<filter id="filter9_i_215_736" x="91.5" y="67.5601" width="23.3799" height="12.1201" filterUnits="userSpaceOnUse" color-interpolation-filters="sRGB">
<feFlood flood-opacity="0" result="BackgroundImageFix"/>
<feBlend mode="normal" in="SourceGraphic" in2="BackgroundImageFix" result="shape"/>
<feColorMatrix in="SourceAlpha" type="matrix" values="0 0 0 0 0 0 0 0 0 0 0 0 0 0 0 0 0 0 127 0" result="hardAlpha"/>
<feOffset/>
<feGaussianBlur stdDeviation="2"/>
<feComposite in2="hardAlpha" operator="arithmetic" k2="-1" k3="1"/>
<feColorMatrix type="matrix" values="0 0 0 0 0.657665 0 0 0 0 0.368989 0 0 0 0 0.0622702 0 0 0 1 0"/>
<feBlend mode="normal" in2="shape" result="effect1_innerShadow_215_736"/>
</filter>
<filter id="filter10_d_215_736" x="92.9355" y="131.159" width="20.769" height="20.9116" filterUnits="userSpaceOnUse" color-interpolation-filters="sRGB">
<feFlood flood-opacity="0" result="BackgroundImageFix"/>
<feColorMatrix in="SourceAlpha" type="matrix" values="0 0 0 0 0 0 0 0 0 0 0 0 0 0 0 0 0 0 127 0" result="hardAlpha"/>
<feOffset dx="1" dy="0.5"/>
<feColorMatrix type="matrix" values="0 0 0 0 0.8 0 0 0 0 0.47451 0 0 0 0 0.129412 0 0 0 1 0"/>
<feBlend mode="normal" in2="BackgroundImageFix" result="effect1_dropShadow_215_736"/>
<feBlend mode="normal" in="SourceGraphic" in2="effect1_dropShadow_215_736" result="shape"/>
</filter>
<filter id="filter11_i_215_736" x="96.0884" y="135.032" width="13.9434" height="13.5952" filterUnits="userSpaceOnUse" color-interpolation-filters="sRGB">
<feFlood flood-opacity="0" result="BackgroundImageFix"/>
<feBlend mode="normal" in="SourceGraphic" in2="BackgroundImageFix" result="shape"/>
<feColorMatrix in="SourceAlpha" type="matrix" values="0 0 0 0 0 0 0 0 0 0 0 0 0 0 0 0 0 0 127 0" result="hardAlpha"/>
<feOffset dx="1"/>
<feGaussianBlur stdDeviation="1"/>
<feComposite in2="hardAlpha" operator="arithmetic" k2="-1" k3="1"/>
<feColorMatrix type="matrix" values="0 0 0 0 0.8 0 0 0 0 0.47451 0 0 0 0 0.129412 0 0 0 1 0"/>
<feBlend mode="normal" in2="shape" result="effect1_innerShadow_215_736"/>
</filter>
<filter id="filter12_d_215_736" x="92.5698" y="91.8999" width="23.2202" height="36.8601" filterUnits="userSpaceOnUse" color-interpolation-filters="sRGB">
<feFlood flood-opacity="0" result="BackgroundImageFix"/>
<feColorMatrix in="SourceAlpha" type="matrix" values="0 0 0 0 0 0 0 0 0 0 0 0 0 0 0 0 0 0 127 0" result="hardAlpha"/>
<feOffset dx="1" dy="1"/>
<feGaussianBlur stdDeviation="0.5"/>
<feColorMatrix type="matrix" values="0 0 0 0 0.851761 0 0 0 0 0.565202 0 0 0 0 0.0818489 0 0 0 0.557638 0"/>
<feBlend mode="normal" in2="BackgroundImageFix" result="effect1_dropShadow_215_736"/>
<feBlend mode="normal" in="SourceGraphic" in2="effect1_dropShadow_215_736" result="shape"/>
</filter>
<filter id="filter13_i_215_736" x="92.5698" y="91.8999" width="21.2202" height="35.8601" filterUnits="userSpaceOnUse" color-interpolation-filters="sRGB">
<feFlood flood-opacity="0" result="BackgroundImageFix"/>
<feBlend mode="normal" in="SourceGraphic" in2="BackgroundImageFix" result="shape"/>
<feColorMatrix in="SourceAlpha" type="matrix" values="0 0 0 0 0 0 0 0 0 0 0 0 0 0 0 0 0 0 127 0" result="hardAlpha"/>
<feOffset dy="1"/>
<feGaussianBlur stdDeviation="0.5"/>
<feComposite in2="hardAlpha" operator="arithmetic" k2="-1" k3="1"/>
<feColorMatrix type="matrix" values="0 0 0 0 1 0 0 0 0 0.853684 0 0 0 0 0.705869 0 0 0 1 0"/>
<feBlend mode="normal" in2="shape" result="effect1_innerShadow_215_736"/>
</filter>
<filter id="filter14_i_215_736" x="75.3901" y="156.09" width="14.4863" height="8.33008" filterUnits="userSpaceOnUse" color-interpolation-filters="sRGB">
<feFlood flood-opacity="0" result="BackgroundImageFix"/>
<feBlend mode="normal" in="SourceGraphic" in2="BackgroundImageFix" result="shape"/>
<feColorMatrix in="SourceAlpha" type="matrix" values="0 0 0 0 0 0 0 0 0 0 0 0 0 0 0 0 0 0 127 0" result="hardAlpha"/>
<feOffset dx="3" dy="-2"/>
<feGaussianBlur stdDeviation="2.5"/>
<feComposite in2="hardAlpha" operator="arithmetic" k2="-1" k3="1"/>
<feColorMatrix type="matrix" values="0 0 0 0 0.427112 0 0 0 0 0.427112 0 0 0 0 0.427112 0 0 0 0.205119 0"/>
<feBlend mode="normal" in2="shape" result="effect1_innerShadow_215_736"/>
</filter>
<filter id="filter15_i_215_736" x="69.9102" y="156.72" width="8.39014" height="8.73999" filterUnits="userSpaceOnUse" color-interpolation-filters="sRGB">
<feFlood flood-opacity="0" result="BackgroundImageFix"/>
<feBlend mode="normal" in="SourceGraphic" in2="BackgroundImageFix" result="shape"/>
<feColorMatrix in="SourceAlpha" type="matrix" values="0 0 0 0 0 0 0 0 0 0 0 0 0 0 0 0 0 0 127 0" result="hardAlpha"/>
<feOffset dx="3" dy="-2"/>
<feGaussianBlur stdDeviation="2.5"/>
<feComposite in2="hardAlpha" operator="arithmetic" k2="-1" k3="1"/>
<feColorMatrix type="matrix" values="0 0 0 0 0.427112 0 0 0 0 0.427112 0 0 0 0 0.427112 0 0 0 0.205119 0"/>
<feBlend mode="normal" in2="shape" result="effect1_innerShadow_215_736"/>
</filter>
<filter id="filter16_i_215_736" x="70.2603" y="144.72" width="14.8574" height="17.7" filterUnits="userSpaceOnUse" color-interpolation-filters="sRGB">
<feFlood flood-opacity="0" result="BackgroundImageFix"/>
<feBlend mode="normal" in="SourceGraphic" in2="BackgroundImageFix" result="shape"/>
<feColorMatrix in="SourceAlpha" type="matrix" values="0 0 0 0 0 0 0 0 0 0 0 0 0 0 0 0 0 0 127 0" result="hardAlpha"/>
<feOffset dy="1"/>
<feGaussianBlur stdDeviation="3"/>
<feComposite in2="hardAlpha" operator="arithmetic" k2="-1" k3="1"/>
<feColorMatrix type="matrix" values="0 0 0 0 0.629699 0 0 0 0 0.629699 0 0 0 0 0.629699 0 0 0 0.5 0"/>
<feBlend mode="normal" in2="shape" result="effect1_innerShadow_215_736"/>
</filter>
<filter id="filter17_i_215_736" x="77.3213" y="146.576" width="8.85254" height="7.42529" filterUnits="userSpaceOnUse" color-interpolation-filters="sRGB">
<feFlood flood-opacity="0" result="BackgroundImageFix"/>
<feBlend mode="normal" in="SourceGraphic" in2="BackgroundImageFix" result="shape"/>
<feColorMatrix in="SourceAlpha" type="matrix" values="0 0 0 0 0 0 0 0 0 0 0 0 0 0 0 0 0 0 127 0" result="hardAlpha"/>
<feOffset dy="1"/>
<feGaussianBlur stdDeviation="1"/>
<feComposite in2="hardAlpha" operator="arithmetic" k2="-1" k3="1"/>
<feColorMatrix type="matrix" values="0 0 0 0 0.629699 0 0 0 0 0.629699 0 0 0 0 0.629699 0 0 0 0.5 0"/>
<feBlend mode="normal" in2="shape" result="effect1_innerShadow_215_736"/>
</filter>
<filter id="filter18_ii_215_736" x="72.1104" y="145.39" width="12.1499" height="5.0813" filterUnits="userSpaceOnUse" color-interpolation-filters="sRGB">
<feFlood flood-opacity="0" result="BackgroundImageFix"/>
<feBlend mode="normal" in="SourceGraphic" in2="BackgroundImageFix" result="shape"/>
<feColorMatrix in="SourceAlpha" type="matrix" values="0 0 0 0 0 0 0 0 0 0 0 0 0 0 0 0 0 0 127 0" result="hardAlpha"/>
<feOffset dx="2"/>
<feGaussianBlur stdDeviation="1.5"/>
<feComposite in2="hardAlpha" operator="arithmetic" k2="-1" k3="1"/>
<feColorMatrix type="matrix" values="0 0 0 0 0.81768 0 0 0 0 0.283419 0 0 0 0 0 0 0 0 0.625874 0"/>
<feBlend mode="normal" in2="shape" result="effect1_innerShadow_215_736"/>
<feColorMatrix in="SourceAlpha" type="matrix" values="0 0 0 0 0 0 0 0 0 0 0 0 0 0 0 0 0 0 127 0" result="hardAlpha"/>
<feOffset dx="-2"/>
<feGaussianBlur stdDeviation="1.5"/>
<feComposite in2="hardAlpha" operator="arithmetic" k2="-1" k3="1"/>
<feColorMatrix type="matrix" values="0 0 0 0 0.883379 0 0 0 0 0.306191 0 0 0 0 0 0 0 0 0.733173 0"/>
<feBlend mode="normal" in2="effect1_innerShadow_215_736" result="effect2_innerShadow_215_736"/>
</filter>
<filter id="filter19_ii_215_736" x="59.9131" y="113.053" width="33.6553" height="34.416" filterUnits="userSpaceOnUse" color-interpolation-filters="sRGB">
<feFlood flood-opacity="0" result="BackgroundImageFix"/>
<feBlend mode="normal" in="SourceGraphic" in2="BackgroundImageFix" result="shape"/>
<feColorMatrix in="SourceAlpha" type="matrix" values="0 0 0 0 0 0 0 0 0 0 0 0 0 0 0 0 0 0 127 0" result="hardAlpha"/>
<feOffset dy="1"/>
<feGaussianBlur stdDeviation="3"/>
<feComposite in2="hardAlpha" operator="arithmetic" k2="-1" k3="1"/>
<feColorMatrix type="matrix" values="0 0 0 0 0.629699 0 0 0 0 0.629699 0 0 0 0 0.629699 0 0 0 0.5 0"/>
<feBlend mode="normal" in2="shape" result="effect1_innerShadow_215_736"/>
<feColorMatrix in="SourceAlpha" type="matrix" values="0 0 0 0 0 0 0 0 0 0 0 0 0 0 0 0 0 0 127 0" result="hardAlpha"/>
<feOffset dy="1"/>
<feGaussianBlur stdDeviation="1.5"/>
<feComposite in2="hardAlpha" operator="arithmetic" k2="-1" k3="1"/>
<feColorMatrix type="matrix" values="0 0 0 0 1 0 0 0 0 1 0 0 0 0 1 0 0 0 0.5 0"/>
<feBlend mode="normal" in2="effect1_innerShadow_215_736" result="effect2_innerShadow_215_736"/>
</filter>
<filter id="filter20_i_215_736" x="71.0322" y="113.03" width="23.2007" height="28.3203" filterUnits="userSpaceOnUse" color-interpolation-filters="sRGB">
<feFlood flood-opacity="0" result="BackgroundImageFix"/>
<feBlend mode="normal" in="SourceGraphic" in2="BackgroundImageFix" result="shape"/>
<feColorMatrix in="SourceAlpha" type="matrix" values="0 0 0 0 0 0 0 0 0 0 0 0 0 0 0 0 0 0 127 0" result="hardAlpha"/>
<feOffset dx="-1"/>
<feGaussianBlur stdDeviation="2"/>
<feComposite in2="hardAlpha" operator="arithmetic" k2="-1" k3="1"/>
<feColorMatrix type="matrix" values="0 0 0 0 1 0 0 0 0 1 0 0 0 0 1 0 0 0 0.495465 0"/>
<feBlend mode="normal" in2="shape" result="effect1_innerShadow_215_736"/>
</filter>
<filter id="filter21_i_215_736" x="70.8901" y="138.6" width="23.3804" height="9.67993" filterUnits="userSpaceOnUse" color-interpolation-filters="sRGB">
<feFlood flood-opacity="0" result="BackgroundImageFix"/>
<feBlend mode="normal" in="SourceGraphic" in2="BackgroundImageFix" result="shape"/>
<feColorMatrix in="SourceAlpha" type="matrix" values="0 0 0 0 0 0 0 0 0 0 0 0 0 0 0 0 0 0 127 0" result="hardAlpha"/>
<feOffset dy="1"/>
<feGaussianBlur stdDeviation="2.5"/>
<feComposite in2="hardAlpha" operator="arithmetic" k2="-1" k3="1"/>
<feColorMatrix type="matrix" values="0 0 0 0 1 0 0 0 0 1 0 0 0 0 1 0 0 0 0.5 0"/>
<feBlend mode="normal" in2="shape" result="effect1_innerShadow_215_736"/>
</filter>
<filter id="filter22_i_215_736" x="72.9585" y="114.408" width="7.74854" height="10.4871" filterUnits="userSpaceOnUse" color-interpolation-filters="sRGB">
<feFlood flood-opacity="0" result="BackgroundImageFix"/>
<feBlend mode="normal" in="SourceGraphic" in2="BackgroundImageFix" result="shape"/>
<feColorMatrix in="SourceAlpha" type="matrix" values="0 0 0 0 0 0 0 0 0 0 0 0 0 0 0 0 0 0 127 0" result="hardAlpha"/>
<feOffset dy="1"/>
<feGaussianBlur stdDeviation="3"/>
<feComposite in2="hardAlpha" operator="arithmetic" k2="-1" k3="1"/>
<feColorMatrix type="matrix" values="0 0 0 0 0.550074 0 0 0 0 0.550074 0 0 0 0 0.550074 0 0 0 0.5 0"/>
<feBlend mode="normal" in2="shape" result="effect1_innerShadow_215_736"/>
</filter>
<filter id="filter23_i_215_736" x="77.5972" y="109.476" width="5.0835" height="6.97681" filterUnits="userSpaceOnUse" color-interpolation-filters="sRGB">
<feFlood flood-opacity="0" result="BackgroundImageFix"/>
<feBlend mode="normal" in="SourceGraphic" in2="BackgroundImageFix" result="shape"/>
<feColorMatrix in="SourceAlpha" type="matrix" values="0 0 0 0 0 0 0 0 0 0 0 0 0 0 0 0 0 0 127 0" result="hardAlpha"/>
<feOffset dy="1"/>
<feGaussianBlur stdDeviation="2"/>
<feComposite in2="hardAlpha" operator="arithmetic" k2="-1" k3="1"/>
<feColorMatrix type="matrix" values="0 0 0 0 0.258294 0 0 0 0 0.135666 0 0 0 0 0.0379615 0 0 0 1 0"/>
<feBlend mode="normal" in2="shape" result="effect1_innerShadow_215_736"/>
</filter>
<filter id="filter24_i_215_736" x="66.9502" y="155.295" width="3.49023" height="2.7417" filterUnits="userSpaceOnUse" color-interpolation-filters="sRGB">
<feFlood flood-opacity="0" result="BackgroundImageFix"/>
<feBlend mode="normal" in="SourceGraphic" in2="BackgroundImageFix" result="shape"/>
<feColorMatrix in="SourceAlpha" type="matrix" values="0 0 0 0 0 0 0 0 0 0 0 0 0 0 0 0 0 0 127 0" result="hardAlpha"/>
<feOffset dy="1"/>
<feGaussianBlur stdDeviation="3"/>
<feComposite in2="hardAlpha" operator="arithmetic" k2="-1" k3="1"/>
<feColorMatrix type="matrix" values="0 0 0 0 0.629699 0 0 0 0 0.629699 0 0 0 0 0.629699 0 0 0 0.5 0"/>
<feBlend mode="normal" in2="shape" result="effect1_innerShadow_215_736"/>
</filter>
<radialGradient id="paint0_radial_215_736" cx="0" cy="0" r="1" gradientUnits="userSpaceOnUse" gradientTransform="translate(110.38 114.922) scale(113.776 114.983)">
<stop stop-color="#FFDFAE"/>
<stop offset="1" stop-color="#FFE389"/>
</radialGradient>
<linearGradient id="paint1_linear_215_736" x1="82.7167" y1="158.271" x2="82.7167" y2="16.7198" gradientUnits="userSpaceOnUse">
<stop stop-color="#FFEDD9" stop-opacity="0"/>
<stop offset="0.346856" stop-color="#FCDF97" stop-opacity="0.682037"/>
<stop offset="1" stop-color="#FFC489"/>
</linearGradient>
<linearGradient id="paint2_linear_215_736" x1="136.144" y1="166.11" x2="136.144" y2="30.1626" gradientUnits="userSpaceOnUse">
<stop stop-color="#FFEDD9" stop-opacity="0"/>
<stop offset="0.346856" stop-color="#FCDF97" stop-opacity="0.682037"/>
<stop offset="1" stop-color="#FFC489"/>
</linearGradient>
<linearGradient id="paint3_linear_215_736" x1="109.24" y1="122.686" x2="109.24" y2="177.23" gradientUnits="userSpaceOnUse">
<stop stop-color="#FFF4E7" stop-opacity="0"/>
<stop offset="1" stop-color="#E7A25D"/>
</linearGradient>
<linearGradient id="paint4_linear_215_736" x1="46.3959" y1="147.678" x2="48.5187" y2="147.678" gradientUnits="userSpaceOnUse">
<stop stop-color="#E8DFDB"/>
<stop offset="1" stop-color="#CCB9B5"/>
</linearGradient>
<linearGradient id="paint5_linear_215_736" x1="81.3999" y1="152.53" x2="81.3999" y2="154.709" gradientUnits="userSpaceOnUse">
<stop stop-color="#E8E2DB" stop-opacity="0.457332"/>
<stop offset="1" stop-color="#CCC3B5"/>
</linearGradient>
<linearGradient id="paint6_linear_215_736" x1="138.575" y1="135.225" x2="135.966" y2="141.188" gradientUnits="userSpaceOnUse">
<stop stop-color="#FFB400" stop-opacity="0"/>
<stop offset="1" stop-color="#D04800" stop-opacity="0.423541"/>
</linearGradient>
<linearGradient id="paint7_linear_215_736" x1="140.788" y1="133.321" x2="142.859" y2="133.321" gradientUnits="userSpaceOnUse">
<stop stop-color="#E8DFDB"/>
<stop offset="1" stop-color="#CCB9B5"/>
</linearGradient>
<linearGradient id="paint8_linear_215_736" x1="152.85" y1="135.94" x2="152.85" y2="137.284" gradientUnits="userSpaceOnUse">
<stop stop-color="#E8E2DB" stop-opacity="0.457332"/>
<stop offset="1" stop-color="#CCC3B5"/>
</linearGradient>
<linearGradient id="paint9_linear_215_736" x1="156.182" y1="153.738" x2="158.279" y2="153.738" gradientUnits="userSpaceOnUse">
<stop stop-color="#E8DFDB"/>
<stop offset="1" stop-color="#CCB9B5"/>
</linearGradient>
<linearGradient id="paint10_linear_215_736" x1="174.63" y1="158.6" x2="174.63" y2="160.767" gradientUnits="userSpaceOnUse">
<stop stop-color="#E8E2DB" stop-opacity="0.457332"/>
<stop offset="1" stop-color="#CCC3B5"/>
</linearGradient>
<linearGradient id="paint11_linear_215_736" x1="108.81" y1="58.9719" x2="108.81" y2="77.1785" gradientUnits="userSpaceOnUse">
<stop stop-color="#FFE0A4"/>
<stop offset="0.70721" stop-color="#B87422"/>
<stop offset="1" stop-color="#703900"/>
</linearGradient>
<linearGradient id="paint12_linear_215_736" x1="104.07" y1="66.5991" x2="104.07" y2="166.463" gradientUnits="userSpaceOnUse">
<stop stop-color="#FFB400"/>
<stop offset="1" stop-color="#FD5902"/>
</linearGradient>
<linearGradient id="paint13_linear_215_736" x1="133.445" y1="70.9492" x2="144.143" y2="63.485" gradientUnits="userSpaceOnUse">
<stop stop-color="#FFB400"/>
<stop offset="1" stop-color="#FD5902"/>
</linearGradient>
<linearGradient id="paint14_linear_215_736" x1="130.792" y1="69.5" x2="135.763" y2="64.223" gradientUnits="userSpaceOnUse">
<stop stop-color="#FFB400"/>
<stop offset="1" stop-color="#FD5902"/>
</linearGradient>
<linearGradient id="paint15_linear_215_736" x1="136.583" y1="75.2139" x2="144.216" y2="71.1995" gradientUnits="userSpaceOnUse">
<stop stop-color="#FFB400"/>
<stop offset="1" stop-color="#FD5902"/>
</linearGradient>
<linearGradient id="paint16_linear_215_736" x1="103.935" y1="150.187" x2="103.935" y2="79.02" gradientUnits="userSpaceOnUse">
<stop stop-color="#FFF2DE"/>
<stop offset="1" stop-color="white"/>
</linearGradient>
<linearGradient id="paint17_linear_215_736" x1="103.19" y1="67.5601" x2="103.19" y2="79.6801" gradientUnits="userSpaceOnUse">
<stop stop-color="#F1C36B"/>
<stop offset="0.621073" stop-color="#D68D35"/>
<stop offset="1" stop-color="#B76611"/>
</linearGradient>
<linearGradient id="paint18_linear_215_736" x1="87.8339" y1="144.5" x2="87.8339" y2="155.774" gradientUnits="userSpaceOnUse">
<stop stop-color="#F1C36B"/>
<stop offset="0.621073" stop-color="#D68D35"/>
<stop offset="1" stop-color="#B76611"/>
</linearGradient>
<linearGradient id="paint19_linear_215_736" x1="102.82" y1="131.159" x2="102.82" y2="151.57" gradientUnits="userSpaceOnUse">
<stop stop-color="#FAD961"/>
<stop offset="1" stop-color="#F76B1C"/>
</linearGradient>
<radialGradient id="paint20_radial_215_736" cx="0" cy="0" r="1" gradientUnits="userSpaceOnUse" gradientTransform="translate(77.689 153.07) scale(16.8158 18.9011)">
<stop stop-color="white"/>
<stop offset="1" stop-color="#D8D8D8"/>
</radialGradient>
<radialGradient id="paint21_radial_215_736" cx="0" cy="0" r="1" gradientUnits="userSpaceOnUse" gradientTransform="translate(82.8235 149.978) scale(10.0482 20.8682)">
<stop stop-color="white"/>
<stop offset="1" stop-color="#CECECE"/>
</radialGradient>
<radialGradient id="paint22_radial_215_736" cx="0" cy="0" r="1" gradientUnits="userSpaceOnUse" gradientTransform="translate(81.7476 149.789) scale(16.7612 12.1654)">
<stop stop-color="white"/>
<stop offset="1" stop-color="#D2D2D2"/>
</radialGradient>
<linearGradient id="paint23_linear_215_736" x1="83.8142" y1="152.435" x2="84.2866" y2="149.968" gradientUnits="userSpaceOnUse">
<stop stop-color="#301911"/>
<stop offset="1" stop-color="#AF6F27"/>
</linearGradient>
<linearGradient id="paint24_linear_215_736" x1="73.4637" y1="147.266" x2="83.3702" y2="147.265" gradientUnits="userSpaceOnUse">
<stop stop-color="#E95100"/>
<stop offset="0.274702" stop-color="#FD5E02"/>
<stop offset="0.502562" stop-color="#FF8404"/>
<stop offset="0.757684" stop-color="#FD6002"/>
<stop offset="1" stop-color="#E24E00"/>
</linearGradient>
<radialGradient id="paint25_radial_215_736" cx="0" cy="0" r="1" gradientUnits="userSpaceOnUse" gradientTransform="translate(76.7407 129.761) scale(41.6566 41.3605)">
<stop stop-color="white"/>
<stop offset="1" stop-color="#D2D2D2"/>
</radialGradient>
<radialGradient id="paint26_radial_215_736" cx="0" cy="0" r="1" gradientUnits="userSpaceOnUse" gradientTransform="translate(78.3177 129.599) scale(12.3143 15.7089)">
<stop stop-color="#595959"/>
<stop offset="1"/>
</radialGradient>
<radialGradient id="paint27_radial_215_736" cx="0" cy="0" r="1" gradientUnits="userSpaceOnUse" gradientTransform="translate(83.0459 141.428) scale(14.8298 5.5056)">
<stop stop-color="#FFFDF8"/>
<stop offset="1" stop-color="#CECECE"/>
</radialGradient>
<radialGradient id="paint28_radial_215_736" cx="0" cy="0" r="1" gradientUnits="userSpaceOnUse" gradientTransform="translate(85.6785 132.745) scale(5.40827 5.45596)">
<stop stop-color="#2F140B"/>
<stop offset="1" stop-color="#866236"/>
</radialGradient>
<radialGradient id="paint29_radial_215_736" cx="0" cy="0" r="1" gradientUnits="userSpaceOnUse" gradientTransform="translate(76.8328 119.152) scale(7.20753 8.82453)">
<stop stop-color="white"/>
<stop offset="1" stop-color="#D2D2D2"/>
</radialGradient>
<linearGradient id="paint30_linear_215_736" x1="75.8533" y1="111.828" x2="85.6254" y2="111.828" gradientUnits="userSpaceOnUse">
<stop stop-color="#301911"/>
<stop offset="0.431132" stop-color="#6E431C"/>
<stop offset="1" stop-color="#381B0E"/>
</linearGradient>
<linearGradient id="paint31_linear_215_736" x1="66.8668" y1="156.126" x2="66.6171" y2="154.746" gradientUnits="userSpaceOnUse">
<stop stop-color="#301911"/>
<stop offset="1" stop-color="#AF6F27"/>
</linearGradient>
<radialGradient id="paint32_radial_215_736" cx="0" cy="0" r="1" gradientUnits="userSpaceOnUse" gradientTransform="translate(68.6952 156.166) scale(7.8986 3.94183)">
<stop stop-color="white"/>
<stop offset="1" stop-color="#D8D8D8"/>
</radialGradient>
<clipPath id="clip0_215_736">
<rect width="220" height="220" fill="white"/>
</clipPath>
</defs>
</svg>
