<svg xmlns="http://www.w3.org/2000/svg" width="220" height="220" fill="none" viewBox="0 0 220 220"><g clip-path="url(#a)"><g filter="url(#b)"><path fill="url(#c)" fill-opacity=".6" fill-rule="evenodd" d="M182 110.38c0 39.97-32.07 72.38-71.62 72.38-39.56 0-71.62-32.41-71.62-72.38S70.82 38 110.38 38C149.93 38 182 70.41 182 110.38" clip-rule="evenodd"/></g><path fill="url(#d)" fill-rule="evenodd" d="M84.54 144.74c20.76 0 37.59-21.18 37.59-47.31 0-26.12-16.83-47.3-37.59-47.3S52.81 72.3 46.95 97.43c-2.73 11.73-6.62 33.93 0 42.46 6.83 8.79 27.06 4.85 37.59 4.85" clip-rule="evenodd"/><use href="#e"/><g filter="url(#f)"><use href="#e"/></g><path fill="url(#g)" fill-rule="evenodd" d="M135.44 153.96c20.75 0 42.92-6.88 38.38-31.54s-15.2-60.17-35.95-60.17-40 18.27-40 44.4 16.82 47.31 37.57 47.31" clip-rule="evenodd"/><use href="#h"/><g filter="url(#i)"><use href="#h"/></g><path fill="url(#j)" fill-rule="evenodd" d="M180.48 147.52c0 10.67-31.89 19.32-71.24 19.32-39.34 0-71.24-8.65-71.24-19.32 0-10.68 31.9-19.33 71.24-19.33 39.35 0 71.24 8.65 71.24 19.33" clip-rule="evenodd"/><path fill="url(#k)" fill-rule="evenodd" d="M46.91 142.64h1.63v11.27h-1.63z" clip-rule="evenodd"/><g filter="url(#l)"><path fill="url(#m)" fill-opacity=".898" fill-rule="evenodd" d="m81.4 153.15-.02 1.18-35.02-.62.02-1.18z" clip-rule="evenodd"/></g><path fill="#f3a96b" fill-rule="evenodd" d="M47.72 128.95v16.1l5.71-3.82z" clip-rule="evenodd"/><path fill="#ffca4a" fill-rule="evenodd" d="M48.61 128.95v16.1l-9.85-3.79z" clip-rule="evenodd"/><path fill="url(#n)" fill-rule="evenodd" d="M160.35 137.25c-1.75-6.09-56.24-14.22-51.15-10.54s-15.12-6.7-15.12 0l18.57 21.94z" clip-rule="evenodd"/><path fill="url(#o)" fill-rule="evenodd" d="M141.29 130.12h1.59v7.16h-1.59z" clip-rule="evenodd"/><g filter="url(#p)"><path fill="url(#q)" fill-opacity=".841" fill-rule="evenodd" d="m152.85 136.32-.01.73-11.6-.39.01-.72z" clip-rule="evenodd"/></g><path fill="#f3a96b" fill-rule="evenodd" d="M142.08 121.37v10.34l3.18-2.45z" clip-rule="evenodd"/><path fill="#ffca4a" fill-rule="evenodd" d="M142.08 121.37v10.34l-5.55-2.43z" clip-rule="evenodd"/><path fill="url(#r)" fill-rule="evenodd" d="M156.69 148.7h1.61v11.27h-1.61z" clip-rule="evenodd"/><g filter="url(#s)"><path fill="url(#t)" fill-opacity=".841" fill-rule="evenodd" d="m174.63 159.21-.02 1.18-18.46-.61.02-1.18z" clip-rule="evenodd"/></g><path fill="#f3a96b" fill-rule="evenodd" d="M157.49 135.01v16.11l5.63-3.83z" clip-rule="evenodd"/><path fill="#ffca4a" fill-rule="evenodd" d="M157.49 135.01v16.11l-8.84-3.8z" clip-rule="evenodd"/><path fill="#cc7921" fill-rule="evenodd" d="m83.38 75.17 36.62-.7c4.45-.12 7.78-.12 9.97 0 .38.02.73.05 1.05.07a3.01 3.01 0 0 1 2.74 2.99v67.21c0 1.66-1.34 3-3 3-.13 0-.26-.01-.39-.02l-5.95-.78-41.32-4.71a3.015 3.015 0 0 1-2.66-2.99V78.17c0-1.63 1.31-2.97 2.94-3" clip-rule="evenodd"/><path fill="url(#u)" fill-rule="evenodd" d="M110.12 67.56c2.62 0 4.16 1.87 4.61 5.62h4.59c.49 0 .91.36.98.85.13.83.2 1.44.2 1.81 0 .4-.07 1.13-.22 2.22-.06.49-.48.87-.99.87H98.31c-.51 0-.93-.38-1-.88-.13-1.06-.19-1.8-.19-2.21 0-.39.06-.99.17-1.8.08-.49.5-.86.99-.86h6.64c.85-3.75 2.58-5.62 5.2-5.62m-.56 2.13c-.84 0-1.52.64-1.52 1.42 0 .79.68 1.42 1.52 1.42.83 0 1.51-.63 1.51-1.42 0-.78-.68-1.42-1.51-1.42" clip-rule="evenodd"/><g filter="url(#v)"><path fill="#fff" fill-rule="evenodd" d="M110.12 67.56c2.62 0 4.16 1.87 4.61 5.62h4.59c.49 0 .91.36.98.85.13.83.2 1.44.2 1.81 0 .4-.07 1.13-.22 2.22-.06.49-.48.87-.99.87H98.31c-.51 0-.93-.38-1-.88-.13-1.06-.19-1.8-.19-2.21 0-.39.06-.99.17-1.8.08-.49.5-.86.99-.86h6.64c.85-3.75 2.58-5.62 5.2-5.62m-.56 2.13c-.84 0-1.52.64-1.52 1.42 0 .79.68 1.42 1.52 1.42.83 0 1.51-.63 1.51-1.42 0-.78-.68-1.42-1.51-1.42" clip-rule="evenodd"/></g><g filter="url(#w)"><path fill="#fff" d="M80.41 74.47h47.32c1.65 0 3 1.34 3 3v67.37c0 1.65-1.35 3-3 3-.11 0-.21-.01-.31-.02l-47.32-4.86a3.003 3.003 0 0 1-2.69-2.99v-62.5c0-1.66 1.34-3 3-3"/></g><path fill="url(#x)" d="M80.41 74.47h47.32c1.65 0 3 1.34 3 3v67.37c0 1.65-1.35 3-3 3-.11 0-.21-.01-.31-.02l-47.32-4.86a3.003 3.003 0 0 1-2.69-2.99v-62.5c0-1.66 1.34-3 3-3"/><path fill="url(#y)" fill-rule="evenodd" d="m134.75 70.41.64 1.5 7.02-3.72-2.93-2.69z" clip-rule="evenodd"/><path fill="url(#z)" fill-rule="evenodd" d="M130.46 69.5h1.34l2.58-4.97h-3.22z" clip-rule="evenodd"/><path fill="url(#A)" fill-rule="evenodd" d="M137.55 74.07v1.37l5.67.85-1.19-3.57z" clip-rule="evenodd"/><path fill="url(#B)" fill-rule="evenodd" d="M84.2 79.02h39.47c1.66 0 3 1.34 3 3v56.79c0 1.65-1.34 3-3 3-.1 0-.2-.01-.3-.02l-39.48-4.07a3.003 3.003 0 0 1-2.69-2.99V82.02c0-1.66 1.34-3 3-3" clip-rule="evenodd"/><g filter="url(#C)"><path fill="#fff" fill-rule="evenodd" d="M84.2 79.02h39.47c1.66 0 3 1.34 3 3v56.79c0 1.65-1.34 3-3 3-.1 0-.2-.01-.3-.02l-39.48-4.07a3.003 3.003 0 0 1-2.69-2.99V82.02c0-1.66 1.34-3 3-3" clip-rule="evenodd"/></g><path fill="url(#D)" fill-rule="evenodd" d="M104.5 67.56c2.63 0 4.16 2 4.61 6h4.58c.5 0 .92.36.99.85.13.92.2 1.58.2 1.98 0 .43-.07 1.24-.22 2.42-.06.5-.49.87-.99.87H92.7c-.51 0-.94-.38-1-.88-.13-1.16-.2-1.96-.2-2.41 0-.42.06-1.08.18-1.97.07-.49.49-.86.99-.86h6.64q1.26-6 5.19-6m-.56 2.27c-.84 0-1.52.68-1.52 1.52a1.515 1.515 0 1 0 1.52-1.52" clip-rule="evenodd"/><g filter="url(#E)"><path fill="#fff" fill-rule="evenodd" d="M104.5 67.56c2.63 0 4.16 2 4.61 6h4.58c.5 0 .92.36.99.85.13.92.2 1.58.2 1.98 0 .43-.07 1.24-.22 2.42-.06.5-.49.87-.99.87H92.7c-.51 0-.94-.38-1-.88-.13-1.16-.2-1.96-.2-2.41 0-.42.06-1.08.18-1.97.07-.49.49-.86.99-.86h6.64q1.26-6 5.19-6m-.56 2.27c-.84 0-1.52.68-1.52 1.52a1.515 1.515 0 1 0 1.52-1.52" clip-rule="evenodd"/></g><path fill="url(#F)" fill-rule="evenodd" d="m79.64 152.69 15.32-8.19 1.59 3.02-15.32 8.18c-.71.22-1.31-.05-1.79-.82-.49-.78-.42-1.51.2-2.19" clip-rule="evenodd"/><g filter="url(#G)"><path fill="#fff" fill-rule="evenodd" d="M112.29 138.65c1.56 5.43-1.42 11.05-6.65 12.55s-10.73-1.69-12.29-7.12 1.42-11.05 6.65-12.55 10.73 1.68 12.29 7.12" clip-rule="evenodd"/></g><path fill="url(#H)" fill-rule="evenodd" d="M112.29 138.65c1.56 5.43-1.42 11.05-6.65 12.55s-10.73-1.69-12.29-7.12 1.42-11.05 6.65-12.55 10.73 1.68 12.29 7.12" clip-rule="evenodd"/><use fill-rule="evenodd" clip-rule="evenodd" href="#I"/><g filter="url(#J)"><use fill-rule="evenodd" clip-rule="evenodd" href="#I"/></g><g filter="url(#K)"><use href="#L"/></g><path fill="#ff8300" d="M111.04 94.32c-1.83-1.6-4.37-2.42-7.54-2.42-3.2 0-5.84.93-7.85 2.75-2.04 1.86-3.08 4-3.08 6.37 0 1.53.8 2.24 2.52 2.24 1.62 0 2.42-.74 2.51-2.34.07-1.26.64-2.35 1.66-3.24 1.03-.89 2.41-1.34 4.1-1.34 1.68 0 3.02.41 3.98 1.2.98.8 1.47 1.93 1.47 3.35 0 .59-.04 1.1-.13 1.53-.09.45-.29.9-.6 1.34-.3.43-.7.89-1.21 1.37-.5.46-1.15 1.05-1.96 1.75-1.68 1.5-2.97 3.03-3.81 4.53-.83 1.48-1.25 2.98-1.25 4.46 0 .52.03.97.09 1.33.06.31.17.56.34.73.16.17.41.3.73.37.37.09.88.13 1.55.13 1.58 0 2.31-.82 2.31-2.56 0-.59.05-1.12.13-1.6.09-.48.29-.98.59-1.48q.45-.735 1.32-1.65c.57-.59 1.35-1.33 2.31-2.17 1.56-1.39 2.72-2.71 3.47-3.92.73-1.2 1.1-2.5 1.1-3.89-.01-2.94-.93-5.24-2.75-6.84m-5.85 27.29c-.31-.28-.67-.5-1.07-.66-.41-.17-.85-.25-1.32-.25s-.91.08-1.32.25c-.41.16-.76.38-1.07.66q-.48.405-.75.96c-.18.36-.27.74-.27 1.16q0 .63.27 1.17t.75.96c.31.27.67.5 1.07.66q.615.24 1.32.24c.47 0 .91-.07 1.32-.24s.76-.39 1.07-.66q.48-.42.75-.96t.27-1.17c0-.41-.09-.8-.27-1.16a3.1 3.1 0 0 0-.75-.96"/><g filter="url(#M)"><use href="#L"/></g><use fill-rule="evenodd" clip-rule="evenodd" href="#N"/><g filter="url(#O)"><use fill-rule="evenodd" clip-rule="evenodd" href="#N"/></g><use fill-rule="evenodd" clip-rule="evenodd" href="#P"/><g filter="url(#Q)"><use fill-rule="evenodd" clip-rule="evenodd" href="#P"/></g><path fill="url(#R)" fill-rule="evenodd" d="M81.14 144.92c3 4.61 4.3 7.91 3.91 9.91-.59 3-3.49 6.59-7.22 6.59-1.09 0-1.86-.14-2.4-.27-1.09-.27-1.59-.58-2.08-.94-.26-.19-.7-.54-.94-.82-.81-.92-2.15-2.27-2.15-4.66 0-1.12.53-2.25 1.58-3.36.64-.93 1.14-1.85 1.51-2.75.37-.91.79-2.2 1.26-3.9z" clip-rule="evenodd"/><use fill-rule="evenodd" clip-rule="evenodd" href="#S"/><g filter="url(#T)"><use fill-rule="evenodd" clip-rule="evenodd" href="#S"/></g><path fill="url(#U)" fill-rule="evenodd" d="M83.74 156.24c-2.13.22-3.15-1.91-3.37-4.74-.19-2.42.42-4.53 1.57-5.18.1-.06 1.51 2.33 2.45 4.57.49 1.16.74 2.32.73 3.25s-.3 1.67-.4 1.8c-.12.17-.6.26-.98.3" clip-rule="evenodd"/><path fill="#e4e4e4" fill-rule="evenodd" d="M83.74 156.24c-2.13.22-3.15-1.91-3.37-4.74-.19-2.42.42-4.53 1.57-5.18.1-.06 1.51 2.33 2.45 4.57.49 1.16.74 2.32.73 3.25s-.3 1.67-.4 1.8c-.12.17-.6.26-.98.3" clip-rule="evenodd"/><path fill="url(#V)" fill-rule="evenodd" d="M80.11 150.89c3.26 2.33 5.21 2.55 5.89 1.54.69-1.01-.69-2.29-3.91-4.47-3.22-2.17-4.5-1.2-4.66-.96s-.58 1.56 2.68 3.89" clip-rule="evenodd"/><use fill-rule="evenodd" clip-rule="evenodd" href="#W"/><g filter="url(#X)"><use fill-rule="evenodd" clip-rule="evenodd" href="#W"/></g><path fill="url(#Y)" d="M82.99 152.49c1.4.6 2.53.65 2.99-.02.56-.84-.33-1.69-1.28-2.51z"/><path fill="url(#Z)" fill-rule="evenodd" d="M81.46 145.45c.38.54.59.88.64 1.01-.15.18-.2.35-.64.57.35.86.55 1.41.6 1.63.12.54.2 1.17.2 1.33 0 .18-.54.39-.98.46-.39.06-.97-.02-1.03-.07-.06-.06-.15-.75-.15-1.44 0-.34.05-.86.15-1.57-1.09.29-2.15.39-3.19.31-1.67-.14-2.58-.72-2.95-1.14.1-.42.17-.68.2-.78.04-.1.07-.22.1-.37 1.49.19 2.68.28 3.56.28.89 0 2.05-.07 3.49-.22" clip-rule="evenodd"/><path fill="#fd5902" fill-rule="evenodd" d="M81.46 145.45c.38.54.59.88.64 1.01-.15.18-.2.35-.64.57.35.86.55 1.41.6 1.63.12.54.2 1.17.2 1.33 0 .18-.54.39-.98.46-.39.06-.97-.02-1.03-.07-.06-.06-.15-.75-.15-1.44 0-.34.05-.86.15-1.57-1.09.29-2.15.39-3.19.31-1.67-.14-2.58-.72-2.95-1.14.1-.42.17-.68.2-.78.04-.1.07-.22.1-.37 1.49.19 2.68.28 3.56.28.89 0 2.05-.07 3.49-.22" clip-rule="evenodd"/><g filter="url(#aa)"><path fill="#fff" fill-rule="evenodd" d="M81.46 145.45c.38.54.59.88.64 1.01-.15.18-.2.35-.64.57.35.86.55 1.41.6 1.63.12.54.2 1.17.2 1.33 0 .18-.54.39-.98.46-.39.06-.97-.02-1.03-.07-.06-.06-.15-.75-.15-1.44 0-.34.05-.86.15-1.57-1.09.29-2.15.39-3.19.31-1.67-.14-2.58-.72-2.95-1.14.1-.42.17-.68.2-.78.04-.1.07-.22.1-.37 1.49.19 2.68.28 3.56.28.89 0 2.05-.07 3.49-.22" clip-rule="evenodd"/></g><path fill="url(#ab)" fill-rule="evenodd" d="M74.28 145.03c-6.07-1.85-13.61-6.39-14.28-11.95-.45-3.75.92-5.85 2.36-8.39 2.25-3.97 6-7.6 8.72-9.57 2.71-1.97 4.89-2.9 10.7-1.12 6.76 2.06 7.92 3.62 9.21 7.21 1.24 3.44.44 8.68 1.86 12.8.83 2.4 1.36 6.05-.85 8.86-3.68 4.68-11.4 4.1-17.72 2.16" clip-rule="evenodd"/><use fill-rule="evenodd" clip-rule="evenodd" href="#ac"/><g filter="url(#ad)"><use fill-rule="evenodd" clip-rule="evenodd" href="#ac"/></g><path fill="url(#ae)" fill-rule="evenodd" d="M80.47 113.03c-7.7 6.36-10.13 12.69-7.29 19 1.89 4.2 7.73 8.77 14.74 9.26 2.45.17 4.51-.02 6.19-.57.17-1.46.16-2.47-.01-3.02-1.35-4.25-1.2-7.63-1.54-10.06-.29-2.08-.5-3.44-1.21-5.68-.16-.5-.65-1.75-1.48-3.77-1.37-1.3-2.58-2.21-3.62-2.72-1.03-.51-2.96-1.33-5.78-2.44" clip-rule="evenodd"/><use fill-rule="evenodd" clip-rule="evenodd" href="#af"/><g filter="url(#ag)"><use fill-rule="evenodd" clip-rule="evenodd" href="#af"/></g><path fill="url(#ah)" fill-rule="evenodd" d="M82.55 147.28c-6.48 0-11.7-.99-11.66-3.8.03-2.81 5.18-4.88 11.65-4.88 6.48.01 11.73 1.95 11.73 4.35 0 2.39-5.25 4.33-11.72 4.33" clip-rule="evenodd"/><path fill="#e4e4e4" fill-rule="evenodd" d="M82.55 147.28c-6.48 0-11.7-.99-11.66-3.8.03-2.81 5.18-4.88 11.65-4.88 6.48.01 11.73 1.95 11.73 4.35 0 2.39-5.25 4.33-11.72 4.33" clip-rule="evenodd"/><g filter="url(#ai)"><path fill="#fff" fill-rule="evenodd" d="M82.55 147.28c-6.48 0-11.7-.99-11.66-3.8.03-2.81 5.18-4.88 11.65-4.88 6.48.01 11.73 1.95 11.73 4.35 0 2.39-5.25 4.33-11.72 4.33" clip-rule="evenodd"/></g><path fill="#ff5151" fill-rule="evenodd" d="M75.52 138.55c-.53 1.74.45 3.59 2.19 4.12s3.59-.45 4.12-2.19-.45-3.59-2.19-4.12-3.59.45-4.12 2.19" clip-rule="evenodd"/><path fill="#fff" d="M89.65 136.79c-2.08 2.28-5.91 1.4-7.54.07-2.64-2.14-3-5.57-1.27-7.93 1.74-2.36 5.35-3.13 7.99-.96 2.45 2.02 3 6.43.82 8.82"/><path fill="url(#aj)" stroke="#2c1f1b" stroke-width=".5" d="M90.29 133.81c-.6 2.57-3.14 4.18-5.69 3.59-2.54-.59-4.13-3.15-3.53-5.72.59-2.57 3.13-4.18 5.68-3.59s4.13 3.15 3.54 5.72Z"/><path fill="#301911" d="M89.6 133.7a3.935 3.935 0 0 1-4.72 2.96 3.94 3.94 0 0 1-2.96-4.73 3.943 3.943 0 0 1 4.73-2.95c2.12.49 3.44 2.6 2.95 4.72"/><path fill="#fff" d="M87.58 133.29c-.24 1.03-1.25 1.68-2.26 1.45-1.01-.24-1.63-1.26-1.39-2.3.23-1.03 1.24-1.68 2.25-1.45 1.01.24 1.63 1.26 1.4 2.3"/><path fill="#fff" d="M85.36 129.54c.42.51.23 1.36-.41 1.9-.65.54-1.52.56-1.94.05-.42-.5-.24-1.35.41-1.89s1.51-.57 1.94-.06"/><path fill="#fff" d="M82.97 130.84a1.001 1.001 0 1 1-1.11 1.67.997.997 0 0 1-.28-1.38c.31-.46.93-.59 1.39-.29"/><path stroke="#301911" stroke-linecap="round" d="M89.98 145.91c-.95.57-1.92.51-2.93-.17s-1.42-1.56-1.21-2.62"/><path fill="url(#ak)" fill-rule="evenodd" d="M80.33 119.76c-1.4 2.25-3.36 2.4-5.39 3.51-.57.32-1.25.77-1.56.58-.25-.16-.15-.97-.08-1.6.08-.73.16-1.69-.07-2.86-.22-1.15-.61-2.23.32-3.71.63-1.01 2.93-1.85 4.68-.76 2.31 1.45 2.99 3.42 2.1 4.84" clip-rule="evenodd"/><use fill-rule="evenodd" clip-rule="evenodd" href="#al"/><g filter="url(#am)"><use fill-rule="evenodd" clip-rule="evenodd" href="#al"/></g><path fill="url(#an)" d="M81.95 115.42c-.06.12-1.32-.09-2.39-.58-1.1-.51-2.02-1.29-1.96-1.42.06-.46 3.4-4.45 4.55-3.89s.12 5.23-.2 5.89"/><g filter="url(#ao)"><path fill="#fff" d="M81.95 115.42c-.06.12-1.32-.09-2.39-.58-1.1-.51-2.02-1.29-1.96-1.42.06-.46 3.4-4.45 4.55-3.89s.12 5.23-.2 5.89"/></g><path fill="url(#ap)" d="M66.73 156.59c-.32.03-.79-.11-.98-.35-.13-.16-.29-.31-.46-.41q-.255-.165-.45 0c0-.65.79-1.24 1.64-1.24.86 0 1.1.72 1.1 1.1s-.3.83-.85.9"/><path fill="url(#aq)" fill-rule="evenodd" d="M70.24 155.85c.02.18.04.31.06.41.02.09.06.22.14.41-.31.37-.76.46-1.34.27-.44-.15-.8-.71-1.39-1.22-.13-.11-.38-.22-.76-.35.3-.1.56-.1.76 0 .56.3.87.71 1.2.76.52.09.97-.01 1.33-.28" clip-rule="evenodd"/><g filter="url(#ar)"><path fill="#fff" fill-rule="evenodd" d="M70.24 155.85c.02.18.04.31.06.41.02.09.06.22.14.41-.31.37-.76.46-1.34.27-.44-.15-.8-.71-1.39-1.22-.13-.11-.38-.22-.76-.35.3-.1.56-.1.76 0 .56.3.87.71 1.2.76.52.09.97-.01 1.33-.28" clip-rule="evenodd"/></g></g><defs><filter id="b" width="239.24" height="240.76" x="-9.24" y="-10" color-interpolation-filters="sRGB" filterUnits="userSpaceOnUse"><feFlood flood-opacity="0" result="BackgroundImageFix"/><feBlend in="SourceGraphic" in2="BackgroundImageFix" result="shape"/><feGaussianBlur result="effect1_foregroundBlur_215_736" stdDeviation="24"/></filter><filter id="f" width="25.77" height="15.4" x="46.34" y="59.74" color-interpolation-filters="sRGB" filterUnits="userSpaceOnUse"><feFlood flood-opacity="0" result="BackgroundImageFix"/><feBlend in="SourceGraphic" in2="BackgroundImageFix" result="shape"/><feColorMatrix in="SourceAlpha" result="hardAlpha" values="0 0 0 0 0 0 0 0 0 0 0 0 0 0 0 0 0 0 127 0"/><feOffset dy="-1"/><feGaussianBlur stdDeviation="2"/><feComposite in2="hardAlpha" k2="-1" k3="1" operator="arithmetic"/><feColorMatrix values="0 0 0 0 1 0 0 0 0 0.896904 0 0 0 0 0.792752 0 0 0 1 0"/><feBlend in2="shape" result="effect1_innerShadow_215_736"/></filter><filter id="i" width="24.25" height="15.4" x="143.35" y="89.29" color-interpolation-filters="sRGB" filterUnits="userSpaceOnUse"><feFlood flood-opacity="0" result="BackgroundImageFix"/><feBlend in="SourceGraphic" in2="BackgroundImageFix" result="shape"/><feColorMatrix in="SourceAlpha" result="hardAlpha" values="0 0 0 0 0 0 0 0 0 0 0 0 0 0 0 0 0 0 127 0"/><feOffset dy="-1"/><feGaussianBlur stdDeviation="2"/><feComposite in2="hardAlpha" k2="-1" k3="1" operator="arithmetic"/><feColorMatrix values="0 0 0 0 1 0 0 0 0 0.896904 0 0 0 0 0.792752 0 0 0 1 0"/><feBlend in2="shape" result="effect1_innerShadow_215_736"/></filter><filter id="l" width="37.04" height="3.8" x="45.36" y="151.53" color-interpolation-filters="sRGB" filterUnits="userSpaceOnUse"><feFlood flood-opacity="0" result="BackgroundImageFix"/><feBlend in="SourceGraphic" in2="BackgroundImageFix" result="shape"/><feGaussianBlur result="effect1_foregroundBlur_215_736" stdDeviation=".5"/></filter><filter id="p" width="13.61" height="3.11" x="140.24" y="134.94" color-interpolation-filters="sRGB" filterUnits="userSpaceOnUse"><feFlood flood-opacity="0" result="BackgroundImageFix"/><feBlend in="SourceGraphic" in2="BackgroundImageFix" result="shape"/><feGaussianBlur result="effect1_foregroundBlur_215_736" stdDeviation=".5"/></filter><filter id="s" width="20.48" height="3.79" x="155.15" y="157.6" color-interpolation-filters="sRGB" filterUnits="userSpaceOnUse"><feFlood flood-opacity="0" result="BackgroundImageFix"/><feBlend in="SourceGraphic" in2="BackgroundImageFix" result="shape"/><feGaussianBlur result="effect1_foregroundBlur_215_736" stdDeviation=".5"/></filter><filter id="v" width="23.38" height="11.37" x="97.12" y="67.56" color-interpolation-filters="sRGB" filterUnits="userSpaceOnUse"><feFlood flood-opacity="0" result="BackgroundImageFix"/><feBlend in="SourceGraphic" in2="BackgroundImageFix" result="shape"/><feColorMatrix in="SourceAlpha" result="hardAlpha" values="0 0 0 0 0 0 0 0 0 0 0 0 0 0 0 0 0 0 127 0"/><feOffset/><feGaussianBlur stdDeviation="2"/><feComposite in2="hardAlpha" k2="-1" k3="1" operator="arithmetic"/><feColorMatrix values="0 0 0 0 0.657665 0 0 0 0 0.368989 0 0 0 0 0.0622702 0 0 0 1 0"/><feBlend in2="shape" result="effect1_innerShadow_215_736"/></filter><filter id="w" width="61.32" height="81.37" x="75.41" y="72.47" color-interpolation-filters="sRGB" filterUnits="userSpaceOnUse"><feFlood flood-opacity="0" result="BackgroundImageFix"/><feColorMatrix in="SourceAlpha" result="hardAlpha" values="0 0 0 0 0 0 0 0 0 0 0 0 0 0 0 0 0 0 127 0"/><feOffset dx="2" dy="2"/><feGaussianBlur stdDeviation="2"/><feColorMatrix values="0 0 0 0 0.937755 0 0 0 0 0.482733 0 0 0 0 0 0 0 0 1 0"/><feBlend in2="BackgroundImageFix" result="effect1_dropShadow_215_736"/><feBlend in="SourceGraphic" in2="effect1_dropShadow_215_736" result="shape"/></filter><filter id="C" width="46.47" height="63.79" x="81.2" y="79.02" color-interpolation-filters="sRGB" filterUnits="userSpaceOnUse"><feFlood flood-opacity="0" result="BackgroundImageFix"/><feBlend in="SourceGraphic" in2="BackgroundImageFix" result="shape"/><feColorMatrix in="SourceAlpha" result="hardAlpha" values="0 0 0 0 0 0 0 0 0 0 0 0 0 0 0 0 0 0 127 0"/><feOffset dx="1" dy="1"/><feGaussianBlur stdDeviation="1.5"/><feComposite in2="hardAlpha" k2="-1" k3="1" operator="arithmetic"/><feColorMatrix values="0 0 0 0 0.870273 0 0 0 0 0.657921 0 0 0 0 0.443395 0 0 0 1 0"/><feBlend in2="shape" result="effect1_innerShadow_215_736"/></filter><filter id="E" width="23.38" height="12.12" x="91.5" y="67.56" color-interpolation-filters="sRGB" filterUnits="userSpaceOnUse"><feFlood flood-opacity="0" result="BackgroundImageFix"/><feBlend in="SourceGraphic" in2="BackgroundImageFix" result="shape"/><feColorMatrix in="SourceAlpha" result="hardAlpha" values="0 0 0 0 0 0 0 0 0 0 0 0 0 0 0 0 0 0 127 0"/><feOffset/><feGaussianBlur stdDeviation="2"/><feComposite in2="hardAlpha" k2="-1" k3="1" operator="arithmetic"/><feColorMatrix values="0 0 0 0 0.657665 0 0 0 0 0.368989 0 0 0 0 0.0622702 0 0 0 1 0"/><feBlend in2="shape" result="effect1_innerShadow_215_736"/></filter><filter id="G" width="20.769" height="20.912" x="92.936" y="131.159" color-interpolation-filters="sRGB" filterUnits="userSpaceOnUse"><feFlood flood-opacity="0" result="BackgroundImageFix"/><feColorMatrix in="SourceAlpha" result="hardAlpha" values="0 0 0 0 0 0 0 0 0 0 0 0 0 0 0 0 0 0 127 0"/><feOffset dx="1" dy=".5"/><feColorMatrix values="0 0 0 0 0.8 0 0 0 0 0.47451 0 0 0 0 0.129412 0 0 0 1 0"/><feBlend in2="BackgroundImageFix" result="effect1_dropShadow_215_736"/><feBlend in="SourceGraphic" in2="effect1_dropShadow_215_736" result="shape"/></filter><filter id="J" width="13.943" height="13.595" x="96.088" y="135.032" color-interpolation-filters="sRGB" filterUnits="userSpaceOnUse"><feFlood flood-opacity="0" result="BackgroundImageFix"/><feBlend in="SourceGraphic" in2="BackgroundImageFix" result="shape"/><feColorMatrix in="SourceAlpha" result="hardAlpha" values="0 0 0 0 0 0 0 0 0 0 0 0 0 0 0 0 0 0 127 0"/><feOffset dx="1"/><feGaussianBlur stdDeviation="1"/><feComposite in2="hardAlpha" k2="-1" k3="1" operator="arithmetic"/><feColorMatrix values="0 0 0 0 0.8 0 0 0 0 0.47451 0 0 0 0 0.129412 0 0 0 1 0"/><feBlend in2="shape" result="effect1_innerShadow_215_736"/></filter><filter id="K" width="23.22" height="36.86" x="92.57" y="91.9" color-interpolation-filters="sRGB" filterUnits="userSpaceOnUse"><feFlood flood-opacity="0" result="BackgroundImageFix"/><feColorMatrix in="SourceAlpha" result="hardAlpha" values="0 0 0 0 0 0 0 0 0 0 0 0 0 0 0 0 0 0 127 0"/><feOffset dx="1" dy="1"/><feGaussianBlur stdDeviation=".5"/><feColorMatrix values="0 0 0 0 0.851761 0 0 0 0 0.565202 0 0 0 0 0.0818489 0 0 0 0.557638 0"/><feBlend in2="BackgroundImageFix" result="effect1_dropShadow_215_736"/><feBlend in="SourceGraphic" in2="effect1_dropShadow_215_736" result="shape"/></filter><filter id="M" width="21.22" height="35.86" x="92.57" y="91.9" color-interpolation-filters="sRGB" filterUnits="userSpaceOnUse"><feFlood flood-opacity="0" result="BackgroundImageFix"/><feBlend in="SourceGraphic" in2="BackgroundImageFix" result="shape"/><feColorMatrix in="SourceAlpha" result="hardAlpha" values="0 0 0 0 0 0 0 0 0 0 0 0 0 0 0 0 0 0 127 0"/><feOffset dy="1"/><feGaussianBlur stdDeviation=".5"/><feComposite in2="hardAlpha" k2="-1" k3="1" operator="arithmetic"/><feColorMatrix values="0 0 0 0 1 0 0 0 0 0.853684 0 0 0 0 0.705869 0 0 0 1 0"/><feBlend in2="shape" result="effect1_innerShadow_215_736"/></filter><filter id="O" width="14.486" height="8.33" x="75.39" y="156.09" color-interpolation-filters="sRGB" filterUnits="userSpaceOnUse"><feFlood flood-opacity="0" result="BackgroundImageFix"/><feBlend in="SourceGraphic" in2="BackgroundImageFix" result="shape"/><feColorMatrix in="SourceAlpha" result="hardAlpha" values="0 0 0 0 0 0 0 0 0 0 0 0 0 0 0 0 0 0 127 0"/><feOffset dx="3" dy="-2"/><feGaussianBlur stdDeviation="2.5"/><feComposite in2="hardAlpha" k2="-1" k3="1" operator="arithmetic"/><feColorMatrix values="0 0 0 0 0.427112 0 0 0 0 0.427112 0 0 0 0 0.427112 0 0 0 0.205119 0"/><feBlend in2="shape" result="effect1_innerShadow_215_736"/></filter><filter id="Q" width="8.39" height="8.74" x="69.91" y="156.72" color-interpolation-filters="sRGB" filterUnits="userSpaceOnUse"><feFlood flood-opacity="0" result="BackgroundImageFix"/><feBlend in="SourceGraphic" in2="BackgroundImageFix" result="shape"/><feColorMatrix in="SourceAlpha" result="hardAlpha" values="0 0 0 0 0 0 0 0 0 0 0 0 0 0 0 0 0 0 127 0"/><feOffset dx="3" dy="-2"/><feGaussianBlur stdDeviation="2.5"/><feComposite in2="hardAlpha" k2="-1" k3="1" operator="arithmetic"/><feColorMatrix values="0 0 0 0 0.427112 0 0 0 0 0.427112 0 0 0 0 0.427112 0 0 0 0.205119 0"/><feBlend in2="shape" result="effect1_innerShadow_215_736"/></filter><filter id="T" width="14.857" height="17.7" x="70.26" y="144.72" color-interpolation-filters="sRGB" filterUnits="userSpaceOnUse"><feFlood flood-opacity="0" result="BackgroundImageFix"/><feBlend in="SourceGraphic" in2="BackgroundImageFix" result="shape"/><feColorMatrix in="SourceAlpha" result="hardAlpha" values="0 0 0 0 0 0 0 0 0 0 0 0 0 0 0 0 0 0 127 0"/><feOffset dy="1"/><feGaussianBlur stdDeviation="3"/><feComposite in2="hardAlpha" k2="-1" k3="1" operator="arithmetic"/><feColorMatrix values="0 0 0 0 0.629699 0 0 0 0 0.629699 0 0 0 0 0.629699 0 0 0 0.5 0"/><feBlend in2="shape" result="effect1_innerShadow_215_736"/></filter><filter id="X" width="8.853" height="7.425" x="77.321" y="146.576" color-interpolation-filters="sRGB" filterUnits="userSpaceOnUse"><feFlood flood-opacity="0" result="BackgroundImageFix"/><feBlend in="SourceGraphic" in2="BackgroundImageFix" result="shape"/><feColorMatrix in="SourceAlpha" result="hardAlpha" values="0 0 0 0 0 0 0 0 0 0 0 0 0 0 0 0 0 0 127 0"/><feOffset dy="1"/><feGaussianBlur stdDeviation="1"/><feComposite in2="hardAlpha" k2="-1" k3="1" operator="arithmetic"/><feColorMatrix values="0 0 0 0 0.629699 0 0 0 0 0.629699 0 0 0 0 0.629699 0 0 0 0.5 0"/><feBlend in2="shape" result="effect1_innerShadow_215_736"/></filter><filter id="aa" width="12.15" height="5.081" x="72.11" y="145.39" color-interpolation-filters="sRGB" filterUnits="userSpaceOnUse"><feFlood flood-opacity="0" result="BackgroundImageFix"/><feBlend in="SourceGraphic" in2="BackgroundImageFix" result="shape"/><feColorMatrix in="SourceAlpha" result="hardAlpha" values="0 0 0 0 0 0 0 0 0 0 0 0 0 0 0 0 0 0 127 0"/><feOffset dx="2"/><feGaussianBlur stdDeviation="1.5"/><feComposite in2="hardAlpha" k2="-1" k3="1" operator="arithmetic"/><feColorMatrix values="0 0 0 0 0.81768 0 0 0 0 0.283419 0 0 0 0 0 0 0 0 0.625874 0"/><feBlend in2="shape" result="effect1_innerShadow_215_736"/><feColorMatrix in="SourceAlpha" result="hardAlpha" values="0 0 0 0 0 0 0 0 0 0 0 0 0 0 0 0 0 0 127 0"/><feOffset dx="-2"/><feGaussianBlur stdDeviation="1.5"/><feComposite in2="hardAlpha" k2="-1" k3="1" operator="arithmetic"/><feColorMatrix values="0 0 0 0 0.883379 0 0 0 0 0.306191 0 0 0 0 0 0 0 0 0.733173 0"/><feBlend in2="effect1_innerShadow_215_736" result="effect2_innerShadow_215_736"/></filter><filter id="ad" width="33.655" height="34.416" x="59.913" y="113.053" color-interpolation-filters="sRGB" filterUnits="userSpaceOnUse"><feFlood flood-opacity="0" result="BackgroundImageFix"/><feBlend in="SourceGraphic" in2="BackgroundImageFix" result="shape"/><feColorMatrix in="SourceAlpha" result="hardAlpha" values="0 0 0 0 0 0 0 0 0 0 0 0 0 0 0 0 0 0 127 0"/><feOffset dy="1"/><feGaussianBlur stdDeviation="3"/><feComposite in2="hardAlpha" k2="-1" k3="1" operator="arithmetic"/><feColorMatrix values="0 0 0 0 0.629699 0 0 0 0 0.629699 0 0 0 0 0.629699 0 0 0 0.5 0"/><feBlend in2="shape" result="effect1_innerShadow_215_736"/><feColorMatrix in="SourceAlpha" result="hardAlpha" values="0 0 0 0 0 0 0 0 0 0 0 0 0 0 0 0 0 0 127 0"/><feOffset dy="1"/><feGaussianBlur stdDeviation="1.5"/><feComposite in2="hardAlpha" k2="-1" k3="1" operator="arithmetic"/><feColorMatrix values="0 0 0 0 1 0 0 0 0 1 0 0 0 0 1 0 0 0 0.5 0"/><feBlend in2="effect1_innerShadow_215_736" result="effect2_innerShadow_215_736"/></filter><filter id="ag" width="23.201" height="28.32" x="71.032" y="113.03" color-interpolation-filters="sRGB" filterUnits="userSpaceOnUse"><feFlood flood-opacity="0" result="BackgroundImageFix"/><feBlend in="SourceGraphic" in2="BackgroundImageFix" result="shape"/><feColorMatrix in="SourceAlpha" result="hardAlpha" values="0 0 0 0 0 0 0 0 0 0 0 0 0 0 0 0 0 0 127 0"/><feOffset dx="-1"/><feGaussianBlur stdDeviation="2"/><feComposite in2="hardAlpha" k2="-1" k3="1" operator="arithmetic"/><feColorMatrix values="0 0 0 0 1 0 0 0 0 1 0 0 0 0 1 0 0 0 0.495465 0"/><feBlend in2="shape" result="effect1_innerShadow_215_736"/></filter><filter id="ai" width="23.38" height="9.68" x="70.89" y="138.6" color-interpolation-filters="sRGB" filterUnits="userSpaceOnUse"><feFlood flood-opacity="0" result="BackgroundImageFix"/><feBlend in="SourceGraphic" in2="BackgroundImageFix" result="shape"/><feColorMatrix in="SourceAlpha" result="hardAlpha" values="0 0 0 0 0 0 0 0 0 0 0 0 0 0 0 0 0 0 127 0"/><feOffset dy="1"/><feGaussianBlur stdDeviation="2.5"/><feComposite in2="hardAlpha" k2="-1" k3="1" operator="arithmetic"/><feColorMatrix values="0 0 0 0 1 0 0 0 0 1 0 0 0 0 1 0 0 0 0.5 0"/><feBlend in2="shape" result="effect1_innerShadow_215_736"/></filter><filter id="am" width="7.749" height="10.487" x="72.959" y="114.408" color-interpolation-filters="sRGB" filterUnits="userSpaceOnUse"><feFlood flood-opacity="0" result="BackgroundImageFix"/><feBlend in="SourceGraphic" in2="BackgroundImageFix" result="shape"/><feColorMatrix in="SourceAlpha" result="hardAlpha" values="0 0 0 0 0 0 0 0 0 0 0 0 0 0 0 0 0 0 127 0"/><feOffset dy="1"/><feGaussianBlur stdDeviation="3"/><feComposite in2="hardAlpha" k2="-1" k3="1" operator="arithmetic"/><feColorMatrix values="0 0 0 0 0.550074 0 0 0 0 0.550074 0 0 0 0 0.550074 0 0 0 0.5 0"/><feBlend in2="shape" result="effect1_innerShadow_215_736"/></filter><filter id="ao" width="5.083" height="6.977" x="77.597" y="109.476" color-interpolation-filters="sRGB" filterUnits="userSpaceOnUse"><feFlood flood-opacity="0" result="BackgroundImageFix"/><feBlend in="SourceGraphic" in2="BackgroundImageFix" result="shape"/><feColorMatrix in="SourceAlpha" result="hardAlpha" values="0 0 0 0 0 0 0 0 0 0 0 0 0 0 0 0 0 0 127 0"/><feOffset dy="1"/><feGaussianBlur stdDeviation="2"/><feComposite in2="hardAlpha" k2="-1" k3="1" operator="arithmetic"/><feColorMatrix values="0 0 0 0 0.258294 0 0 0 0 0.135666 0 0 0 0 0.0379615 0 0 0 1 0"/><feBlend in2="shape" result="effect1_innerShadow_215_736"/></filter><filter id="ar" width="3.49" height="2.742" x="66.95" y="155.295" color-interpolation-filters="sRGB" filterUnits="userSpaceOnUse"><feFlood flood-opacity="0" result="BackgroundImageFix"/><feBlend in="SourceGraphic" in2="BackgroundImageFix" result="shape"/><feColorMatrix in="SourceAlpha" result="hardAlpha" values="0 0 0 0 0 0 0 0 0 0 0 0 0 0 0 0 0 0 127 0"/><feOffset dy="1"/><feGaussianBlur stdDeviation="3"/><feComposite in2="hardAlpha" k2="-1" k3="1" operator="arithmetic"/><feColorMatrix values="0 0 0 0 0.629699 0 0 0 0 0.629699 0 0 0 0 0.629699 0 0 0 0.5 0"/><feBlend in2="shape" result="effect1_innerShadow_215_736"/></filter><linearGradient id="d" x1="82.717" x2="82.717" y1="158.271" y2="16.72" gradientUnits="userSpaceOnUse"><stop stop-color="#ffedd9" stop-opacity="0"/><stop offset=".347" stop-color="#fcdf97" stop-opacity=".682"/><stop offset="1" stop-color="#ffc489"/></linearGradient><linearGradient id="g" x1="136.144" x2="136.144" y1="166.11" y2="30.163" gradientUnits="userSpaceOnUse"><stop stop-color="#ffedd9" stop-opacity="0"/><stop offset=".347" stop-color="#fcdf97" stop-opacity=".682"/><stop offset="1" stop-color="#ffc489"/></linearGradient><linearGradient id="j" x1="109.24" x2="109.24" y1="122.686" y2="177.23" gradientUnits="userSpaceOnUse"><stop stop-color="#fff4e7" stop-opacity="0"/><stop offset="1" stop-color="#e7a25d"/></linearGradient><linearGradient id="k" x1="46.396" x2="48.519" y1="147.678" y2="147.678" gradientUnits="userSpaceOnUse"><stop stop-color="#e8dfdb"/><stop offset="1" stop-color="#ccb9b5"/></linearGradient><linearGradient id="m" x1="81.4" x2="81.4" y1="152.53" y2="154.709" gradientUnits="userSpaceOnUse"><stop stop-color="#e8e2db" stop-opacity=".457"/><stop offset="1" stop-color="#ccc3b5"/></linearGradient><linearGradient id="n" x1="138.575" x2="135.966" y1="135.225" y2="141.188" gradientUnits="userSpaceOnUse"><stop stop-color="#ffb400" stop-opacity="0"/><stop offset="1" stop-color="#d04800" stop-opacity=".424"/></linearGradient><linearGradient id="o" x1="140.788" x2="142.859" y1="133.321" y2="133.321" gradientUnits="userSpaceOnUse"><stop stop-color="#e8dfdb"/><stop offset="1" stop-color="#ccb9b5"/></linearGradient><linearGradient id="q" x1="152.85" x2="152.85" y1="135.94" y2="137.284" gradientUnits="userSpaceOnUse"><stop stop-color="#e8e2db" stop-opacity=".457"/><stop offset="1" stop-color="#ccc3b5"/></linearGradient><linearGradient id="r" x1="156.182" x2="158.279" y1="153.738" y2="153.738" gradientUnits="userSpaceOnUse"><stop stop-color="#e8dfdb"/><stop offset="1" stop-color="#ccb9b5"/></linearGradient><linearGradient id="t" x1="174.63" x2="174.63" y1="158.6" y2="160.767" gradientUnits="userSpaceOnUse"><stop stop-color="#e8e2db" stop-opacity=".457"/><stop offset="1" stop-color="#ccc3b5"/></linearGradient><linearGradient id="u" x1="108.81" x2="108.81" y1="58.972" y2="77.178" gradientUnits="userSpaceOnUse"><stop stop-color="#ffe0a4"/><stop offset=".707" stop-color="#b87422"/><stop offset="1" stop-color="#703900"/></linearGradient><linearGradient id="x" x1="104.07" x2="104.07" y1="66.599" y2="166.463" gradientUnits="userSpaceOnUse"><stop stop-color="#ffb400"/><stop offset="1" stop-color="#fd5902"/></linearGradient><linearGradient id="y" x1="133.445" x2="144.143" y1="70.949" y2="63.485" gradientUnits="userSpaceOnUse"><stop stop-color="#ffb400"/><stop offset="1" stop-color="#fd5902"/></linearGradient><linearGradient id="z" x1="130.792" x2="135.763" y1="69.5" y2="64.223" gradientUnits="userSpaceOnUse"><stop stop-color="#ffb400"/><stop offset="1" stop-color="#fd5902"/></linearGradient><linearGradient id="A" x1="136.583" x2="144.216" y1="75.214" y2="71.2" gradientUnits="userSpaceOnUse"><stop stop-color="#ffb400"/><stop offset="1" stop-color="#fd5902"/></linearGradient><linearGradient id="B" x1="103.935" x2="103.935" y1="150.187" y2="79.02" gradientUnits="userSpaceOnUse"><stop stop-color="#fff2de"/><stop offset="1" stop-color="#fff"/></linearGradient><linearGradient id="D" x1="103.19" x2="103.19" y1="67.56" y2="79.68" gradientUnits="userSpaceOnUse"><stop stop-color="#f1c36b"/><stop offset=".621" stop-color="#d68d35"/><stop offset="1" stop-color="#b76611"/></linearGradient><linearGradient id="F" x1="87.834" x2="87.834" y1="144.5" y2="155.774" gradientUnits="userSpaceOnUse"><stop stop-color="#f1c36b"/><stop offset=".621" stop-color="#d68d35"/><stop offset="1" stop-color="#b76611"/></linearGradient><linearGradient id="H" x1="102.82" x2="102.82" y1="131.159" y2="151.57" gradientUnits="userSpaceOnUse"><stop stop-color="#fad961"/><stop offset="1" stop-color="#f76b1c"/></linearGradient><linearGradient id="Y" x1="83.814" x2="84.287" y1="152.435" y2="149.968" gradientUnits="userSpaceOnUse"><stop stop-color="#301911"/><stop offset="1" stop-color="#af6f27"/></linearGradient><linearGradient id="Z" x1="73.464" x2="83.37" y1="147.266" y2="147.265" gradientUnits="userSpaceOnUse"><stop stop-color="#e95100"/><stop offset=".275" stop-color="#fd5e02"/><stop offset=".503" stop-color="#ff8404"/><stop offset=".758" stop-color="#fd6002"/><stop offset="1" stop-color="#e24e00"/></linearGradient><linearGradient id="an" x1="75.853" x2="85.625" y1="111.828" y2="111.828" gradientUnits="userSpaceOnUse"><stop stop-color="#301911"/><stop offset=".431" stop-color="#6e431c"/><stop offset="1" stop-color="#381b0e"/></linearGradient><linearGradient id="ap" x1="66.867" x2="66.617" y1="156.126" y2="154.746" gradientUnits="userSpaceOnUse"><stop stop-color="#301911"/><stop offset="1" stop-color="#af6f27"/></linearGradient><path id="e" fill="#fff" d="M50.73 75.14c-2.5 0-4.39-1.77-4.39-4.13 0-2 2.14-3.16 4.12-3.58.51-2.14 1.82-4.13 4.31-4.13.74 0 1.47.14 2.14.4 1.24-1.84 3.47-2.96 5.93-2.96 3.83 0 6.14 4 6.14 6.09 0 .18.8.42.79.6 1.43.73 2.34 2.1 2.34 3.58 0 2.27-2.1 4.13-4.66 4.13z"/><path id="h" fill="#fff" d="M161.58 96.12c-.72-3.11-2.5-5.83-6.19-5.83-4.16 0-4.82 3.66-6.07 5.83-2.16-.92-5.97 1.29-5.97 4.05 0 3 2.6 4.52 5.97 4.52h13.12c2.77 0 5.16-1.99 5.16-4.52 0-2.35-3.18-5.37-6.02-4.05"/><path id="I" fill="#fff" d="M108.75 140.05c1.04 3.63-.89 7.36-4.31 8.34s-7.03-1.16-8.07-4.78c-1.04-3.63.89-7.36 4.31-8.34s7.03 1.16 8.07 4.78"/><path id="L" fill="#fff" d="M111.04 94.32c-1.83-1.6-4.37-2.42-7.54-2.42-3.2 0-5.84.93-7.85 2.75-2.04 1.86-3.08 4-3.08 6.37 0 1.53.8 2.24 2.52 2.24 1.62 0 2.42-.74 2.51-2.34.07-1.26.64-2.35 1.66-3.24 1.03-.89 2.41-1.34 4.1-1.34 1.68 0 3.02.41 3.98 1.2.98.8 1.47 1.93 1.47 3.35 0 .59-.04 1.1-.13 1.53-.09.45-.29.9-.6 1.34-.3.43-.7.89-1.21 1.37-.5.46-1.15 1.05-1.96 1.75-1.68 1.5-2.97 3.03-3.81 4.53-.83 1.48-1.25 2.98-1.25 4.46 0 .52.03.97.09 1.33.06.31.17.56.34.73.16.17.41.3.73.37.37.09.88.13 1.55.13 1.58 0 2.31-.82 2.31-2.56 0-.59.05-1.12.13-1.6.09-.48.29-.98.59-1.48q.45-.735 1.32-1.65c.57-.59 1.35-1.33 2.31-2.17 1.56-1.39 2.72-2.71 3.47-3.92.73-1.2 1.1-2.5 1.1-3.89-.01-2.94-.93-5.24-2.75-6.84m-5.85 27.29c-.31-.28-.67-.5-1.07-.66-.41-.17-.85-.25-1.32-.25s-.91.08-1.32.25c-.41.16-.76.38-1.07.66q-.48.405-.75.96c-.18.36-.27.74-.27 1.16q0 .63.27 1.17t.75.96c.31.27.67.5 1.07.66q.615.24 1.32.24c.47 0 .91-.07 1.32-.24s.76-.39 1.07-.66q.48-.42.75-.96t.27-1.17c0-.41-.09-.8-.27-1.16a3.1 3.1 0 0 0-.75-.96"/><path id="N" fill="#fff" d="M75.39 158.09c3.24 2.43 5.01 3.85 5.32 4.28.3.43.65 1.11 1.02 2.05 1.31-.18 2.56-.57 3.76-1.18.38-.19.83-.9 1.37-2.15.03-.12.02-.22-.04-.31-.19-.29-.91-.45-1.25-.49q-.6-.06-1.59.9c-.48-.46-.79-.81-.95-1.04s-.33-.62-.49-1.19z"/><path id="P" fill="#fff" d="M71.97 158.72a3.16 3.16 0 0 1-.51 1.45c-.29.44-.81 1.01-1.55 1.69a73 73 0 0 0 3.01 2.89c.31.28.95.52 1.94.71.12-.02.21-.06.27-.15.21-.28.1-1.01.01-1.35-.1-.39-.57-.78-1.41-1.16q.39-.915.63-1.26c.16-.23.47-.53.94-.88z"/><path id="S" fill="#fff" d="M81.14 144.92c3 4.61 4.3 7.91 3.91 9.91-.59 3-3.49 6.59-7.22 6.59-1.09 0-1.86-.14-2.4-.27-1.09-.27-1.59-.58-2.08-.94-.26-.19-.7-.54-.94-.82-.81-.92-2.15-2.27-2.15-4.66 0-1.12.53-2.25 1.58-3.36.64-.93 1.14-1.85 1.51-2.75.37-.91.79-2.2 1.26-3.9z"/><path id="W" fill="#fff" d="M80.11 150.89c3.26 2.33 5.21 2.55 5.89 1.54.69-1.01-.69-2.29-3.91-4.47-3.22-2.17-4.5-1.2-4.66-.96s-.58 1.56 2.68 3.89"/><path id="ac" fill="#fff" d="M74.28 145.03c-6.07-1.85-13.61-6.39-14.28-11.95-.45-3.75.92-5.85 2.36-8.39 2.25-3.97 6-7.6 8.72-9.57 2.71-1.97 4.89-2.9 10.7-1.12 6.76 2.06 7.92 3.62 9.21 7.21 1.24 3.44.44 8.68 1.86 12.8.83 2.4 1.36 6.05-.85 8.86-3.68 4.68-11.4 4.1-17.72 2.16"/><path id="af" fill="#000" d="M80.47 113.03c-7.7 6.36-10.13 12.69-7.29 19 1.89 4.2 7.73 8.77 14.74 9.26 2.45.17 4.51-.02 6.19-.57.17-1.46.16-2.47-.01-3.02-1.35-4.25-1.2-7.63-1.54-10.06-.29-2.08-.5-3.44-1.21-5.68-.16-.5-.65-1.75-1.48-3.77-1.37-1.3-2.58-2.21-3.62-2.72-1.03-.51-2.96-1.33-5.78-2.44"/><path id="al" fill="#fff" d="M80.33 119.76c-1.4 2.25-3.36 2.4-5.39 3.51-.57.32-1.25.77-1.56.58-.25-.16-.15-.97-.08-1.6.08-.73.16-1.69-.07-2.86-.22-1.15-.61-2.23.32-3.71.63-1.01 2.93-1.85 4.68-.76 2.31 1.45 2.99 3.42 2.1 4.84"/><radialGradient id="c" cx="0" cy="0" r="1" gradientTransform="matrix(113.776 0 0 114.983 110.38 114.922)" gradientUnits="userSpaceOnUse"><stop stop-color="#ffdfae"/><stop offset="1" stop-color="#ffe389"/></radialGradient><radialGradient id="R" cx="0" cy="0" r="1" gradientTransform="matrix(16.8158 0 0 18.9011 77.689 153.07)" gradientUnits="userSpaceOnUse"><stop stop-color="#fff"/><stop offset="1" stop-color="#d8d8d8"/></radialGradient><radialGradient id="U" cx="0" cy="0" r="1" gradientTransform="matrix(10.0482 0 0 20.8682 82.823 149.978)" gradientUnits="userSpaceOnUse"><stop stop-color="#fff"/><stop offset="1" stop-color="#cecece"/></radialGradient><radialGradient id="V" cx="0" cy="0" r="1" gradientTransform="matrix(16.7612 0 0 12.1654 81.748 149.789)" gradientUnits="userSpaceOnUse"><stop stop-color="#fff"/><stop offset="1" stop-color="#d2d2d2"/></radialGradient><radialGradient id="ab" cx="0" cy="0" r="1" gradientTransform="matrix(41.6566 0 0 41.3605 76.74 129.761)" gradientUnits="userSpaceOnUse"><stop stop-color="#fff"/><stop offset="1" stop-color="#d2d2d2"/></radialGradient><radialGradient id="ae" cx="0" cy="0" r="1" gradientTransform="matrix(12.3143 0 0 15.7089 78.318 129.599)" gradientUnits="userSpaceOnUse"><stop stop-color="#595959"/><stop offset="1"/></radialGradient><radialGradient id="ah" cx="0" cy="0" r="1" gradientTransform="matrix(14.8298 0 0 5.5056 83.046 141.428)" gradientUnits="userSpaceOnUse"><stop stop-color="#fffdf8"/><stop offset="1" stop-color="#cecece"/></radialGradient><radialGradient id="aj" cx="0" cy="0" r="1" gradientTransform="matrix(5.40827 0 0 5.45596 85.678 132.745)" gradientUnits="userSpaceOnUse"><stop stop-color="#2f140b"/><stop offset="1" stop-color="#866236"/></radialGradient><radialGradient id="ak" cx="0" cy="0" r="1" gradientTransform="matrix(7.20753 0 0 8.82453 76.833 119.152)" gradientUnits="userSpaceOnUse"><stop stop-color="#fff"/><stop offset="1" stop-color="#d2d2d2"/></radialGradient><radialGradient id="aq" cx="0" cy="0" r="1" gradientTransform="matrix(7.8986 0 0 3.94183 68.695 156.166)" gradientUnits="userSpaceOnUse"><stop stop-color="#fff"/><stop offset="1" stop-color="#d8d8d8"/></radialGradient><clipPath id="a"><path fill="#fff" d="M0 0h220v220H0z"/></clipPath></defs></svg>