<svg xmlns="http://www.w3.org/2000/svg" width="16" height="12" fill="none" viewBox="0 0 16 12"><path fill="#000" d="M5.685 8.857a3.57 3.57 0 0 1 4.63 0 .33.33 0 0 1 .01.482l-2.092 2.125a.326.326 0 0 1-.465 0L5.675 9.339a.333.333 0 0 1 .01-.482M2.893 6.021a7.466 7.466 0 0 1 10.217 0 .34.34 0 0 1 .005.484l-1.21 1.23a.323.323 0 0 1-.453.006 5.12 5.12 0 0 0-3.451-1.338 5.12 5.12 0 0 0-3.449 1.338.324.324 0 0 1-.454-.006l-1.209-1.23a.34.34 0 0 1 .004-.484M.101 3.194a11.365 11.365 0 0 1 15.8 0 .34.34 0 0 1 .001.48l-1.21 1.231a.32.32 0 0 1-.455.003 9.02 9.02 0 0 0-6.236-2.507 9.02 9.02 0 0 0-6.238 2.507.32.32 0 0 1-.454-.003L.098 3.675a.34.34 0 0 1 .003-.48"/></svg>