<svg width="17" height="11" viewBox="0 0 17 11" fill="none" xmlns="http://www.w3.org/2000/svg">
<path d="M2 6.71484C2.55228 6.71484 3 7.16634 3 7.72266V9.7373C2.99996 10.2936 2.55226 10.7441 2 10.7441H1C0.447741 10.7441 4.21464e-05 10.2936 0 9.7373V7.72266C0 7.16634 0.447715 6.71484 1 6.71484H2ZM6.66699 4.70117C7.21912 4.70135 7.66698 5.15181 7.66699 5.70801V9.7373C7.66695 10.2935 7.2191 10.744 6.66699 10.7441H5.66699C5.11473 10.7441 4.66703 10.2936 4.66699 9.7373V5.70801C4.667 5.1517 5.11471 4.70117 5.66699 4.70117H6.66699ZM11.333 2.35059C11.8852 2.35059 12.3329 2.80122 12.333 3.35742V9.7373C12.333 10.2936 11.8853 10.7441 11.333 10.7441H10.333C9.7809 10.744 9.33305 10.2935 9.33301 9.7373V3.35742C9.33314 2.80133 9.78095 2.35076 10.333 2.35059H11.333ZM16 0C16.5521 0 16.9998 0.450733 17 1.00684V9.7373C17 10.2936 16.5523 10.7441 16 10.7441H15C14.4477 10.7441 14 10.2936 14 9.7373V1.00684C14.0002 0.450733 14.4479 0 15 0H16Z" fill="black"/>
</svg>
