<svg xmlns="http://www.w3.org/2000/svg" width="16" height="16" fill="none" viewBox="0 0 16 16"><path fill="#353566" d="M10.333 6.667a.333.333 0 0 0-.667 0v2.666a.333.333 0 1 0 .667 0z"/><path fill="#353566" fill-rule="evenodd" d="M4.718 2c-.64 0-1.142 0-1.544.033-.41.033-.747.103-1.051.258-.502.255-.91.663-1.166 1.165C.802 3.76.733 4.097.7 4.507c-.032.403-.032.904-.032 1.545v.122c0 .173.131.317.303.332a1.5 1.5 0 0 1 0 2.988.333.333 0 0 0-.303.332v.122c0 .641 0 1.142.032 1.545.034.41.103.747.258 1.051.256.502.664.91 1.166 1.165.304.155.64.225 1.05.258.403.033.904.033 1.545.033h6.563c.641 0 1.143 0 1.545-.033.41-.033.747-.103 1.051-.258.502-.255.91-.663 1.165-1.165.156-.304.225-.641.258-1.051.033-.403.033-.904.033-1.545v-.122a.333.333 0 0 0-.303-.332 1.5 1.5 0 0 1 0-2.988.333.333 0 0 0 .303-.332v-.122c0-.641 0-1.142-.033-1.545-.033-.41-.102-.747-.258-1.051a2.67 2.67 0 0 0-1.165-1.165c-.304-.155-.641-.225-1.05-.258C12.423 2 11.921 2 11.28 2zm4.948.667v1.666a.333.333 0 1 0 .667 0V2.667h.934c.658 0 1.133 0 1.505.03.368.03.608.088.803.188a2 2 0 0 1 .874.874c.099.194.157.434.187.802.028.339.03.761.03 1.33a2.167 2.167 0 0 0 0 4.218c0 .569-.002.991-.03 1.33-.03.368-.088.608-.187.802a2 2 0 0 1-.874.874c-.195.1-.435.158-.803.188-.373.03-.847.03-1.505.03h-.934v-1.666a.333.333 0 0 0-.667 0v1.666H4.733c-.659 0-1.133 0-1.505-.03-.369-.03-.608-.088-.803-.188a2 2 0 0 1-.874-.874c-.1-.194-.157-.434-.187-.802a18 18 0 0 1-.03-1.33 2.167 2.167 0 0 0 0-4.218c0-.569.002-.991.03-1.33.03-.368.088-.608.187-.802a2 2 0 0 1 .874-.874c.195-.1.434-.158.803-.188.372-.03.846-.03 1.505-.03z" clip-rule="evenodd"/></svg>