<svg xmlns="http://www.w3.org/2000/svg" width="16" height="16" fill="none" viewBox="0 0 16 16"><path fill="#353566" fill-rule="evenodd" d="M2.445 1.723C1.616 2.17 1 2.841 1 3.667v8c0 .89.609 1.565 1.45 1.999.844.435 1.984.667 3.217.667q.656-.001 1.259-.106.093.056.19.105c.845.436 1.984.668 3.217.668s2.373-.232 3.217-.668c.841-.434 1.45-1.108 1.45-1.999V9.667c0-.826-.617-1.498-1.444-1.944C12.714 7.27 11.574 7 10.333 7V3.667c0-.826-.616-1.498-1.444-1.944C8.047 1.27 6.907 1 5.667 1c-1.241 0-2.38.27-3.222.723m.316.587c-.74.399-1.094.894-1.094 1.357s.354.958 1.094 1.356c.726.391 1.753.644 2.906.644 1.152 0 2.179-.253 2.906-.644.727-.392 1.081-.876 1.093-1.332v-.037c-.006-.46-.36-.949-1.093-1.344-.727-.391-1.754-.643-2.906-.643s-2.18.252-2.906.643m6.694 4.736q.206-.338.212-.695V5.06a3.6 3.6 0 0 1-.778.551c-.842.453-1.982.723-3.222.723-1.241 0-2.38-.27-3.222-.723a3.6 3.6 0 0 1-.778-.551v1.274c0 .54.361 1.032 1.088 1.407.724.373 1.751.593 2.912.593q.325 0 .636-.029c.227-.222.503-.417.808-.58.639-.344 1.448-.583 2.344-.678M5.808 9h-.141c-1.233 0-2.373-.232-3.217-.668a3.4 3.4 0 0 1-.783-.544v1.224c.005.535.367 1.022 1.088 1.394.724.374 1.751.594 2.912.594V9.667c0-.236.05-.46.141-.668m.525 2.329v-.269c.222.21.487.394.778.551.842.453 1.982.723 3.222.723 1.241 0 2.38-.27 3.223-.723.29-.157.556-.342.777-.551v1.274c0 .54-.361 1.031-1.088 1.407-.724.373-1.751.593-2.912.593-1.16 0-2.187-.22-2.91-.593-.728-.376-1.09-.867-1.09-1.407zm-.666.339c-1.233 0-2.373-.232-3.217-.668a3.4 3.4 0 0 1-.783-.545v1.213c0 .539.361 1.03 1.088 1.406.724.374 1.751.594 2.912.594q.269 0 .528-.02c-.329-.364-.528-.803-.528-1.314zm1.76-3.357c-.74.399-1.094.894-1.094 1.357s.354.958 1.094 1.356c.727.391 1.754.644 2.906.644s2.18-.253 2.906-.644c.728-.392 1.082-.876 1.094-1.332v-.037c-.006-.46-.36-.949-1.094-1.344-.726-.391-1.753-.643-2.906-.643-1.152 0-2.179.252-2.906.643" clip-rule="evenodd"/></svg>