<svg xmlns="http://www.w3.org/2000/svg" width="16" height="16" fill="none" viewBox="0 0 16 16"><path fill="#353566" fill-rule="evenodd" d="M6.95 1.993c.424-.88 1.677-.88 2.101 0l1.42 2.946a.33.33 0 0 0 .258.186l3.255.425c.977.127 1.366 1.333.648 2.007l-2.371 2.228a.33.33 0 0 0-.1.304l.598 3.192c.18.963-.836 1.706-1.7 1.242l-2.9-1.559a.33.33 0 0 0-.316 0l-2.902 1.56c-.863.463-1.879-.28-1.699-1.243l.597-3.192a.33.33 0 0 0-.1-.304L1.37 7.557c-.718-.674-.329-1.88.648-2.007l3.255-.425a.33.33 0 0 0 .257-.186zm1.5.29a.5.5 0 0 0-.9 0L6.13 5.228a1 1 0 0 1-.772.557l-3.255.425a.5.5 0 0 0-.278.86L4.196 9.3a1 1 0 0 1 .298.913l-.596 3.191a.5.5 0 0 0 .728.533l2.901-1.56a1 1 0 0 1 .947 0l2.901 1.56a.5.5 0 0 0 .728-.533l-.597-3.191a1 1 0 0 1 .298-.913l2.372-2.228a.5.5 0 0 0-.278-.86l-3.255-.425a1 1 0 0 1-.772-.557z" clip-rule="evenodd"/></svg>