<svg width="24" height="24" viewBox="0 0 24 24" fill="none" xmlns="http://www.w3.org/2000/svg">
<path d="M15.21 5.5C14.7958 5.5 14.46 5.83579 14.46 6.25C14.46 6.66421 14.7958 7 15.21 7C16.8191 7 17.996 8.3642 17.996 10.1346C17.996 10.5488 18.3318 10.8846 18.746 10.8846C19.1602 10.8846 19.496 10.5488 19.496 10.1346C19.496 7.7358 17.8343 5.5 15.21 5.5Z" fill="#CCCCCC"/>
<path fill-rule="evenodd" clip-rule="evenodd" d="M7.89333 2.25C3.85795 2.25 1.25 5.6858 1.25 9.47438C1.25 13.301 3.56046 16.37 5.93786 18.4936C8.31635 20.6183 10.9037 21.9251 11.7628 22.2115L12 22.2906L12.2372 22.2115C13.0963 21.9251 15.6837 20.6183 18.0621 18.4936C20.4395 16.37 22.75 13.301 22.75 9.47438C22.75 5.6858 20.1421 2.25 16.1067 2.25C14.2398 2.25 12.8942 3.06969 12 3.91063C11.1058 3.06969 9.76025 2.25 7.89333 2.25ZM2.75 9.47438C2.75 6.3142 4.87317 3.75 7.89333 3.75C9.60595 3.75 10.7397 4.66987 11.4269 5.48383L12 6.16259L12.5731 5.48383C13.2603 4.66987 14.3941 3.75 16.1067 3.75C19.1268 3.75 21.25 6.3142 21.25 9.47438C21.25 12.6733 19.3105 15.3672 17.0629 17.375C15.0361 19.1854 12.8742 20.3336 12 20.6978C11.1258 20.3336 8.96385 19.1854 6.93714 17.375C4.68954 15.3672 2.75 12.6733 2.75 9.47438Z" fill="#CCCCCC"/>
</svg>
