<svg xmlns="http://www.w3.org/2000/svg" width="18" height="16" fill="none" viewBox="0 0 18 16"><g fill="#c28c78" clip-path="url(#a)"><path d="M10.354 10.354a.5.5 0 0 1-.707 0L8 8.707l-1.646 1.647a.5.5 0 1 1-.707-.707L7.293 8 5.647 6.354a.5.5 0 0 1 .707-.707L8 7.293l1.647-1.646a.5.5 0 1 1 .707.707L8.707 8l1.647 1.647a.5.5 0 0 1 0 .707"/><path fill-rule="evenodd" d="M.167 8a7.833 7.833 0 1 1 15.666 0A7.833 7.833 0 0 1 .167 8M8 1.167a6.833 6.833 0 1 0 0 13.666A6.833 6.833 0 0 0 8 1.167" clip-rule="evenodd"/></g><defs><clipPath id="a"><path fill="#fff" d="M0 0h16v16H0z"/></clipPath></defs></svg>