<svg xmlns="http://www.w3.org/2000/svg" width="16" height="16" fill="none" viewBox="0 0 16 16"><path fill="#fff" d="m1.72 12.673-.013.014a4.1 4.1 0 0 1-.34-1.334c.046.487.173.927.353 1.32M6 6.92a1.587 1.587 0 1 0 0-3.173A1.587 1.587 0 0 0 6 6.92"/><path fill="#fff" d="M10.794 1.333H5.207c-2.427 0-3.873 1.447-3.873 3.874v5.586q.001 1.092.373 1.894c.573 1.266 1.8 1.98 3.5 1.98h5.587c2.426 0 3.873-1.447 3.873-3.874V5.207c0-2.427-1.447-3.874-3.873-3.874m2.786 7c-.52-.446-1.36-.446-1.88 0l-2.773 2.38c-.52.447-1.36.447-1.88 0l-.227-.186c-.473-.414-1.227-.454-1.76-.094l-2.493 1.674a3.6 3.6 0 0 1-.234-1.314V5.207c0-1.88.994-2.874 2.874-2.874h5.587c1.88 0 2.873.994 2.873 2.874v3.2z"/></svg>