<svg width="22" height="19" viewBox="0 0 22 19" fill="none" xmlns="http://www.w3.org/2000/svg">
<path d="M18.75 1.91406C21.6797 4.375 21.25 8.39844 19.1797 10.5469L12.3047 17.5391C11.9141 17.9297 11.4062 18.1641 10.8594 18.1641C10.2734 18.1641 9.76562 17.9297 9.375 17.5391L2.53906 10.5469C0.429688 8.39844 0 4.375 2.92969 1.91406C5.19531 0 8.67188 0.273438 10.8594 2.5C13.0078 0.273438 16.4844 0 18.75 1.91406ZM17.8125 9.21875C19.2578 7.77344 19.5312 5.03906 17.5391 3.32031C16.0156 2.07031 13.6719 2.26562 12.2266 3.75L10.8594 5.15625L9.49219 3.75C8.00781 2.26562 5.66406 2.07031 4.14062 3.35938C2.14844 5.03906 2.42188 7.77344 3.86719 9.21875L10.7031 16.2109C10.8203 16.2891 10.8984 16.2891 10.9766 16.2109L17.8125 9.21875Z" fill="#1F2937"/>
</svg>
