<svg width="20" height="20" viewBox="0 0 20 20" fill="none" xmlns="http://www.w3.org/2000/svg">
<circle cx="10" cy="10" r="10" fill="#6E9FD3"/>
<g clip-path="url(#clip0_75_1435)">
<path d="M14.7889 8.02764C14.2055 5.46098 11.9666 4.30542 9.99997 4.30542C9.99997 4.30542 9.99997 4.30542 9.99442 4.30542C8.0333 4.30542 5.78886 5.45542 5.20553 8.02209C4.55553 10.8888 6.31108 13.3165 7.89997 14.8443C8.48886 15.411 9.24442 15.6943 9.99997 15.6943C10.7555 15.6943 11.5111 15.411 12.0944 14.8443C13.6833 13.3165 15.4389 10.8943 14.7889 8.02764ZM9.99997 10.811C9.03331 10.811 8.24997 10.0276 8.24997 9.06098C8.24997 8.09431 9.03331 7.31098 9.99997 7.31098C10.9666 7.31098 11.75 8.09431 11.75 9.06098C11.75 10.0276 10.9666 10.811 9.99997 10.811Z" fill="white"/>
</g>
<defs>
<clipPath id="clip0_75_1435">
<rect width="13.3333" height="13.3333" fill="white" transform="translate(3.33325 3.33325)"/>
</clipPath>
</defs>
</svg>
