<svg width="50" height="50" viewBox="0 0 50 50" fill="none" xmlns="http://www.w3.org/2000/svg">
<g filter="url(#filter0_dd_9_389)">
<rect x="5" y="1" width="40" height="40" rx="20" fill="white" fill-opacity="0.8" shape-rendering="crispEdges"/>
<path d="M32.8906 16.0391C35.8203 18.5 35.3906 22.5234 33.3203 24.6719L26.4453 31.6641C26.0547 32.0547 25.5469 32.2891 25 32.2891C24.4141 32.2891 23.9062 32.0547 23.5156 31.6641L16.6797 24.6719C14.5703 22.5234 14.1406 18.5 17.0703 16.0391C19.3359 14.125 22.8125 14.3984 25 16.625C27.1484 14.3984 30.625 14.125 32.8906 16.0391ZM31.9531 23.3438C33.3984 21.8984 33.6719 19.1641 31.6797 17.4453C30.1562 16.1953 27.8125 16.3906 26.3672 17.875L25 19.2812L23.6328 17.875C22.1484 16.3906 19.8047 16.1953 18.2812 17.4844C16.2891 19.1641 16.5625 21.8984 18.0078 23.3438L24.8438 30.3359C24.9609 30.4141 25.0391 30.4141 25.1172 30.3359L31.9531 23.3438Z" fill="#1F2937"/>
</g>
<defs>
<filter id="filter0_dd_9_389" x="0" y="0" width="50" height="50" filterUnits="userSpaceOnUse" color-interpolation-filters="sRGB">
<feFlood flood-opacity="0" result="BackgroundImageFix"/>
<feColorMatrix in="SourceAlpha" type="matrix" values="0 0 0 0 0 0 0 0 0 0 0 0 0 0 0 0 0 0 127 0" result="hardAlpha"/>
<feMorphology radius="2" operator="erode" in="SourceAlpha" result="effect1_dropShadow_9_389"/>
<feOffset dy="2"/>
<feGaussianBlur stdDeviation="2"/>
<feComposite in2="hardAlpha" operator="out"/>
<feColorMatrix type="matrix" values="0 0 0 0 0 0 0 0 0 0 0 0 0 0 0 0 0 0 0.1 0"/>
<feBlend mode="normal" in2="BackgroundImageFix" result="effect1_dropShadow_9_389"/>
<feColorMatrix in="SourceAlpha" type="matrix" values="0 0 0 0 0 0 0 0 0 0 0 0 0 0 0 0 0 0 127 0" result="hardAlpha"/>
<feMorphology radius="1" operator="erode" in="SourceAlpha" result="effect2_dropShadow_9_389"/>
<feOffset dy="4"/>
<feGaussianBlur stdDeviation="3"/>
<feComposite in2="hardAlpha" operator="out"/>
<feColorMatrix type="matrix" values="0 0 0 0 0 0 0 0 0 0 0 0 0 0 0 0 0 0 0.1 0"/>
<feBlend mode="normal" in2="effect1_dropShadow_9_389" result="effect2_dropShadow_9_389"/>
<feBlend mode="normal" in="SourceGraphic" in2="effect2_dropShadow_9_389" result="shape"/>
</filter>
</defs>
</svg>
