<svg width="50" height="50" viewBox="0 0 50 50" fill="none" xmlns="http://www.w3.org/2000/svg">
<g filter="url(#filter0_dd_71_1223)">
<rect x="5" y="1" width="40" height="40" rx="20" fill="white" fill-opacity="0.8" shape-rendering="crispEdges"/>
<g clip-path="url(#clip0_71_1223)">
<path d="M32.4999 17.6667C32.4999 18.1269 32.873 18.5 33.3333 18.5C33.7935 18.5 34.1666 18.1269 34.1666 17.6667V12.6666C34.1666 12.2063 33.7935 11.8333 33.3333 11.8333L28.3333 11.8333C27.873 11.8333 27.4999 12.2063 27.4999 12.6666C27.4999 13.1268 27.873 13.4999 28.3333 13.4999H31.3215L23.5773 21.2441C23.2519 21.5695 23.2519 22.0972 23.5773 22.4226C23.9028 22.748 24.4304 22.748 24.7558 22.4226L32.4999 14.6785V17.6667Z" fill="#1F2937"/>
<path d="M20.6322 13.5L24.1666 13.5C24.6268 13.5 24.9999 13.8731 24.9999 14.3334C24.9999 14.7936 24.6268 15.1667 24.1666 15.1667H20.6666C19.9528 15.1667 19.4675 15.1673 19.0925 15.198C18.7271 15.2278 18.5403 15.2819 18.4099 15.3483C18.0963 15.5081 17.8414 15.7631 17.6816 16.0767C17.6152 16.207 17.5611 16.3939 17.5312 16.7592C17.5006 17.1343 17.4999 17.6195 17.4999 18.3333V25.3333C17.4999 26.0472 17.5006 26.5324 17.5312 26.9075C17.5611 27.2728 17.6152 27.4597 17.6816 27.59C17.8414 27.9036 18.0963 28.1586 18.4099 28.3184C18.5403 28.3848 18.7271 28.4389 19.0925 28.4687C19.4675 28.4994 19.9528 28.5 20.6666 28.5H27.6666C28.3804 28.5 28.8656 28.4994 29.2407 28.4687C29.6061 28.4389 29.7929 28.3848 29.9232 28.3184C30.2368 28.1586 30.4918 27.9036 30.6516 27.59C30.718 27.4597 30.7721 27.2728 30.802 26.9075C30.8326 26.5324 30.8333 26.0472 30.8333 25.3333V21.8334C30.8333 21.3731 31.2063 21 31.6666 21C32.1268 21 32.4999 21.3731 32.4999 21.8334V25.3678C32.4999 26.0386 32.4999 26.5922 32.4631 27.0432C32.4248 27.5116 32.3427 27.9422 32.1366 28.3466C31.817 28.9739 31.3071 29.4838 30.6799 29.8034C30.2754 30.0094 29.8449 30.0916 29.3764 30.1299C28.9254 30.1667 28.3718 30.1667 27.701 30.1667H20.6321C19.9613 30.1667 19.4077 30.1667 18.9567 30.1299C18.4883 30.0916 18.0577 30.0094 17.6533 29.8034C17.0261 29.4838 16.5161 28.9739 16.1966 28.3466C15.9905 27.9422 15.9084 27.5116 15.8701 27.0432C15.8332 26.5922 15.8332 26.0386 15.8333 25.3678V18.2989C15.8332 17.6281 15.8332 17.0745 15.8701 16.6235C15.9084 16.1551 15.9905 15.7245 16.1966 15.32C16.5161 14.6928 17.0261 14.1829 17.6533 13.8633C18.0577 13.6573 18.4883 13.5751 18.9567 13.5368C19.4077 13.5 19.9614 13.5 20.6322 13.5Z" fill="#1F2937"/>
</g>
</g>
<defs>
<filter id="filter0_dd_71_1223" x="0" y="0" width="50" height="50" filterUnits="userSpaceOnUse" color-interpolation-filters="sRGB">
<feFlood flood-opacity="0" result="BackgroundImageFix"/>
<feColorMatrix in="SourceAlpha" type="matrix" values="0 0 0 0 0 0 0 0 0 0 0 0 0 0 0 0 0 0 127 0" result="hardAlpha"/>
<feMorphology radius="2" operator="erode" in="SourceAlpha" result="effect1_dropShadow_71_1223"/>
<feOffset dy="2"/>
<feGaussianBlur stdDeviation="2"/>
<feComposite in2="hardAlpha" operator="out"/>
<feColorMatrix type="matrix" values="0 0 0 0 0 0 0 0 0 0 0 0 0 0 0 0 0 0 0.1 0"/>
<feBlend mode="normal" in2="BackgroundImageFix" result="effect1_dropShadow_71_1223"/>
<feColorMatrix in="SourceAlpha" type="matrix" values="0 0 0 0 0 0 0 0 0 0 0 0 0 0 0 0 0 0 127 0" result="hardAlpha"/>
<feMorphology radius="1" operator="erode" in="SourceAlpha" result="effect2_dropShadow_71_1223"/>
<feOffset dy="4"/>
<feGaussianBlur stdDeviation="3"/>
<feComposite in2="hardAlpha" operator="out"/>
<feColorMatrix type="matrix" values="0 0 0 0 0 0 0 0 0 0 0 0 0 0 0 0 0 0 0.1 0"/>
<feBlend mode="normal" in2="effect1_dropShadow_71_1223" result="effect2_dropShadow_71_1223"/>
<feBlend mode="normal" in="SourceGraphic" in2="effect2_dropShadow_71_1223" result="shape"/>
</filter>
<clipPath id="clip0_71_1223">
<rect width="20" height="20" fill="white" transform="translate(15 11)"/>
</clipPath>
</defs>
</svg>
