<svg xmlns="http://www.w3.org/2000/svg" width="20" height="20" viewBox="0 0 20 20" fill="none">
  <g clip-path="url(#clip0_71_1246)">
    <path d="M17.4999 6.66668C17.4999 7.12692 17.873 7.50002 18.3333 7.50002C18.7935 7.50002 19.1666 7.12692 19.1666 6.66668V1.66659C19.1666 1.20635 18.7935 0.833252 18.3333 0.833252L13.3333 0.833252C12.873 0.833252 12.4999 1.20635 12.4999 1.66659C12.4999 2.12682 12.873 2.49992 13.3333 2.49992H16.3215L8.57733 10.2441C8.25189 10.5695 8.25189 11.0972 8.57733 11.4226C8.90277 11.748 9.4304 11.748 9.75584 11.4226L17.4999 3.67853V6.66668Z" fill="#1F2937"/>
    <path d="M5.63217 2.50002L9.16658 2.50002C9.62682 2.50002 9.99992 2.87311 9.99992 3.33335C9.99992 3.79359 9.62682 4.16668 9.16658 4.16668H5.66659C4.95277 4.16668 4.46753 4.16733 4.09245 4.19798C3.7271 4.22783 3.54027 4.28193 3.40994 4.34834C3.09633 4.50813 2.84136 4.7631 2.68158 5.0767C2.61517 5.20703 2.56106 5.39387 2.53121 5.75921C2.50057 6.13429 2.49992 6.61953 2.49992 7.33335V14.3333C2.49992 15.0472 2.50057 15.5324 2.53121 15.9075C2.56106 16.2728 2.61517 16.4597 2.68158 16.59C2.84136 16.9036 3.09633 17.1586 3.40994 17.3184C3.54027 17.3848 3.7271 17.4389 4.09245 17.4687C4.46753 17.4994 4.95277 17.5 5.66659 17.5H12.6666C13.3804 17.5 13.8656 17.4994 14.2407 17.4687C14.6061 17.4389 14.7929 17.3848 14.9232 17.3184C15.2368 17.1586 15.4918 16.9036 15.6516 16.59C15.718 16.4597 15.7721 16.2728 15.802 15.9075C15.8326 15.5324 15.8333 15.0472 15.8333 14.3333V10.8334C15.8333 10.3731 16.2063 10 16.6666 10C17.1268 10 17.4999 10.3731 17.4999 10.8334V14.3678C17.4999 15.0386 17.4999 15.5922 17.4631 16.0432C17.4248 16.5116 17.3427 16.9422 17.1366 17.3466C16.817 17.9739 16.3071 18.4838 15.6799 18.8034C15.2754 19.0094 14.8449 19.0916 14.3764 19.1299C13.9254 19.1667 13.3718 19.1667 12.701 19.1667H5.63215C4.96135 19.1667 4.40772 19.1667 3.95673 19.1299C3.48832 19.0916 3.05773 19.0094 2.65328 18.8034C2.02608 18.4838 1.51614 17.9739 1.19656 17.3466C0.990489 16.9422 0.908352 16.5116 0.870081 16.0432C0.833234 15.5922 0.833242 15.0386 0.833252 14.3678V7.29893C0.833242 6.62813 0.833234 6.07449 0.870081 5.62349C0.908352 5.15508 0.990489 4.72449 1.19656 4.32005C1.51614 3.69284 2.02608 3.18291 2.65328 2.86333C3.05773 2.65725 3.48832 2.57512 3.95673 2.53684C4.40773 2.5 4.96136 2.50001 5.63217 2.50002Z" fill="#1F2937"/>
  </g>
  <defs>
    <clipPath id="clip0_71_1246">
      <rect width="20" height="20" fill="white"/>
    </clipPath>
  </defs>
</svg>
