<svg width="108" height="76" viewBox="0 0 108 76" fill="none" xmlns="http://www.w3.org/2000/svg">
<rect width="108" height="76" rx="6" fill="black" fill-opacity="0.3"/>
<path d="M54 16.375C60.4219 16.375 65.625 21.5781 65.625 28C65.625 34.4219 60.4219 39.625 54 39.625C47.5781 39.625 42.375 34.4219 42.375 28C42.375 21.5781 47.5781 16.375 54 16.375ZM59.3906 29.125C60.1875 28.7031 60.1875 27.625 59.3906 27.1562L51.1406 22.1406C50.3906 21.7656 49.5 22.2812 49.5 23.125V32.875C49.5 33.7656 50.3906 34.2812 51.1406 33.8594L59.3906 29.125Z" fill="white"/>
<path d="M36.408 58.932L36.948 58.092C37.484 58.268 38.016 58.468 38.544 58.692C39.072 58.908 39.564 59.132 40.02 59.364C40.484 59.596 40.88 59.824 41.208 60.048L40.524 60.948C40.204 60.708 39.824 60.468 39.384 60.228C38.944 59.996 38.468 59.768 37.956 59.544C37.452 59.312 36.936 59.108 36.408 58.932ZM35.052 50.112L36.18 49.764C36.348 50.012 36.512 50.288 36.672 50.592C36.832 50.888 36.948 51.148 37.02 51.372L35.82 51.768C35.756 51.552 35.648 51.288 35.496 50.976C35.352 50.656 35.204 50.368 35.052 50.112ZM31.008 51.132H41.016V53.712H39.84V52.188H32.136V53.712H31.008V51.132ZM35.928 52.752H37.128C37.096 53.624 37.044 54.432 36.972 55.176C36.9 55.92 36.764 56.596 36.564 57.204C36.364 57.804 36.068 58.348 35.676 58.836C35.284 59.316 34.756 59.732 34.092 60.084C33.428 60.444 32.592 60.744 31.584 60.984C31.536 60.832 31.448 60.66 31.32 60.468C31.192 60.276 31.068 60.12 30.948 60C31.892 59.792 32.668 59.54 33.276 59.244C33.884 58.94 34.364 58.58 34.716 58.164C35.068 57.748 35.324 57.272 35.484 56.736C35.652 56.2 35.76 55.604 35.808 54.948C35.864 54.284 35.904 53.552 35.928 52.752ZM30.84 56.832H41.232V57.804H30.84V56.832ZM32.844 53.376L33.516 52.644C33.724 52.756 33.94 52.888 34.164 53.04C34.396 53.184 34.612 53.336 34.812 53.496C35.012 53.648 35.176 53.796 35.304 53.94L34.584 54.756C34.472 54.612 34.316 54.46 34.116 54.3C33.924 54.132 33.716 53.968 33.492 53.808C33.276 53.648 33.06 53.504 32.844 53.376ZM31.632 55.224L32.292 54.456C32.508 54.56 32.736 54.688 32.976 54.84C33.216 54.984 33.44 55.132 33.648 55.284C33.856 55.436 34.024 55.58 34.152 55.716L33.468 56.58C33.34 56.436 33.172 56.284 32.964 56.124C32.764 55.956 32.548 55.792 32.316 55.632C32.084 55.472 31.856 55.336 31.632 55.224ZM42.348 56.112C42.7 56.032 43.1 55.936 43.548 55.824C43.996 55.704 44.464 55.58 44.952 55.452C45.448 55.324 45.94 55.192 46.428 55.056L46.572 56.148C45.892 56.34 45.204 56.536 44.508 56.736C43.82 56.936 43.188 57.112 42.612 57.264L42.348 56.112ZM42.516 52.236H46.452V53.34H42.516V52.236ZM43.992 49.872H45.144V59.712C45.144 60.008 45.108 60.236 45.036 60.396C44.972 60.564 44.852 60.696 44.676 60.792C44.5 60.88 44.276 60.936 44.004 60.96C43.74 60.992 43.4 61.004 42.984 60.996C42.968 60.844 42.928 60.664 42.864 60.456C42.8 60.256 42.732 60.08 42.66 59.928C42.908 59.936 43.136 59.94 43.344 59.94C43.552 59.94 43.696 59.936 43.776 59.928C43.848 59.928 43.9 59.916 43.932 59.892C43.972 59.86 43.992 59.8 43.992 59.712V49.872ZM47.016 52.02H53.004V60.888H51.828V53.088H48.144V60.96H47.016V52.02ZM47.7 55.596H52.296V56.676H47.7V55.596ZM47.7 59.244H52.296V60.324H47.7V59.244ZM49.5 49.884L50.832 50.04C50.696 50.504 50.548 50.972 50.388 51.444C50.228 51.916 50.072 52.316 49.92 52.644L48.876 52.452C48.964 52.22 49.048 51.956 49.128 51.66C49.208 51.356 49.28 51.052 49.344 50.748C49.408 50.436 49.46 50.148 49.5 49.884ZM57.084 55.2H64.152V61.044H63.024V56.076H58.176V61.044H57.084V55.2ZM54.684 53.58H65.316V54.504H54.684V53.58ZM55.536 51.984H64.644V52.86H55.536V51.984ZM57.816 56.76H63.48V57.504H57.816V56.76ZM57.816 58.212H63.48V58.956H57.816V58.212ZM57.708 59.7H63.492V60.576H57.708V59.7ZM63.864 49.944L64.56 50.76C63.976 50.864 63.32 50.956 62.592 51.036C61.872 51.108 61.116 51.168 60.324 51.216C59.532 51.256 58.732 51.288 57.924 51.312C57.124 51.336 56.352 51.348 55.608 51.348C55.6 51.22 55.572 51.072 55.524 50.904C55.484 50.736 55.44 50.596 55.392 50.484C56.12 50.476 56.876 50.464 57.66 50.448C58.452 50.424 59.228 50.392 59.988 50.352C60.756 50.304 61.472 50.248 62.136 50.184C62.8 50.112 63.376 50.032 63.864 49.944ZM58.86 50.844L60.036 51.084C59.772 52.06 59.424 53.008 58.992 53.928C58.56 54.848 58.024 55.692 57.384 56.46C56.744 57.228 55.968 57.88 55.056 58.416C55.008 58.328 54.94 58.228 54.852 58.116C54.772 58.004 54.684 57.896 54.588 57.792C54.5 57.68 54.42 57.588 54.348 57.516C55.196 57.044 55.916 56.456 56.508 55.752C57.108 55.04 57.6 54.264 57.984 53.424C58.368 52.576 58.66 51.716 58.86 50.844ZM67.788 52.188H68.916V54.876C68.916 55.324 68.892 55.808 68.844 56.328C68.804 56.848 68.728 57.376 68.616 57.912C68.504 58.448 68.34 58.968 68.124 59.472C67.908 59.968 67.624 60.42 67.272 60.828C67.208 60.764 67.116 60.688 66.996 60.6C66.884 60.52 66.764 60.44 66.636 60.36C66.516 60.288 66.408 60.232 66.312 60.192C66.648 59.816 66.912 59.404 67.104 58.956C67.304 58.5 67.452 58.036 67.548 57.564C67.644 57.092 67.708 56.624 67.74 56.16C67.772 55.696 67.788 55.264 67.788 54.864V52.188ZM68.364 52.188H76.368V54.876H68.364V54.024H75.252V53.028H68.364V52.188ZM66.96 50.472H77.076V51.492H66.96V50.472ZM68.292 55.788H77.376V56.7H68.292V55.788ZM71.544 57.54H75.396V58.416H71.544V57.54ZM71.916 54.768H73.032V56.244H71.916V54.768ZM75.144 57.54H76.272C76.272 57.54 76.268 57.592 76.26 57.696C76.26 57.8 76.252 57.888 76.236 57.96C76.196 58.52 76.144 58.984 76.08 59.352C76.024 59.72 75.96 60.012 75.888 60.228C75.816 60.444 75.728 60.604 75.624 60.708C75.504 60.82 75.376 60.9 75.24 60.948C75.104 60.996 74.944 61.024 74.76 61.032C74.592 61.048 74.364 61.056 74.076 61.056C73.788 61.056 73.476 61.048 73.14 61.032C73.132 60.888 73.1 60.724 73.044 60.54C72.996 60.364 72.932 60.208 72.852 60.072C73.148 60.104 73.428 60.124 73.692 60.132C73.956 60.14 74.144 60.144 74.256 60.144C74.36 60.144 74.444 60.136 74.508 60.12C74.58 60.112 74.64 60.084 74.688 60.036C74.76 59.972 74.82 59.856 74.868 59.688C74.916 59.512 74.964 59.264 75.012 58.944C75.06 58.616 75.104 58.192 75.144 57.672V57.54ZM71.208 56.268H72.348C72.292 56.836 72.2 57.364 72.072 57.852C71.944 58.34 71.748 58.784 71.484 59.184C71.228 59.584 70.876 59.936 70.428 60.24C69.98 60.552 69.404 60.816 68.7 61.032C68.668 60.944 68.616 60.844 68.544 60.732C68.472 60.62 68.396 60.508 68.316 60.396C68.236 60.292 68.156 60.208 68.076 60.144C68.7 59.976 69.208 59.768 69.6 59.52C69.992 59.264 70.296 58.976 70.512 58.656C70.728 58.328 70.888 57.964 70.992 57.564C71.096 57.164 71.168 56.732 71.208 56.268Z" fill="white"/>
</svg>
