<svg width="20" height="20" viewBox="0 0 20 20" fill="none" xmlns="http://www.w3.org/2000/svg">
<rect width="20" height="20" rx="10" fill="black" fill-opacity="0.5"/>
<path d="M4.75 8.71875V5.8125C4.75 5.50781 4.98438 5.25 5.3125 5.25H8.21875C8.35938 5.25 8.5 5.39062 8.5 5.53125V6.46875C8.5 6.63281 8.35938 6.75 8.21875 6.75H6.25V8.71875C6.25 8.88281 6.10938 9 5.96875 9H5.03125C4.86719 9 4.75 8.88281 4.75 8.71875ZM11.5 5.53125C11.5 5.39062 11.6172 5.25 11.7812 5.25H14.6875C14.9922 5.25 15.25 5.50781 15.25 5.8125V8.71875C15.25 8.88281 15.1094 9 14.9688 9H14.0312C13.8672 9 13.75 8.88281 13.75 8.71875V6.75H11.7812C11.6172 6.75 11.5 6.63281 11.5 6.46875V5.53125ZM14.9688 12C15.1094 12 15.25 12.1406 15.25 12.2812V15.1875C15.25 15.5156 14.9922 15.75 14.6875 15.75H11.7812C11.6172 15.75 11.5 15.6328 11.5 15.4688V14.5312C11.5 14.3906 11.6172 14.25 11.7812 14.25H13.75V12.2812C13.75 12.1406 13.8672 12 14.0312 12H14.9688ZM8.5 15.4688C8.5 15.6328 8.35938 15.75 8.21875 15.75H5.3125C4.98438 15.75 4.75 15.5156 4.75 15.1875V12.2812C4.75 12.1406 4.86719 12 5.03125 12H5.96875C6.10938 12 6.25 12.1406 6.25 12.2812V14.25H8.21875C8.35938 14.25 8.5 14.3906 8.5 14.5312V15.4688Z" fill="white"/>
</svg>
