<svg xmlns="http://www.w3.org/2000/svg" width="18" height="16" fill="none" viewBox="0 0 18 16"><g fill="#77a590" clip-path="url(#a)"><path d="M11.354 6.354a.5.5 0 1 0-.707-.707L7 9.293 5.354 7.647a.5.5 0 0 0-.707.707l2 2a.5.5 0 0 0 .707 0z"/><path fill-rule="evenodd" d="M8 .167a7.833 7.833 0 1 0 0 15.666A7.833 7.833 0 0 0 8 .167M1.167 8a6.833 6.833 0 1 1 13.666 0A6.833 6.833 0 0 1 1.167 8" clip-rule="evenodd"/></g><defs><clipPath id="a"><path fill="#fff" d="M0 0h16v16H0z"/></clipPath></defs></svg>