<svg width="24" height="24" viewBox="0 0 24 24" fill="none" xmlns="http://www.w3.org/2000/svg">
<path fill-rule="evenodd" clip-rule="evenodd" d="M4.75 6.5C4.75 3.6005 7.1005 1.25 10 1.25C12.8995 1.25 15.25 3.6005 15.25 6.5C15.25 9.3995 12.8995 11.75 10 11.75C7.1005 11.75 4.75 9.3995 4.75 6.5ZM10 2.75C7.92893 2.75 6.25 4.42893 6.25 6.5C6.25 8.57107 7.92893 10.25 10 10.25C12.0711 10.25 13.75 8.57107 13.75 6.5C13.75 4.42893 12.0711 2.75 10 2.75Z" fill="#353566"/>
<path d="M10.0006 14.7501C6.2656 14.7501 3.17585 17.0731 2.74256 20.1062C2.68398 20.5162 2.30408 20.8012 1.89403 20.7426C1.48398 20.684 1.19905 20.3041 1.25763 19.8941C1.82434 15.9271 5.73459 13.2501 10.0006 13.2501C10.9511 13.2501 11.877 13.3811 12.7494 13.6265C13.1481 13.7387 13.3804 14.1529 13.2682 14.5516C13.156 14.9504 12.7418 15.1827 12.3431 15.0705C11.6028 14.8622 10.8137 14.7501 10.0006 14.7501Z" fill="#353566"/>
<path fill-rule="evenodd" clip-rule="evenodd" d="M19.7509 12.5007C19.7509 11.3184 18.2624 10.7981 17.5248 11.72L13.5248 16.7194C12.8696 17.5383 13.4536 18.7498 14.501 18.7498H16.2509V21.4992C16.2509 22.6815 17.7395 23.2017 18.477 22.2799L22.477 17.2804C23.1322 16.4615 22.5482 15.25 21.5009 15.25H19.7509V12.5007ZM15.0215 17.2498L18.2509 13.2135V15.5003C18.2509 16.1909 18.8109 16.75 19.5009 16.75H20.9803L17.7509 20.7864V18.4996C17.7509 17.809 17.1909 17.2498 16.5009 17.2498H15.0215Z" fill="#353566"/>
</svg>
