<svg width="40" height="40" viewBox="0 0 40 40" fill="none" xmlns="http://www.w3.org/2000/svg">
<rect x="8" y="4" width="32" height="32" rx="16" fill="#EFF6FF"/>
<path d="M16 23.7501C15.5858 23.7501 15.25 24.0858 15.25 24.5001C15.25 24.9143 15.5858 25.2501 16 25.2501H24C24.4142 25.2501 24.75 24.9143 24.75 24.5001C24.75 24.0858 24.4142 23.7501 24 23.7501H16Z" fill="#353566"/>
<path d="M15.25 20.5001C15.25 20.0858 15.5858 19.7501 16 19.7501H24C24.4142 19.7501 24.75 20.0858 24.75 20.5001C24.75 20.9143 24.4142 21.2501 24 21.2501H16C15.5858 21.2501 15.25 20.9143 15.25 20.5001Z" fill="#353566"/>
<path d="M16 15.7501C15.5858 15.7501 15.25 16.0858 15.25 16.5001C15.25 16.9143 15.5858 17.2501 16 17.2501H20C20.4142 17.2501 20.75 16.9143 20.75 16.5001C20.75 16.0858 20.4142 15.7501 20 15.7501H16Z" fill="#353566"/>
<path fill-rule="evenodd" clip-rule="evenodd" d="M22.7684 9.33294C22.4213 9.24963 22.0615 9.2498 21.5852 9.25002L16.7679 9.25005C15.9551 9.25004 15.2994 9.25003 14.7685 9.29341C14.2219 9.33807 13.7418 9.43243 13.2975 9.65877C12.5919 10.0183 12.0183 10.592 11.6587 11.2976C11.4324 11.7418 11.338 12.2219 11.2934 12.7686C11.25 13.2995 11.25 13.9551 11.25 14.7679V25.2322C11.25 26.045 11.25 26.7006 11.2934 27.2315C11.338 27.7782 11.4324 28.2583 11.6587 28.7025C12.0183 29.4081 12.5919 29.9818 13.2975 30.3413C13.7418 30.5677 14.2219 30.662 14.7685 30.7067C15.2994 30.7501 15.955 30.7501 16.7679 30.75H23.2321C24.045 30.7501 24.7006 30.7501 25.2315 30.7067C25.7781 30.662 26.2582 30.5677 26.7025 30.3413C27.4081 29.9818 27.9817 29.4081 28.3413 28.7025C28.5676 28.2583 28.662 27.7782 28.7066 27.2315C28.75 26.7006 28.75 26.045 28.75 25.2322L28.75 16.4148C28.7503 15.9386 28.7504 15.5787 28.6671 15.2317C28.5936 14.9256 28.4724 14.6329 28.3079 14.3645C28.1215 14.0603 27.8669 13.8059 27.53 13.4694L24.5307 10.4701C24.1941 10.1332 23.9398 9.8786 23.6355 9.69213C23.3671 9.52764 23.0745 9.40643 22.7684 9.33294ZM21.5088 10.75C22.0949 10.75 22.2656 10.7549 22.4182 10.7915C22.5712 10.8282 22.7176 10.8888 22.8518 10.9711C22.9855 11.0531 23.1097 11.1704 23.5241 11.5848L26.4153 14.476C26.8296 14.8903 26.947 15.0145 27.029 15.1483C27.1112 15.2825 27.1718 15.4288 27.2086 15.5819C27.2452 15.7344 27.25 15.9052 27.25 16.4912V25.2C27.25 26.0525 27.2494 26.6467 27.2116 27.1094C27.1745 27.5632 27.1054 27.824 27.0048 28.0215C26.789 28.4449 26.4448 28.7891 26.0215 29.0048C25.824 29.1055 25.5632 29.1746 25.1093 29.2117C24.6467 29.2495 24.0525 29.25 23.2 29.25H16.8C15.9475 29.25 15.3533 29.2495 14.8907 29.2117C14.4368 29.1746 14.176 29.1055 13.9785 29.0048C13.5552 28.7891 13.211 28.4449 12.9952 28.0215C12.8946 27.824 12.8255 27.5632 12.7884 27.1094C12.7506 26.6467 12.75 26.0525 12.75 25.2V14.8C12.75 13.9476 12.7506 13.3534 12.7884 12.8907C12.8255 12.4369 12.8946 12.1761 12.9952 11.9786C13.211 11.5552 13.5552 11.211 13.9785 10.9953C14.176 10.8946 14.4368 10.8255 14.8907 10.7884C15.3533 10.7506 15.9475 10.75 16.8 10.75H21.5088Z" fill="#353566"/>
</svg>
