<svg width="40" height="40" viewBox="0 0 40 40" fill="none" xmlns="http://www.w3.org/2000/svg">
<rect x="8" y="4" width="32" height="32" rx="16" fill="#EFF6FF"/>
<path d="M13.8128 11.9227C15.4538 10.2817 17.6794 9.35986 20 9.35986C21.9974 9.35986 23.9244 10.0428 25.4688 11.2794C25.7921 11.5383 25.8443 12.0103 25.5855 12.3336C25.3266 12.6569 24.8546 12.7092 24.5312 12.4503C23.2516 11.4257 21.655 10.8599 20 10.8599C18.0772 10.8599 16.2331 11.6237 14.8735 12.9833C13.5138 14.343 12.75 16.187 12.75 18.1099V25C12.75 25.4142 12.4142 25.75 12 25.75C11.5858 25.75 11.25 25.4142 11.25 25V18.1099C11.25 15.7892 12.1719 13.5636 13.8128 11.9227Z" fill="#353566"/>
<path d="M16.6412 14.6412C17.532 13.7504 18.7402 13.25 20 13.25C21.2598 13.25 22.468 13.7504 23.3588 14.6412C24.2496 15.532 24.75 16.7402 24.75 18V26.1099C24.75 27.3696 24.2496 28.5778 23.3588 29.4686C22.468 30.3594 21.2598 30.8599 20 30.8599C19.5858 30.8599 19.25 30.5241 19.25 30.1099C19.25 29.6957 19.5858 29.3599 20 29.3599C20.862 29.3599 21.6886 29.0175 22.2981 28.408C22.9076 27.7985 23.25 26.9718 23.25 26.1099V18C23.25 17.138 22.9076 16.3114 22.2981 15.7019C21.6886 15.0924 20.862 14.75 20 14.75C19.138 14.75 18.3114 15.0924 17.7019 15.7019C17.0924 16.3114 16.75 17.138 16.75 18V19.1099C16.75 19.5241 16.4142 19.8599 16 19.8599C15.5858 19.8599 15.25 19.5241 15.25 19.1099V18C15.25 16.7402 15.7504 15.532 16.6412 14.6412Z" fill="#353566"/>
<path d="M27.5585 15.3837C27.9595 15.2801 28.3686 15.5213 28.4722 15.9223C28.6552 16.631 28.75 17.3656 28.75 18.1099V26.1099C28.75 26.5241 28.4142 26.8599 28 26.8599C27.5858 26.8599 27.25 26.5241 27.25 26.1099V18.1099C27.25 17.4931 27.1714 16.8845 27.0198 16.2974C26.9162 15.8963 27.1574 15.4872 27.5585 15.3837Z" fill="#353566"/>
<path d="M20 17.25C20.4142 17.25 20.75 17.5858 20.75 18L20.75 26.1099C20.75 26.5241 20.4142 26.8599 20 26.8599C19.5858 26.8599 19.25 26.5241 19.25 26.1099L19.25 18C19.25 17.5858 19.5858 17.25 20 17.25Z" fill="#353566"/>
<path d="M16 22.8599C16.4142 22.8599 16.75 23.1957 16.75 23.6099V26.1099C16.75 26.5241 16.4142 26.8599 16 26.8599C15.5858 26.8599 15.25 26.5241 15.25 26.1099V23.6099C15.25 23.1957 15.5858 22.8599 16 22.8599Z" fill="#353566"/>
</svg>
