<svg width="40" height="40" viewBox="0 0 40 40" fill="none" xmlns="http://www.w3.org/2000/svg">
<rect x="8" y="4" width="32" height="32" rx="16" fill="#EFF6FF"/>
<path fill-rule="evenodd" clip-rule="evenodd" d="M22.909 13.909C23.7878 13.0303 25.2122 13.0303 26.091 13.909C26.9697 14.7878 26.9697 16.2122 26.091 17.091C25.2122 17.9697 23.7878 17.9697 22.909 17.091C22.0303 16.2122 22.0303 14.7878 22.909 13.909ZM23.9697 14.9697C24.2626 14.6768 24.7374 14.6768 25.0303 14.9697C25.3232 15.2626 25.3232 15.7374 25.0303 16.0303C24.7374 16.3232 24.2626 16.3232 23.9697 16.0303C23.6768 15.7374 23.6768 15.2626 23.9697 14.9697Z" fill="#353566"/>
<path fill-rule="evenodd" clip-rule="evenodd" d="M28.6264 11.3736C25.7949 8.54213 21.2051 8.54213 18.3736 11.3736C16.5176 13.2296 15.879 15.841 16.4548 18.2149C16.4932 18.3734 16.4457 18.4936 16.387 18.5524L9.76256 25.1768C9.43437 25.505 9.25 25.9501 9.25 26.4142V29.5C9.25 30.1904 9.80964 30.75 10.5 30.75H13.5C14.1904 30.75 14.75 30.1904 14.75 29.5V27.75H16.7929C17.1244 27.75 17.4424 27.6183 17.6768 27.3839L21.4476 23.613C21.5064 23.5543 21.6266 23.5068 21.7851 23.5452C24.159 24.121 26.7704 23.4824 28.6264 21.6264C31.4579 18.7949 31.4579 14.2051 28.6264 11.3736ZM19.4343 12.4343C21.6799 10.1886 25.3201 10.1886 27.5657 12.4343C29.8114 14.6799 29.8114 18.3201 27.5657 20.5657C26.0948 22.0367 24.0253 22.545 22.1387 22.0875C21.552 21.9452 20.8705 22.0689 20.387 22.5524L16.6893 26.25H14.5C13.8096 26.25 13.25 26.8096 13.25 27.5V29.25H10.75V26.4142C10.75 26.3479 10.7763 26.2843 10.8232 26.2374L17.4476 19.613C17.9311 19.1295 18.0548 18.448 17.9125 17.8613C17.455 15.9747 17.9633 13.9052 19.4343 12.4343Z" fill="#353566"/>
</svg>
