<svg width="46" height="48" viewBox="0 0 46 48" fill="none" xmlns="http://www.w3.org/2000/svg">
<path fill-rule="evenodd" clip-rule="evenodd" d="M15.9085 29.0495C15.3551 28.0892 15.6833 26.861 16.6424 26.3063C17.6461 25.7257 17.6461 24.274 16.6424 23.6935C15.6833 23.1388 15.3551 21.9106 15.9085 20.9503L17.148 18.7997C17.7016 17.8391 18.9281 17.5097 19.8874 18.0645C20.8902 18.6445 22.145 17.92 22.145 16.7583C22.145 15.6496 23.0423 14.75 24.1502 14.75H26.6292C27.737 14.75 28.6343 15.6496 28.6343 16.7583C28.6343 17.9201 29.8892 18.6446 30.8919 18.0646C31.8513 17.5098 33.0778 17.8392 33.6314 18.7998L34.8708 20.9504C35.4243 21.9107 35.096 23.1389 34.137 23.6936C33.1333 24.2741 33.1333 25.7257 34.137 26.3062C35.096 26.8609 35.4243 28.089 34.8708 29.0493L33.6314 31.2C33.0778 32.1605 31.8513 32.49 30.892 31.9351C29.8892 31.3552 28.6343 32.0797 28.6343 33.2416C28.6343 34.3503 27.737 35.25 26.6291 35.25H24.1502C23.0424 35.25 22.145 34.3504 22.145 33.2416C22.145 32.0798 20.8902 31.3553 19.8874 31.9353C18.9281 32.4901 17.7016 32.1607 17.148 31.2001L15.9085 29.0495ZM22.1397 25C22.1397 23.2051 23.5948 21.75 25.3897 21.75C27.1846 21.75 28.6397 23.2051 28.6397 25C28.6397 26.7949 27.1846 28.25 25.3897 28.25C23.5948 28.25 22.1397 26.7949 22.1397 25Z" fill="#374151"/>
<rect x="30.4102" y="13" width="8" height="8" rx="4" fill="#FF4D4F"/>
</svg>
