<svg width="40" height="40" viewBox="0 0 40 40" fill="none" xmlns="http://www.w3.org/2000/svg">
<rect x="8" y="4" width="32" height="32" rx="16" fill="#EFF6FF"/>
<path fill-rule="evenodd" clip-rule="evenodd" d="M20.75 24.622C21.6239 24.3131 22.25 23.4797 22.25 22.5C22.25 21.2574 21.2426 20.25 20 20.25C18.7574 20.25 17.75 21.2574 17.75 22.5C17.75 23.4797 18.3761 24.3131 19.25 24.622V26C19.25 26.4142 19.5858 26.75 20 26.75C20.4142 26.75 20.75 26.4142 20.75 26V24.622ZM19.25 22.5C19.25 22.0858 19.5858 21.75 20 21.75C20.4142 21.75 20.75 22.0858 20.75 22.5C20.75 22.9142 20.4142 23.25 20 23.25C19.5858 23.25 19.25 22.9142 19.25 22.5Z" fill="#353566"/>
<path fill-rule="evenodd" clip-rule="evenodd" d="M20 9.25C17.1005 9.25 14.75 11.6005 14.75 14.5V16.2949C14.211 16.3402 13.7367 16.4349 13.2975 16.6587C12.5919 17.0183 12.0183 17.5919 11.6587 18.2975C11.4324 18.7418 11.338 19.2219 11.2934 19.7685C11.25 20.2994 11.25 20.955 11.25 21.7679V25.2321C11.25 26.0449 11.25 26.7006 11.2934 27.2315C11.338 27.7781 11.4324 28.2582 11.6587 28.7025C12.0183 29.4081 12.5919 29.9818 13.2975 30.3413C13.7418 30.5676 14.2219 30.662 14.7685 30.7066C15.2994 30.75 15.955 30.75 16.7679 30.75H23.2321C24.045 30.75 24.7006 30.75 25.2315 30.7066C25.7781 30.662 26.2582 30.5676 26.7025 30.3413C27.4081 29.9818 27.9818 29.4081 28.3413 28.7025C28.5676 28.2582 28.662 27.7781 28.7066 27.2315C28.75 26.7006 28.75 26.045 28.75 25.2321V21.7679C28.75 20.955 28.75 20.2994 28.7066 19.7685C28.662 19.2219 28.5676 18.7418 28.3413 18.2975C27.9818 17.5919 27.4081 17.0183 26.7025 16.6587C26.2633 16.4349 25.789 16.3402 25.25 16.2949V14.5C25.25 11.6005 22.8995 9.25 20 9.25ZM23.75 16.2505V14.5C23.75 12.4289 22.0711 10.75 20 10.75C17.9289 10.75 16.25 12.4289 16.25 14.5V16.2505C16.4149 16.25 16.5872 16.25 16.7672 16.25H23.2321C23.4121 16.25 23.5851 16.25 23.75 16.2505ZM13.9785 17.9952C14.176 17.8946 14.4368 17.8255 14.8907 17.7884C15.3533 17.7506 15.9475 17.75 16.8 17.75H23.2C24.0525 17.75 24.6467 17.7506 25.1093 17.7884C25.5632 17.8255 25.824 17.8946 26.0215 17.9952C26.4448 18.211 26.789 18.5552 27.0048 18.9785C27.1054 19.176 27.1745 19.4368 27.2116 19.8907C27.2494 20.3533 27.25 20.9475 27.25 21.8V25.2C27.25 26.0525 27.2494 26.6467 27.2116 27.1093C27.1745 27.5632 27.1054 27.824 27.0048 28.0215C26.789 28.4448 26.4448 28.789 26.0215 29.0048C25.824 29.1054 25.5632 29.1745 25.1093 29.2116C24.6467 29.2494 24.0525 29.25 23.2 29.25H16.8C15.9475 29.25 15.3533 29.2494 14.8907 29.2116C14.4368 29.1745 14.176 29.1054 13.9785 29.0048C13.5552 28.789 13.211 28.4448 12.9952 28.0215C12.8946 27.824 12.8255 27.5632 12.7884 27.1093C12.7506 26.6467 12.75 26.0525 12.75 25.2V21.8C12.75 20.9475 12.7506 20.3533 12.7884 19.8907C12.8255 19.4368 12.8946 19.176 12.9952 18.9785C13.211 18.5552 13.5552 18.211 13.9785 17.9952Z" fill="#353566"/>
</svg>
