<svg width="42" height="42" viewBox="0 0 42 42" fill="none" xmlns="http://www.w3.org/2000/svg">
<path d="M21 2.1875C15.9259 2.1875 11.8125 6.30088 11.8125 11.375V14.5161C10.8693 14.5953 10.0393 14.7612 9.27069 15.1528C8.03587 15.7819 7.03194 16.7859 6.40277 18.0207C6.00667 18.7981 5.84155 19.6383 5.76339 20.5949C5.68748 21.524 5.68749 22.6713 5.6875 24.0938V30.1562C5.68749 31.5786 5.68748 32.726 5.76339 33.6551C5.84155 34.6117 6.00667 35.4519 6.40277 36.2293C7.03194 37.4641 8.03587 38.4681 9.27069 39.0972C10.0481 39.4933 10.8883 39.6585 11.8449 39.7366C12.774 39.8125 13.9213 39.8125 15.3438 39.8125H26.6562C28.0787 39.8125 29.226 39.8125 30.1551 39.7366C31.1117 39.6585 31.9519 39.4933 32.7293 39.0972C33.9641 38.4681 34.9681 37.4641 35.5972 36.2293C35.9933 35.4519 36.1585 34.6117 36.2366 33.6551C36.3125 32.726 36.3125 31.5787 36.3125 30.1562V24.0938C36.3125 22.6713 36.3125 21.524 36.2366 20.5949C36.1585 19.6383 35.9933 18.7981 35.5972 18.0207C34.9681 16.7859 33.9641 15.7819 32.7293 15.1528C31.9519 14.7567 31.1117 14.5915 30.1551 14.5134C29.226 14.4375 28.0787 14.4375 26.6562 14.4375H15.3438C15.0284 14.4375 14.7265 14.4375 14.4375 14.4383V11.375C14.4375 7.75063 17.3756 4.8125 21 4.8125C23.8553 4.8125 26.2879 6.63676 27.1894 9.18739C27.431 9.87082 28.1808 10.229 28.8643 9.98748C29.5477 9.74592 29.9059 8.99605 29.6644 8.31261C28.4038 4.74598 25.0023 2.1875 21 2.1875Z" fill="#353566" stroke="#353566" stroke-linecap="round" stroke-linejoin="round"/>
</svg>
