<svg width="18" height="16" viewBox="0 0 18 16" fill="none" xmlns="http://www.w3.org/2000/svg">
<g clip-path="url(#clip0_107_2525)">
<path d="M10.3534 10.3536C10.1581 10.5489 9.84155 10.5489 9.64628 10.3536L7.99983 8.70719L6.35338 10.3536C6.15812 10.5489 5.84154 10.5489 5.64628 10.3536C5.45102 10.1584 5.45102 9.84179 5.64628 9.64653L7.29272 8.00008L5.64628 6.35364C5.45102 6.15838 5.45102 5.8418 5.64628 5.64653C5.84155 5.45127 6.15813 5.45127 6.35339 5.64653L7.99983 7.29297L9.64628 5.64653C9.84154 5.45127 10.1581 5.45127 10.3534 5.64653C10.5486 5.84179 10.5486 6.15837 10.3534 6.35363L8.70694 8.00008L10.3534 9.64653C10.5487 9.8418 10.5487 10.1584 10.3534 10.3536Z" fill="#C28C78"/>
<path fill-rule="evenodd" clip-rule="evenodd" d="M0.166504 8.00008C0.166504 3.67385 3.67361 0.166748 7.99984 0.166748C12.3261 0.166748 15.8332 3.67385 15.8332 8.00008C15.8332 12.3263 12.3261 15.8334 7.99984 15.8334C3.67361 15.8334 0.166504 12.3263 0.166504 8.00008ZM7.99984 1.16675C4.22589 1.16675 1.1665 4.22614 1.1665 8.00008C1.1665 11.774 4.22589 14.8334 7.99984 14.8334C11.7738 14.8334 14.8332 11.774 14.8332 8.00008C14.8332 4.22614 11.7738 1.16675 7.99984 1.16675Z" fill="#C28C78"/>
</g>
<defs>
<clipPath id="clip0_107_2525">
<rect width="16" height="16" fill="white"/>
</clipPath>
</defs>
</svg>
