<svg width="18" height="16" viewBox="0 0 18 16" fill="none" xmlns="http://www.w3.org/2000/svg">
<g clip-path="url(#clip0_107_2545)">
<path d="M11.3534 6.35363C11.5487 6.15837 11.5487 5.84179 11.3534 5.64653C11.1581 5.45127 10.8415 5.45127 10.6463 5.64653L6.99984 9.29297L5.35339 7.64653C5.15813 7.45127 4.84155 7.45127 4.64628 7.64653C4.45102 7.84179 4.45102 8.15837 4.64628 8.35363L6.64628 10.3536C6.84155 10.5489 7.15813 10.5489 7.35339 10.3536L11.3534 6.35363Z" fill="#77A590"/>
<path fill-rule="evenodd" clip-rule="evenodd" d="M7.99984 0.166748C3.67361 0.166748 0.166504 3.67385 0.166504 8.00008C0.166504 12.3263 3.67361 15.8334 7.99984 15.8334C12.3261 15.8334 15.8332 12.3263 15.8332 8.00008C15.8332 3.67385 12.3261 0.166748 7.99984 0.166748ZM1.1665 8.00008C1.1665 4.22614 4.22589 1.16675 7.99984 1.16675C11.7738 1.16675 14.8332 4.22614 14.8332 8.00008C14.8332 11.774 11.7738 14.8334 7.99984 14.8334C4.22589 14.8334 1.1665 11.774 1.1665 8.00008Z" fill="#77A590"/>
</g>
<defs>
<clipPath id="clip0_107_2545">
<rect width="16" height="16" fill="white"/>
</clipPath>
</defs>
</svg>
